RobotoFlex-opsz8-wght100-wdth25.ufo
<glyph name="quotedbl" format="2">
  <advance width="613"/>
  <unicode hex="0022"/>
  <outline>
    <contour>
      <point x="108.7462745098" y="1071.4509803922" type="line"/>
      <point x="100.0" y="1348.5011764706" type="line"/>
      <point x="100.0" y="1456.0" type="line"/>
      <point x="206.8376470588" y="1456.0" type="line"/>
      <point x="206.8376470588" y="1348.5011764706" type="line"/>
      <point x="197.7776470588" y="1071.4509803922" type="line"/>
    </contour>
    <contour>
      <point x="415.5839215686" y="1071.4509803922" type="line"/>
      <point x="406.8376470588" y="1348.5011764706" type="line"/>
      <point x="406.8376470588" y="1456.0" type="line"/>
      <point x="513.3615686275" y="1456.0" type="line"/>
      <point x="513.3615686275" y="1348.5011764706" type="line"/>
      <point x="504.30156862750005" y="1071.4509803922" type="line"/>
    </contour>
  </outline>
</glyph>
<glyph name="numbersign" format="2">
  <advance width="1454"/>
  <unicode hex="0023"/>
  <outline>
    <contour>
      <point x="207.5443137255" y="-20.0" type="line"/>
      <point x="755.6188235294" y="1408.8431372549" type="line"/>
      <point x="841.422745098" y="1408.8431372549" type="line"/>
      <point x="293.6619607843" y="-20.0" type="line"/>
    </contour>
    <contour>
      <point x="678.8039215686" y="-20.0" type="line"/>
      <point x="1226.8847058824" y="1408.8431372549" type="line"/>
      <point x="1314.3749019608" y="1408.8431372549" type="line"/>
      <point x="766.2941176471" y="-20.0" type="line"/>
    </contour>
    <contour>
      <point x="48.6588235294" y="432.7411764706" type="line"/>
      <point x="48.6588235294" y="526.4925490196" type="line"/>
      <point x="1326.4745098039" y="526.4925490196" type="line"/>
      <point x="1326.4745098039" y="432.7411764706" type="line"/>
    </contour>
    <contour>
      <point x="194.7584313725" y="862.3505882353" type="line"/>
      <point x="194.7584313725" y="956.1019607843" type="line"/>
      <point x="1471.8878431373" y="956.1019607843" type="line"/>
      <point x="1471.8878431373" y="862.3505882353" type="line"/>
    </contour>
  </outline>
</glyph>
<glyph name="parenleft" format="2">
  <advance width="605"/>
  <unicode hex="0028"/>
  <outline>
    <contour>
      <point x="591" y="-436.0" type="line"/>
      <point x="379" y="-362"/>
      <point x="124.0" y="69"/>
      <point x="124.0" y="515.0" type="qcurve" smooth="yes"/>
      <point x="124.0" y="525.0" type="line" smooth="yes"/>
      <point x="124.0" y="925"/>
      <point x="379" y="1402"/>
      <point x="591" y="1476.0" type="qcurve"/>
      <point x="591" y="1398" type="line"/>
      <point x="415" y="1327"/>
      <point x="226" y="879.0"/>
      <point x="226" y="532.0" type="qcurve" smooth="yes"/>
      <point x="226" y="508.0" type="line" smooth="yes"/>
      <point x="226" y="162.0"/>
      <point x="415" y="-285"/>
      <point x="591" y="-356" type="qcurve"/>
    </contour>
  </outline>
</glyph>
<glyph name="parenright" format="2">
  <advance width="605"/>
  <unicode hex="0029"/>
  <outline>
    <contour>
      <point x="14" y="-436.0" type="qcurve"/>
      <point x="14" y="-353" type="line"/>
      <point x="191" y="-283"/>
      <point x="381.0" y="163.0"/>
      <point x="381.0" y="508.0" type="qcurve" smooth="yes"/>
      <point x="381.0" y="532.0" type="line" smooth="yes"/>
      <point x="381.0" y="881.0"/>
      <point x="191" y="1332"/>
      <point x="14" y="1402" type="qcurve"/>
      <point x="14" y="1476.0" type="line"/>
      <point x="226" y="1402"/>
      <point x="481" y="925"/>
      <point x="481" y="525.0" type="qcurve" smooth="yes"/>
      <point x="481" y="515.0" type="line" smooth="yes"/>
      <point x="481" y="69"/>
      <point x="226" y="-362"/>
    </contour>
  </outline>
</glyph>
<glyph name="plus" format="2">
  <advance width="1387"/>
  <unicode hex="002B"/>
  <outline>
    <contour>
      <point x="116.9717647059" y="627.0737254902" type="line"/>
      <point x="116.9717647059" y="726.2988235294" type="line"/>
      <point x="1270.2243137255" y="726.2988235294" type="line"/>
      <point x="1270.2243137255" y="627.0737254902" type="line"/>
    </contour>
    <contour>
      <point x="644.2866666667" y="77.23607843139999" type="line"/>
      <point x="644.2866666667" y="1270.7639215686" type="line"/>
      <point x="742.9094117647" y="1270.7639215686" type="line"/>
      <point x="742.9094117647" y="77.23607843139999" type="line"/>
    </contour>
  </outline>
</glyph>
<glyph name="zero" format="2">
  <advance width="1169"/>
  <unicode hex="0030"/>
  <outline>
    <contour>
      <point x="162.5058823529" y="486.1764705882" type="qcurve" smooth="yes"/>
      <point x="162.5058823529" y="979.8235294118" type="line" smooth="yes"/>
      <point x="162.5058823529" y="1229.6431372549"/>
      <point x="374.9254901961" y="1486.0"/>
      <point x="583.8588235294" y="1486.0" type="qcurve" smooth="yes"/>
      <point x="791.8470588235" y="1486.0"/>
      <point x="1006.2117647058999" y="1229.6431372549"/>
      <point x="1006.2117647058999" y="979.8235294118" type="qcurve" smooth="yes"/>
      <point x="1006.2117647058999" y="486.1764705882" type="line" smooth="yes"/>
      <point x="1006.2117647058999" y="235.73725490200002"/>
      <point x="791.8470588235" y="-30.0"/>
      <point x="583.8588235294" y="-30.0" type="qcurve" smooth="yes"/>
      <point x="374.9254901961" y="-30.0"/>
      <point x="162.5058823529" y="235.73725490200002"/>
    </contour>
    <contour>
      <point x="265.2862745098" y="486.1764705882" type="line" smooth="yes"/>
      <point x="265.2862745098" y="275.0705882353"/>
      <point x="414.9960784314" y="68.3647058824"/>
      <point x="583.8588235294" y="68.3647058824" type="qcurve" smooth="yes"/>
      <point x="752.0352941176" y="68.3647058824"/>
      <point x="904.1176470588" y="275.0705882353"/>
      <point x="904.1176470588" y="486.1764705882" type="qcurve" smooth="yes"/>
      <point x="904.1176470588" y="979.8235294118" type="line" smooth="yes"/>
      <point x="904.1176470588" y="1169.337254902"/>
      <point x="752.0352941176" y="1387.6352941176"/>
      <point x="583.8588235294" y="1387.6352941176" type="qcurve" smooth="yes"/>
      <point x="414.9960784314" y="1387.6352941176"/>
      <point x="265.2862745098" y="1169.337254902"/>
      <point x="265.2862745098" y="979.8235294118" type="qcurve" smooth="yes"/>
    </contour>
  </outline>
</glyph>
<glyph name="one" format="2">
  <advance width="1169"/>
  <unicode hex="0031"/>
  <outline>
    <contour>
      <point x="577" y="0.0" type="line"/>
      <point x="577" y="1352" type="line"/>
      <point x="186" y="1219" type="line"/>
      <point x="186" y="1321.0" type="line"/>
      <point x="628" y="1476.0" type="line"/>
      <point x="679" y="1476.0" type="line"/>
      <point x="679" y="0.0" type="line"/>
    </contour>
  </outline>
</glyph>
<glyph name="two" format="2">
  <advance width="1169"/>
  <unicode hex="0032"/>
  <outline>
    <contour>
      <point x="166" y="0.0" type="line"/>
      <point x="166" y="86" type="line"/>
      <point x="705" y="721" type="line" smooth="yes"/>
      <point x="781" y="811"/>
      <point x="898" y="1009"/>
      <point x="898" y="1116" type="qcurve" smooth="yes"/>
      <point x="898" y="1236"/>
      <point x="736" y="1391"/>
      <point x="585" y="1391" type="qcurve" smooth="yes"/>
      <point x="427" y="1391"/>
      <point x="257" y="1184"/>
      <point x="257" y="1024" type="qcurve" smooth="yes"/>
      <point x="257" y="1013" type="line"/>
      <point x="158" y="1013" type="line"/>
      <point x="158" y="1023" type="line" smooth="yes"/>
      <point x="158" y="1246"/>
      <point x="398" y="1486.0"/>
      <point x="584" y="1486.0" type="qcurve" smooth="yes"/>
      <point x="766" y="1486.0"/>
      <point x="1000" y="1299"/>
      <point x="1000" y="1126" type="qcurve" smooth="yes"/>
      <point x="1000" y="996"/>
      <point x="897" y="802"/>
      <point x="778" y="662" type="qcurve" smooth="yes"/>
      <point x="296" y="95" type="line"/>
      <point x="1017" y="95" type="line"/>
      <point x="1017" y="0.0" type="line"/>
    </contour>
  </outline>
</glyph>
<glyph name="three" format="2">
  <advance width="1169"/>
  <unicode hex="0033"/>
  <outline>
    <contour>
      <point x="124" y="386" type="qcurve" smooth="yes"/>
      <point x="124" y="396" type="line"/>
      <point x="225.0" y="396" type="line"/>
      <point x="225.0" y="386" type="line" smooth="yes"/>
      <point x="225.0" y="246"/>
      <point x="397" y="65"/>
      <point x="556" y="65" type="qcurve" smooth="yes"/>
      <point x="715" y="65"/>
      <point x="887" y="249"/>
      <point x="887" y="392" type="qcurve" smooth="yes"/>
      <point x="887" y="553.0"/>
      <point x="669" y="711"/>
      <point x="517" y="710" type="qcurve" smooth="yes"/>
      <point x="385" y="710" type="line"/>
      <point x="385" y="805" type="line"/>
      <point x="506" y="805" type="line" smooth="yes"/>
      <point x="655" y="805"/>
      <point x="834" y="963.0"/>
      <point x="834" y="1093" type="qcurve" smooth="yes"/>
      <point x="834" y="1223"/>
      <point x="690" y="1391"/>
      <point x="556" y="1391" type="qcurve" smooth="yes"/>
      <point x="416" y="1391"/>
      <point x="266" y="1224"/>
      <point x="266" y="1094" type="qcurve" smooth="yes"/>
      <point x="266" y="1084" type="line"/>
      <point x="165" y="1084" type="line"/>
      <point x="165" y="1094" type="line" smooth="yes"/>
      <point x="165" y="1283"/>
      <point x="385" y="1486.0"/>
      <point x="556" y="1486.0" type="qcurve" smooth="yes"/>
      <point x="722" y="1486.0"/>
      <point x="936" y="1284"/>
      <point x="936" y="1097" type="qcurve" smooth="yes"/>
      <point x="936" y="992.0"/>
      <point x="818" y="810.0"/>
      <point x="698" y="766.0" type="qcurve"/>
      <point x="698" y="762.0" type="line"/>
      <point x="828" y="738.0"/>
      <point x="989" y="542"/>
      <point x="989" y="380" type="qcurve" smooth="yes"/>
      <point x="989" y="182"/>
      <point x="745" y="-30.0"/>
      <point x="556" y="-30.0" type="qcurve" smooth="yes"/>
      <point x="367" y="-30.0"/>
      <point x="124" y="186"/>
    </contour>
  </outline>
</glyph>
<glyph name="four" format="2">
  <advance width="1169"/>
  <unicode hex="0034"/>
  <outline>
    <contour>
      <point x="765" y="0.0" type="line"/>
      <point x="765" y="397.0" type="line"/>
      <point x="765" y="418.0" type="line"/>
      <point x="765" y="1267" type="line"/>
      <point x="757" y="1267" type="line"/>
      <point x="203" y="451" type="line"/>
      <point x="799" y="451" type="line"/>
      <point x="830" y="451" type="line"/>
      <point x="1074" y="451" type="line"/>
      <point x="1074" y="359" type="line"/>
      <point x="104" y="359" type="line"/>
      <point x="104" y="461" type="line"/>
      <point x="780" y="1456.0" type="line"/>
      <point x="865" y="1456.0" type="line"/>
      <point x="865" y="0.0" type="line"/>
    </contour>
  </outline>
</glyph>
<glyph name="seven" format="2">
  <advance width="1169"/>
  <unicode hex="0037"/>
  <outline>
    <contour>
      <point x="339" y="0.0" type="line"/>
      <point x="896" y="1361" type="line"/>
      <point x="116" y="1361" type="line"/>
      <point x="116" y="1456.0" type="line"/>
      <point x="1003" y="1456.0" type="line"/>
      <point x="1003" y="1370" type="line"/>
      <point x="448" y="0.0" type="line"/>
    </contour>
  </outline>
</glyph>
<glyph name="eight" format="2">
  <advance width="1232"/>
  <unicode hex="0038"/>
  <outline>
    <contour>
      <point x="172" y="385.0" type="qcurve" smooth="yes"/>
      <point x="172" y="517.0"/>
      <point x="332" y="708"/>
      <point x="441" y="748.0" type="qcurve"/>
      <point x="441" y="752.0" type="line"/>
      <point x="355" y="792"/>
      <point x="218" y="972.0"/>
      <point x="218" y="1094.0" type="qcurve" smooth="yes"/>
      <point x="218" y="1271.0"/>
      <point x="461" y="1486.0"/>
      <point x="632" y="1486.0" type="qcurve" smooth="yes"/>
      <point x="803" y="1486.0"/>
      <point x="1044" y="1266"/>
      <point x="1044" y="1094.0" type="qcurve" smooth="yes"/>
      <point x="1044" y="972.0"/>
      <point x="907" y="792"/>
      <point x="821" y="752.0" type="qcurve"/>
      <point x="821" y="748.0" type="line"/>
      <point x="931" y="718"/>
      <point x="1090" y="518.0"/>
      <point x="1090" y="385.0" type="qcurve" smooth="yes"/>
      <point x="1090" y="190.0"/>
      <point x="822" y="-30.0"/>
      <point x="632" y="-30.0" type="qcurve" smooth="yes"/>
      <point x="442" y="-30.0"/>
      <point x="172" y="190.0"/>
    </contour>
    <contour>
      <point x="274" y="391" type="qcurve" smooth="yes"/>
      <point x="274" y="248"/>
      <point x="475" y="65"/>
      <point x="632" y="65" type="qcurve" smooth="yes"/>
      <point x="789" y="65"/>
      <point x="988" y="247"/>
      <point x="988" y="391" type="qcurve" smooth="yes"/>
      <point x="988" y="529"/>
      <point x="789" y="698"/>
      <point x="632" y="698" type="qcurve" smooth="yes"/>
      <point x="475" y="698"/>
      <point x="274" y="530.0"/>
    </contour>
    <contour>
      <point x="318" y="1088" type="qcurve" smooth="yes"/>
      <point x="318" y="961"/>
      <point x="495" y="792"/>
      <point x="632" y="792" type="qcurve" smooth="yes"/>
      <point x="768" y="792"/>
      <point x="944" y="961"/>
      <point x="944" y="1088" type="qcurve" smooth="yes"/>
      <point x="944" y="1221"/>
      <point x="768" y="1391"/>
      <point x="632" y="1391" type="qcurve" smooth="yes"/>
      <point x="495" y="1391"/>
      <point x="318" y="1221"/>
    </contour>
  </outline>
</glyph>
<glyph name="nine" format="2">
  <advance width="1169"/>
  <unicode hex="0039"/>
  <outline>
    <contour>
      <point x="108" y="991.0" type="qcurve" smooth="yes"/>
      <point x="108" y="1211.0"/>
      <point x="355" y="1486.0"/>
      <point x="554" y="1486.0" type="qcurve" smooth="yes"/>
      <point x="781" y="1486.0"/>
      <point x="1031" y="1159.0"/>
      <point x="1031" y="842.0" type="qcurve" smooth="yes"/>
      <point x="1031" y="812.0" type="line" smooth="yes"/>
      <point x="1031" y="428.0"/>
      <point x="614" y="-30.0"/>
      <point x="296" y="-30.0" type="qcurve" smooth="yes"/>
      <point x="276" y="-30.0" type="line"/>
      <point x="276" y="65" type="line"/>
      <point x="296" y="65" type="line" smooth="yes"/>
      <point x="569" y="65"/>
      <point x="929" y="451"/>
      <point x="929" y="802.0" type="qcurve" smooth="yes"/>
      <point x="929" y="852.0" type="line" smooth="yes"/>
      <point x="929" y="1146"/>
      <point x="722" y="1391"/>
      <point x="554" y="1391" type="qcurve" smooth="yes"/>
      <point x="387" y="1391"/>
      <point x="211.0" y="1180"/>
      <point x="211.0" y="991.0" type="qcurve" smooth="yes"/>
      <point x="211.0" y="815"/>
      <point x="387" y="622"/>
      <point x="554" y="623" type="qcurve" smooth="yes"/>
      <point x="712" y="624"/>
      <point x="935" y="833"/>
      <point x="935" y="991.0" type="qcurve"/>
      <point x="983" y="991.0" type="line"/>
      <point x="983" y="787"/>
      <point x="731" y="528"/>
      <point x="534" y="528" type="qcurve" smooth="yes"/>
      <point x="338" y="528"/>
      <point x="108" y="783.0"/>
    </contour>
  </outline>
</glyph>
<glyph name="semicolon" format="2">
  <advance width="506"/>
  <unicode hex="003B"/>
  <outline>
    <contour>
      <point x="157.68" y="-160.7325490196" type="line"/>
      <point x="187.0125490196" y="-114.0462745098"/>
      <point x="216.6125490196" y="-11.4737254902"/>
      <point x="216.6125490196" y="55.3725490196" type="qcurve" smooth="yes"/>
      <point x="216.6125490196" y="172.791372549" type="line"/>
      <point x="322.4501960784" y="172.791372549" type="line"/>
      <point x="322.4501960784" y="56.3725490196" type="line" smooth="yes"/>
      <point x="322.4501960784" y="-28.88"/>
      <point x="273.3239215686" y="-158.4988235294"/>
      <point x="227.331372549" y="-209.3450980392" type="qcurve"/>
    </contour>
    <contour>
      <point x="176.0" y="1009.0211764706" type="qcurve" smooth="yes"/>
      <point x="176.0" y="1049.7537254902"/>
      <point x="215.5925490196" y="1106.8"/>
      <point x="253.111372549" y="1106.8" type="qcurve" smooth="yes"/>
      <point x="290.6301960784" y="1106.8"/>
      <point x="330.222745098" y="1049.7537254902"/>
      <point x="330.222745098" y="1009.0211764706" type="qcurve" smooth="yes"/>
      <point x="330.222745098" y="968.9749019608"/>
      <point x="290.6301960784" y="911.2423529412"/>
      <point x="253.111372549" y="911.2423529412" type="qcurve" smooth="yes"/>
      <point x="216.2788235294" y="911.2423529412"/>
      <point x="176.0" y="968.9749019608"/>
    </contour>
  </outline>
</glyph>
<glyph name="less" format="2">
  <advance width="1596"/>
  <unicode hex="003C"/>
  <outline>
    <contour>
      <point x="1221.0" y="240.0" type="line"/>
      <point x="361.0" y="628.0" type="line"/>
      <point x="361.0" y="730.0" type="line"/>
      <point x="1221.0" y="1119.0" type="line"/>
      <point x="1221.0" y="1018.0" type="line"/>
      <point x="451.0" y="676.0" type="line"/>
      <point x="1221.0" y="330.0" type="line"/>
    </contour>
  </outline>
</glyph>
<glyph name="equal" format="2">
  <advance width="1136"/>
  <unicode hex="003D"/>
  <outline>
    <contour>
      <point x="165.0" y="430.0" type="line"/>
      <point x="165.0" y="519.0" type="line"/>
      <point x="971.0" y="519.0" type="line"/>
      <point x="971.0" y="430.0" type="line"/>
    </contour>
    <contour>
      <point x="165.0" y="849.0" type="line"/>
      <point x="165.0" y="938.0" type="line"/>
      <point x="971.0" y="938.0" type="line"/>
      <point x="971.0" y="849.0" type="line"/>
    </contour>
  </outline>
</glyph>
<glyph name="greater" format="2">
  <advance width="1596"/>
  <unicode hex="003E"/>
  <outline>
    <contour>
      <point x="374.0" y="240.0" type="line"/>
      <point x="374.0" y="340.0" type="line"/>
      <point x="1145.0" y="682.0" type="line"/>
      <point x="374.0" y="1028.0000000000002" type="line"/>
      <point x="374.0" y="1119.0" type="line"/>
      <point x="1235.0" y="731.0" type="line"/>
      <point x="1235.0" y="628.0" type="line"/>
    </contour>
  </outline>
</glyph>
<glyph name="B" format="2">
  <advance width="1129"/>
  <unicode hex="0042"/>
  <anchor x="564.5" y="0" name="bottom"/>
  <anchor x="564.5" y="1456" name="top"/>
  <outline>
    <contour>
      <point x="170.0" y="0.0" type="line"/>
      <point x="170.0" y="1456.0" type="line"/>
      <point x="572" y="1456.0" type="line" smooth="yes"/>
      <point x="766" y="1456.0"/>
      <point x="984" y="1277"/>
      <point x="984" y="1087" type="qcurve" smooth="yes"/>
      <point x="984" y="960"/>
      <point x="872" y="792"/>
      <point x="785" y="767" type="qcurve"/>
      <point x="785" y="763" type="line"/>
      <point x="895" y="736"/>
      <point x="1029" y="549"/>
      <point x="1029" y="399" type="qcurve" smooth="yes"/>
      <point x="1029" y="210"/>
      <point x="801" y="0.0"/>
      <point x="608" y="0.0" type="qcurve" smooth="yes"/>
    </contour>
    <contour>
      <point x="270" y="95" type="line"/>
      <point x="608" y="95" type="line" smooth="yes"/>
      <point x="773" y="95"/>
      <point x="927" y="261"/>
      <point x="927" y="404" type="qcurve" smooth="yes"/>
      <point x="927" y="545"/>
      <point x="773" y="712"/>
      <point x="608" y="712" type="qcurve" smooth="yes"/>
      <point x="270" y="712" type="line"/>
    </contour>
    <contour>
      <point x="270" y="804" type="line"/>
      <point x="572" y="804" type="line" smooth="yes"/>
      <point x="737" y="804"/>
      <point x="882" y="951"/>
      <point x="882" y="1083" type="qcurve" smooth="yes"/>
      <point x="882" y="1217"/>
      <point x="737" y="1360"/>
      <point x="572" y="1361" type="qcurve" smooth="yes"/>
      <point x="270" y="1361" type="line"/>
    </contour>
  </outline>
</glyph>
<glyph name="C" format="2">
  <advance width="1182"/>
  <unicode hex="0043"/>
  <anchor x="653.0" y="0" name="bottom"/>
  <anchor x="653.0" y="1456" name="top"/>
  <outline>
    <contour>
      <point x="115.0" y="702" type="qcurve" smooth="yes"/>
      <point x="115.0" y="754" type="line" smooth="yes"/>
      <point x="115.0" y="1100"/>
      <point x="422" y="1486.0"/>
      <point x="654" y="1486.0" type="qcurve" smooth="yes"/>
      <point x="880" y="1486.0"/>
      <point x="1125" y="1213"/>
      <point x="1136" y="993.0" type="qcurve" smooth="yes"/>
      <point x="1136" y="983.0" type="line"/>
      <point x="1033" y="983.0" type="line"/>
      <point x="1033" y="993.0" type="line" smooth="yes"/>
      <point x="1023" y="1156"/>
      <point x="842" y="1391"/>
      <point x="654" y="1391" type="qcurve" smooth="yes"/>
      <point x="462" y="1391"/>
      <point x="217" y="1060"/>
      <point x="217" y="754" type="qcurve" smooth="yes"/>
      <point x="217" y="702" type="line" smooth="yes"/>
      <point x="217" y="396"/>
      <point x="462" y="65"/>
      <point x="654" y="65" type="qcurve" smooth="yes"/>
      <point x="842" y="65"/>
      <point x="1023" y="300"/>
      <point x="1033" y="463.0" type="qcurve" smooth="yes"/>
      <point x="1033" y="473.0" type="line"/>
      <point x="1136" y="473.0" type="line"/>
      <point x="1136" y="463.0" type="line" smooth="yes"/>
      <point x="1125" y="243"/>
      <point x="880" y="-30.0"/>
      <point x="654" y="-30.0" type="qcurve" smooth="yes"/>
      <point x="422" y="-30.0"/>
      <point x="115.0" y="356"/>
    </contour>
  </outline>
</glyph>
<glyph name="D" format="2">
  <advance width="1237"/>
  <unicode hex="0044"/>
  <anchor x="499" y="0" name="bottom"/>
  <anchor x="618.5" y="728.0" name="center"/>
  <anchor x="499" y="1456" name="top"/>
  <outline>
    <contour>
      <point x="170.0" y="0.0" type="line"/>
      <point x="170.0" y="1456.0" type="line"/>
      <point x="523" y="1456.0" type="line" smooth="yes"/>
      <point x="787" y="1456.0"/>
      <point x="1122" y="1078"/>
      <point x="1122" y="754" type="qcurve" smooth="yes"/>
      <point x="1122" y="702" type="line" smooth="yes"/>
      <point x="1122" y="378"/>
      <point x="787" y="0.0"/>
      <point x="523" y="0.0" type="qcurve" smooth="yes"/>
    </contour>
    <contour>
      <point x="270" y="95" type="line"/>
      <point x="523" y="95" type="line" smooth="yes"/>
      <point x="750" y="95"/>
      <point x="1020" y="409"/>
      <point x="1020" y="702" type="qcurve" smooth="yes"/>
      <point x="1020" y="754" type="line" smooth="yes"/>
      <point x="1020" y="1048"/>
      <point x="750" y="1362"/>
      <point x="523" y="1361" type="qcurve" smooth="yes"/>
      <point x="270" y="1361" type="line"/>
    </contour>
  </outline>
</glyph>
<glyph name="E" format="2">
  <advance width="1033"/>
  <unicode hex="0045"/>
  <anchor x="567" y="0" name="bottom"/>
  <anchor x="937" y="0" name="ogonek"/>
  <anchor x="567" y="1456" name="top"/>
  <outline>
    <contour>
      <point x="170.0" y="0.0" type="line"/>
      <point x="170.0" y="1456.0" type="line"/>
      <point x="954" y="1456.0" type="line"/>
      <point x="954" y="1361" type="line"/>
      <point x="270" y="1361" type="line"/>
      <point x="270" y="798" type="line"/>
      <point x="846" y="798" type="line"/>
      <point x="846" y="704" type="line"/>
      <point x="270" y="704" type="line"/>
      <point x="270" y="95" type="line"/>
      <point x="965" y="95" type="line"/>
      <point x="965" y="0.0" type="line"/>
    </contour>
  </outline>
</glyph>
<glyph name="F" format="2">
  <advance width="998"/>
  <unicode hex="0046"/>
  <anchor x="567.0" y="0" name="bottom"/>
  <anchor x="567.0" y="1456" name="top"/>
  <outline>
    <contour>
      <point x="170.0" y="0.0" type="line"/>
      <point x="170.0" y="1456.0" type="line"/>
      <point x="939" y="1456.0" type="line"/>
      <point x="939" y="1361" type="line"/>
      <point x="270" y="1361" type="line"/>
      <point x="270" y="760" type="line"/>
      <point x="846" y="760" type="line"/>
      <point x="846" y="666" type="line"/>
      <point x="270" y="666" type="line"/>
      <point x="270" y="0.0" type="line"/>
    </contour>
  </outline>
</glyph>
<glyph name="G" format="2">
  <advance width="1211"/>
  <unicode hex="0047"/>
  <anchor x="652" y="0" name="bottom"/>
  <anchor x="652" y="1456" name="top"/>
  <outline>
    <contour>
      <point x="115.0" y="702" type="qcurve" smooth="yes"/>
      <point x="115.0" y="754" type="line" smooth="yes"/>
      <point x="115.0" y="1099"/>
      <point x="420" y="1486.0"/>
      <point x="650" y="1486.0" type="qcurve" smooth="yes"/>
      <point x="873" y="1486.0"/>
      <point x="1120" y="1237"/>
      <point x="1130" y="1034" type="qcurve" smooth="yes"/>
      <point x="1131" y="1024" type="line"/>
      <point x="1028" y="1024" type="line"/>
      <point x="1027" y="1034" type="line" smooth="yes"/>
      <point x="1019" y="1181"/>
      <point x="835" y="1391"/>
      <point x="650" y="1391" type="qcurve" smooth="yes"/>
      <point x="460" y="1391"/>
      <point x="217" y="1060"/>
      <point x="217" y="754" type="qcurve" smooth="yes"/>
      <point x="217" y="702" type="line" smooth="yes"/>
      <point x="217" y="396"/>
      <point x="462" y="65"/>
      <point x="685" y="65" type="qcurve" smooth="yes"/>
      <point x="797" y="65"/>
      <point x="959" y="119"/>
      <point x="1034" y="176" type="qcurve"/>
      <point x="1034" y="601" type="line"/>
      <point x="662" y="601" type="line"/>
      <point x="662" y="696" type="line"/>
      <point x="1132" y="696" type="line"/>
      <point x="1132" y="134" type="line"/>
      <point x="1062" y="68"/>
      <point x="845" y="-30.0"/>
      <point x="685" y="-30.0" type="qcurve" smooth="yes"/>
      <point x="424" y="-30.0"/>
      <point x="115.0" y="357"/>
    </contour>
  </outline>
</glyph>
<glyph name="H" format="2">
  <advance width="1322"/>
  <unicode hex="0048"/>
  <anchor x="661.0" y="0" name="bottom"/>
  <anchor x="661.0" y="1092.0" name="center"/>
  <anchor x="661.0" y="1456" name="top"/>
  <outline>
    <contour>
      <point x="170.0" y="0.0" type="line"/>
      <point x="170.0" y="1456.0" type="line"/>
      <point x="270.64" y="1456.0" type="line"/>
      <point x="270.64" y="798.6" type="line"/>
      <point x="1051.44" y="798.6" type="line"/>
      <point x="1051.44" y="1456.0" type="line"/>
      <point x="1152.08" y="1456.0" type="line"/>
      <point x="1152.08" y="0.0" type="line"/>
      <point x="1051.44" y="0.0" type="line"/>
      <point x="1051.44" y="703.16" type="line"/>
      <point x="270.64" y="703.16" type="line"/>
      <point x="270.64" y="0.0" type="line"/>
    </contour>
  </outline>
</glyph>
<glyph name="I" format="2">
  <advance width="451"/>
  <unicode hex="0049"/>
  <anchor x="225.5" y="0" name="bottom"/>
  <anchor x="215.0" y="0" name="ogonek"/>
  <anchor x="225.5" y="1456" name="top"/>
  <outline>
    <contour>
      <point x="175.0" y="0.0" type="line"/>
      <point x="175.0" y="1456.0" type="line"/>
      <point x="275.0" y="1456.0" type="line"/>
      <point x="275.0" y="0.0" type="line"/>
    </contour>
  </outline>
</glyph>
<glyph name="J" format="2">
  <advance width="951"/>
  <unicode hex="004A"/>
  <anchor x="412" y="0" name="bottom"/>
  <anchor x="749" y="1456" name="top"/>
  <outline>
    <contour>
      <point x="25.0" y="450" type="qcurve" smooth="yes"/>
      <point x="25.0" y="460" type="line"/>
      <point x="126" y="460" type="line"/>
      <point x="126" y="450" type="line" smooth="yes"/>
      <point x="126" y="263"/>
      <point x="274" y="68"/>
      <point x="411" y="68" type="qcurve" smooth="yes"/>
      <point x="547" y="68"/>
      <point x="695" y="279"/>
      <point x="695" y="475" type="qcurve" smooth="yes"/>
      <point x="695" y="1456.0" type="line"/>
      <point x="795" y="1456.0" type="line"/>
      <point x="795" y="475" type="line" smooth="yes"/>
      <point x="795" y="241"/>
      <point x="588" y="-30.0"/>
      <point x="411" y="-30.0" type="qcurve" smooth="yes"/>
      <point x="233" y="-30.0"/>
      <point x="25.0" y="227"/>
    </contour>
  </outline>
</glyph>
<glyph name="K" format="2">
  <advance width="1148"/>
  <unicode hex="004B"/>
  <anchor x="650.0" y="0" name="bottom"/>
  <anchor x="650.0" y="1456" name="top"/>
  <outline>
    <contour>
      <point x="170.0" y="0.0" type="line"/>
      <point x="170.0" y="1456.0" type="line"/>
      <point x="270" y="1456.0" type="line"/>
      <point x="270" y="675" type="line"/>
      <point x="1031" y="1456.0" type="line"/>
      <point x="1154" y="1456.0" type="line"/>
      <point x="270" y="551" type="line"/>
      <point x="270" y="0.0" type="line"/>
    </contour>
    <contour>
      <point x="1047" y="0.0" type="line"/>
      <point x="450" y="768" type="line"/>
      <point x="513" y="839" type="line"/>
      <point x="1168" y="0.0" type="line"/>
    </contour>
  </outline>
</glyph>
<glyph name="L" format="2">
  <advance width="953"/>
  <unicode hex="004C"/>
  <anchor x="547" y="0" name="bottom"/>
  <anchor x="710" y="793.0" name="center"/>
  <anchor x="246" y="1456" name="top"/>
  <anchor x="486" y="1089" name="topright"/>
  <outline>
    <contour>
      <point x="170.0" y="0.0" type="line"/>
      <point x="170.0" y="1456.0" type="line"/>
      <point x="271" y="1456.0" type="line"/>
      <point x="271" y="95" type="line"/>
      <point x="930" y="95" type="line"/>
      <point x="930" y="0.0" type="line"/>
    </contour>
  </outline>
</glyph>
<glyph name="M" format="2">
  <advance width="1652"/>
  <unicode hex="004D"/>
  <anchor x="826.0" y="0" name="bottom"/>
  <anchor x="826.0" y="1456" name="top"/>
  <outline>
    <contour>
      <point x="170.0" y="0.0" type="line"/>
      <point x="170.0" y="1456.0" type="line"/>
      <point x="264" y="1456.0" type="line"/>
      <point x="763" y="250" type="line" smooth="yes"/>
      <point x="777" y="215"/>
      <point x="815" y="101"/>
      <point x="818" y="65" type="qcurve"/>
      <point x="826" y="65" type="line"/>
      <point x="830" y="105"/>
      <point x="863" y="215"/>
      <point x="878.0" y="250" type="qcurve" smooth="yes"/>
      <point x="1377" y="1456.0" type="line"/>
      <point x="1482" y="1456.0" type="line"/>
      <point x="1482" y="0.0" type="line"/>
      <point x="1381" y="0.0" type="line"/>
      <point x="1381" y="1119" type="line" smooth="yes"/>
      <point x="1381.0" y="1155.0"/>
      <point x="1387" y="1242"/>
      <point x="1390" y="1277" type="qcurve"/>
      <point x="1381" y="1277" type="line"/>
      <point x="1374" y="1242"/>
      <point x="1350" y="1155"/>
      <point x="1335" y="1119" type="qcurve" smooth="yes"/>
      <point x="872" y="0.0" type="line"/>
      <point x="770" y="0.0" type="line"/>
      <point x="306" y="1119" type="line" smooth="yes"/>
      <point x="291" y="1155"/>
      <point x="266" y="1242"/>
      <point x="259" y="1277" type="qcurve"/>
      <point x="250" y="1277" type="line"/>
      <point x="255" y="1242"/>
      <point x="260.0" y="1155.0"/>
      <point x="260" y="1119" type="qcurve" smooth="yes"/>
      <point x="260" y="0.0" type="line"/>
    </contour>
  </outline>
</glyph>
<glyph name="N" format="2">
  <advance width="1306"/>
  <unicode hex="004E"/>
  <anchor x="653.0" y="0" name="bottom"/>
  <anchor x="653.0" y="1456" name="top"/>
  <outline>
    <contour>
      <point x="170.0" y="0.0" type="line"/>
      <point x="170.0" y="1456.0" type="line"/>
      <point x="300" y="1456.0" type="line"/>
      <point x="1000" y="195" type="line" smooth="yes"/>
      <point x="1014" y="170"/>
      <point x="1030" y="128"/>
      <point x="1039" y="96" type="qcurve"/>
      <point x="1049" y="96" type="line"/>
      <point x="1043" y="131"/>
      <point x="1040.0" y="207.0"/>
      <point x="1040" y="242" type="qcurve" smooth="yes"/>
      <point x="1040" y="1458.0" type="line"/>
      <point x="1136" y="1456.0" type="line"/>
      <point x="1136" y="0.0" type="line"/>
      <point x="1005" y="0.0" type="line"/>
      <point x="312" y="1248" type="line" smooth="yes"/>
      <point x="295" y="1278"/>
      <point x="274" y="1327"/>
      <point x="264" y="1359" type="qcurve"/>
      <point x="255" y="1359" type="line"/>
      <point x="261" y="1323"/>
      <point x="264.0" y="1260.0"/>
      <point x="264" y="1226" type="qcurve" smooth="yes"/>
      <point x="264" y="0.0" type="line"/>
    </contour>
  </outline>
</glyph>
<glyph name="O" format="2">
  <advance width="1311"/>
  <unicode hex="004F"/>
  <anchor x="655.5" y="0" name="bottom"/>
  <anchor x="655.5" y="728.0" name="center"/>
  <anchor x="772" y="0" name="ogonek"/>
  <anchor x="655.5" y="1456" name="top"/>
  <anchor x="871" y="1456" name="topright"/>
  <outline>
    <contour>
      <point x="115.0" y="702" type="qcurve" smooth="yes"/>
      <point x="115.0" y="754" type="line" smooth="yes"/>
      <point x="115.0" y="1100"/>
      <point x="414" y="1486.0"/>
      <point x="657" y="1486.0" type="qcurve" smooth="yes"/>
      <point x="899" y="1486.0"/>
      <point x="1196" y="1100"/>
      <point x="1196" y="754" type="qcurve" smooth="yes"/>
      <point x="1196" y="702" type="line" smooth="yes"/>
      <point x="1196" y="356"/>
      <point x="899" y="-30.0"/>
      <point x="657" y="-30.0" type="qcurve" smooth="yes"/>
      <point x="415" y="-30.0"/>
      <point x="115.0" y="356"/>
    </contour>
    <contour>
      <point x="217" y="702" type="line" smooth="yes"/>
      <point x="217" y="392"/>
      <point x="455" y="65"/>
      <point x="657" y="65" type="qcurve" smooth="yes"/>
      <point x="858" y="65"/>
      <point x="1094" y="392"/>
      <point x="1094" y="702" type="qcurve" smooth="yes"/>
      <point x="1094" y="754" type="line" smooth="yes"/>
      <point x="1094" y="1064"/>
      <point x="858" y="1391"/>
      <point x="657" y="1391" type="qcurve" smooth="yes"/>
      <point x="455" y="1391"/>
      <point x="217" y="1064"/>
      <point x="217" y="754" type="qcurve" smooth="yes"/>
    </contour>
  </outline>
</glyph>
<glyph name="P" format="2">
  <advance width="1081"/>
  <unicode hex="0050"/>
  <anchor x="540.5" y="0" name="bottom"/>
  <anchor x="540.5" y="1456" name="top"/>
  <outline>
    <contour>
      <point x="170.0" y="0.0" type="line"/>
      <point x="170.0" y="1456.0" type="line"/>
      <point x="571" y="1456.0" type="line" smooth="yes"/>
      <point x="781" y="1456.0"/>
      <point x="1006" y="1232"/>
      <point x="1006" y="1023" type="qcurve" smooth="yes"/>
      <point x="1006" y="815"/>
      <point x="781" y="591"/>
      <point x="571" y="591" type="qcurve" smooth="yes"/>
      <point x="270" y="591" type="line"/>
      <point x="270" y="0.0" type="line"/>
    </contour>
    <contour>
      <point x="270" y="686" type="line"/>
      <point x="571" y="686" type="line" smooth="yes"/>
      <point x="731" y="686"/>
      <point x="904" y="861"/>
      <point x="904" y="1023" type="qcurve" smooth="yes"/>
      <point x="904" y="1187"/>
      <point x="731" y="1362"/>
      <point x="571" y="1361" type="qcurve" smooth="yes"/>
      <point x="270" y="1361" type="line"/>
    </contour>
  </outline>
</glyph>
<glyph name="Q" format="2">
  <advance width="1313"/>
  <unicode hex="0051"/>
  <anchor x="656.5" y="0" name="bottom"/>
  <anchor x="656.5" y="1456" name="top"/>
  <outline>
    <contour>
      <point x="115.0" y="702" type="qcurve" smooth="yes"/>
      <point x="115.0" y="754" type="line" smooth="yes"/>
      <point x="115.0" y="1100"/>
      <point x="414" y="1486.0"/>
      <point x="657" y="1486.0" type="qcurve" smooth="yes"/>
      <point x="899" y="1486.0"/>
      <point x="1196" y="1100"/>
      <point x="1196" y="754" type="qcurve" smooth="yes"/>
      <point x="1196" y="702" type="line" smooth="yes"/>
      <point x="1196" y="356"/>
      <point x="899" y="-30.0"/>
      <point x="657" y="-30.0" type="qcurve" smooth="yes"/>
      <point x="415" y="-30.0"/>
      <point x="115.0" y="356"/>
    </contour>
    <contour>
      <point x="217" y="702" type="line" smooth="yes"/>
      <point x="217" y="392"/>
      <point x="455" y="65"/>
      <point x="657" y="65" type="qcurve" smooth="yes"/>
      <point x="858" y="65"/>
      <point x="1094" y="392"/>
      <point x="1094" y="702" type="qcurve" smooth="yes"/>
      <point x="1094" y="754" type="line" smooth="yes"/>
      <point x="1094" y="1064"/>
      <point x="858" y="1391"/>
      <point x="657" y="1391" type="qcurve" smooth="yes"/>
      <point x="455" y="1391"/>
      <point x="217" y="1064"/>
      <point x="217" y="754" type="qcurve" smooth="yes"/>
    </contour>
    <contour>
      <point x="1150" y="-225" type="line"/>
      <point x="605" y="211.0" type="line"/>
      <point x="671" y="277" type="line"/>
      <point x="1217" y="-156" type="line"/>
    </contour>
  </outline>
</glyph>
<glyph name="R" format="2">
  <advance width="1096"/>
  <unicode hex="0052"/>
  <anchor x="548.0" y="0" name="bottom"/>
  <anchor x="522.0" y="1456" name="top"/>
  <outline>
    <contour>
      <point x="170.0" y="0.0" type="line"/>
      <point x="170.0" y="1456.0" type="line"/>
      <point x="562" y="1456.0" type="line" smooth="yes"/>
      <point x="769" y="1456.0"/>
      <point x="991" y="1239"/>
      <point x="991" y="1037" type="qcurve" smooth="yes"/>
      <point x="991" y="835"/>
      <point x="769" y="618"/>
      <point x="562" y="618" type="qcurve" smooth="yes"/>
      <point x="270" y="618" type="line"/>
      <point x="270" y="0.0" type="line"/>
    </contour>
    <contour>
      <point x="270" y="713" type="line"/>
      <point x="562" y="713" type="line" smooth="yes"/>
      <point x="720" y="713"/>
      <point x="889" y="881"/>
      <point x="889" y="1037" type="qcurve" smooth="yes"/>
      <point x="889" y="1194"/>
      <point x="720" y="1362"/>
      <point x="562" y="1361" type="qcurve" smooth="yes"/>
      <point x="270" y="1361" type="line"/>
    </contour>
    <contour>
      <point x="942" y="0.0" type="line"/>
      <point x="573" y="672.0" type="line"/>
      <point x="695" y="640.0" type="line"/>
      <point x="1054" y="0.0" type="line"/>
    </contour>
  </outline>
</glyph>
<glyph name="S" format="2">
  <advance width="1080"/>
  <unicode hex="0053"/>
  <anchor x="550.0" y="0" name="bottom"/>
  <anchor x="540.0" y="1456" name="top"/>
  <outline>
    <contour>
      <point x="90.0" y="389" type="qcurve" smooth="yes"/>
      <point x="90.0" y="411" type="line"/>
      <point x="192" y="411" type="line"/>
      <point x="192" y="389" type="line" smooth="yes"/>
      <point x="192" y="236"/>
      <point x="379" y="65"/>
      <point x="549" y="65" type="qcurve" smooth="yes"/>
      <point x="719" y="65"/>
      <point x="900" y="237"/>
      <point x="900" y="360" type="qcurve" smooth="yes"/>
      <point x="900" y="474"/>
      <point x="758" y="620"/>
      <point x="539" y="692" type="qcurve" smooth="yes"/>
      <point x="320" y="766"/>
      <point x="118" y="948"/>
      <point x="118" y="1112" type="qcurve" smooth="yes"/>
      <point x="118" y="1268"/>
      <point x="342" y="1486.0"/>
      <point x="539" y="1486.0" type="qcurve" smooth="yes"/>
      <point x="738" y="1486.0"/>
      <point x="972" y="1246"/>
      <point x="972" y="1073" type="qcurve" smooth="yes"/>
      <point x="972" y="1051" type="line"/>
      <point x="872" y="1051" type="line"/>
      <point x="872" y="1073" type="line" smooth="yes"/>
      <point x="872" y="1208"/>
      <point x="704" y="1391"/>
      <point x="539" y="1391" type="qcurve" smooth="yes"/>
      <point x="385" y="1391"/>
      <point x="219" y="1246"/>
      <point x="219" y="1112" type="qcurve" smooth="yes"/>
      <point x="219" y="993"/>
      <point x="370" y="859"/>
      <point x="560" y="794" type="qcurve" smooth="yes"/>
      <point x="784" y="718"/>
      <point x="1000" y="529"/>
      <point x="1000" y="364" type="qcurve" smooth="yes"/>
      <point x="1000" y="192"/>
      <point x="757" y="-30.0"/>
      <point x="549" y="-30.0" type="qcurve" smooth="yes"/>
      <point x="341" y="-30.0"/>
      <point x="90.0" y="194"/>
    </contour>
  </outline>
</glyph>
<glyph name="W" format="2">
  <advance width="1755"/>
  <unicode hex="0057"/>
  <anchor x="877.5" y="0" name="bottom"/>
  <anchor x="877.5" y="1456" name="top"/>
  <outline>
    <contour>
      <point x="415" y="-9.0" type="line"/>
      <point x="47.0" y="1456.0" type="line"/>
      <point x="148" y="1456.0" type="line"/>
      <point x="444" y="246" type="line" smooth="yes"/>
      <point x="453" y="210"/>
      <point x="464" y="103"/>
      <point x="466" y="67" type="qcurve"/>
      <point x="477" y="67" type="line"/>
      <point x="478" y="103"/>
      <point x="497" y="210"/>
      <point x="506" y="246" type="qcurve" smooth="yes"/>
      <point x="822.0" y="1456.0" type="line"/>
      <point x="939.0" y="1456.0" type="line"/>
      <point x="1256" y="246" type="line" smooth="yes"/>
      <point x="1265" y="210"/>
      <point x="1284" y="103"/>
      <point x="1286" y="67" type="qcurve"/>
      <point x="1298" y="67" type="line"/>
      <point x="1299" y="103"/>
      <point x="1309" y="210"/>
      <point x="1318" y="246" type="qcurve" smooth="yes"/>
      <point x="1607" y="1456.0" type="line"/>
      <point x="1705.3333333333" y="1456.0" type="line"/>
      <point x="1349" y="-9.0" type="line"/>
      <point x="1236" y="-9.0" type="line"/>
      <point x="925" y="1182" type="line" smooth="yes"/>
      <point x="915" y="1219"/>
      <point x="894.0" y="1308.0"/>
      <point x="887.0" y="1343.0" type="qcurve"/>
      <point x="877.0" y="1343.0" type="line"/>
      <point x="871.0" y="1308.0"/>
      <point x="853" y="1219"/>
      <point x="843.0" y="1183.0" type="qcurve" smooth="yes"/>
      <point x="527" y="-9.0" type="line"/>
    </contour>
  </outline>
</glyph>
<glyph name="X" format="2">
  <advance width="1185"/>
  <unicode hex="0058"/>
  <anchor x="592.5" y="0" name="bottom"/>
  <anchor x="592.5" y="1456" name="top"/>
  <outline>
    <contour>
      <point x="25.0" y="0.0" type="line"/>
      <point x="561" y="775" type="line"/>
      <point x="575" y="775" type="line"/>
      <point x="1020" y="1456.0" type="line"/>
      <point x="1133" y="1456.0" type="line"/>
      <point x="625" y="701" type="line"/>
      <point x="612" y="701" type="line"/>
      <point x="139" y="0.0" type="line"/>
    </contour>
    <contour>
      <point x="53" y="1456.0" type="line"/>
      <point x="169" y="1456.0" type="line"/>
      <point x="626" y="775" type="line"/>
      <point x="630" y="775" type="line"/>
      <point x="1162" y="0.0" type="line"/>
      <point x="1044" y="0.0" type="line"/>
      <point x="564" y="701" type="line"/>
      <point x="560" y="701" type="line"/>
    </contour>
  </outline>
</glyph>
<glyph name="Z" format="2">
  <advance width="1101"/>
  <unicode hex="005A"/>
  <anchor x="550.5" y="0" name="bottom"/>
  <anchor x="550.5" y="1456" name="top"/>
  <outline>
    <contour>
      <point x="36.0" y="0.0" type="line"/>
      <point x="36.0" y="75.3176470588" type="line"/>
      <point x="893.902745098" y="1359.8705882353" type="line"/>
      <point x="50.0031372549" y="1359.8705882353" type="line"/>
      <point x="50.0031372549" y="1456.0" type="line"/>
      <point x="1027.7745098039" y="1456.0" type="line"/>
      <point x="1027.7745098039" y="1380.6823529412" type="line"/>
      <point x="169.8717647059" y="96.1294117647" type="line"/>
      <point x="1064.8874509804" y="96.1294117647" type="line"/>
      <point x="1064.8874509804" y="0.0" type="line"/>
    </contour>
  </outline>
</glyph>
<glyph name="bracketleft" format="2">
  <advance width="431"/>
  <unicode hex="005B"/>
  <outline>
    <contour>
      <point x="144.0" y="-310.0" type="line"/>
      <point x="144.0" y="1456.0" type="line"/>
      <point x="553.6329411765" y="1456.0" type="line"/>
      <point x="553.6329411765" y="1361.0549019608" type="line"/>
      <point x="243.3764705882" y="1361.0549019608" type="line"/>
      <point x="243.3764705882" y="-215.0549019608" type="line"/>
      <point x="553.6329411765" y="-215.0549019608" type="line"/>
      <point x="553.6329411765" y="-310.0" type="line"/>
    </contour>
  </outline>
</glyph>
<glyph name="backslash" format="2">
  <advance width="532"/>
  <unicode hex="005C"/>
  <outline>
    <contour>
      <point x="-100.0" y="1456.0" type="line"/>
      <point x="-6.703529411800005" y="1456.0" type="line"/>
      <point x="632.2925490196" y="-125.0" type="line"/>
      <point x="538.9898039216" y="-125.0" type="line"/>
    </contour>
  </outline>
</glyph>
<glyph name="bracketright" format="2">
  <advance width="431"/>
  <unicode hex="005D"/>
  <outline>
    <contour>
      <point x="286.7490196078" y="-310.0" type="line"/>
      <point x="-123.57019607839999" y="-310.0" type="line"/>
      <point x="-123.57019607839999" y="-215.0549019608" type="line"/>
      <point x="186.6862745098" y="-215.0549019608" type="line"/>
      <point x="186.6862745098" y="1361.0549019608" type="line"/>
      <point x="-123.57019607839999" y="1361.0549019608" type="line"/>
      <point x="-123.57019607839999" y="1456.0" type="line"/>
      <point x="286.7490196078" y="1456.0" type="line"/>
    </contour>
  </outline>
</glyph>
<glyph name="asciicircum" format="2">
  <advance width="1136"/>
  <unicode hex="005E"/>
  <outline>
    <contour>
      <point x="25.0" y="720.0" type="line"/>
      <point x="522.8392156863" y="1456.0" type="line"/>
      <point x="612.8745098039" y="1456.0" type="line"/>
      <point x="1110.7137254902" y="720.0" type="line"/>
      <point x="990.6784313725" y="720.0" type="line"/>
      <point x="567.8568627451" y="1345.1152941176" type="line"/>
      <point x="145.0352941176" y="720.0" type="line"/>
    </contour>
  </outline>
</glyph>
<glyph name="underscore" format="2">
  <advance width="587"/>
  <unicode hex="005F"/>
  <outline>
    <contour>
      <point x="0.0" y="-364.2941176471" type="line"/>
      <point x="0.0" y="-276.2352941176" type="line"/>
      <point x="586.7450980392" y="-276.2352941176" type="line"/>
      <point x="586.7450980392" y="-364.2941176471" type="line"/>
    </contour>
  </outline>
</glyph>
<glyph name="grave" format="2">
  <advance width="1036"/>
  <unicode hex="0060"/>
  <outline>
    <contour>
      <point x="647.8823529412" y="1199.1960784314" type="line"/>
      <point x="330.6862745098" y="1468.7254901961" type="line"/>
      <point x="414.5490196078" y="1540.137254902" type="line"/>
      <point x="689.568627451" y="1234.1764705882" type="line"/>
    </contour>
  </outline>
</glyph>
<glyph name="c" format="2">
  <advance width="977"/>
  <unicode hex="0063"/>
  <anchor x="534" y="0" name="bottom"/>
  <anchor x="534" y="1089" name="top"/>
  <outline>
    <contour>
      <point x="85" y="529" type="qcurve" smooth="yes"/>
      <point x="85" y="561" type="line" smooth="yes"/>
      <point x="85" y="807"/>
      <point x="325" y="1119"/>
      <point x="535" y="1119" type="qcurve" smooth="yes"/>
      <point x="722" y="1119"/>
      <point x="924" y="905"/>
      <point x="924" y="740" type="qcurve" smooth="yes"/>
      <point x="924" y="735" type="line"/>
      <point x="829" y="735" type="line"/>
      <point x="829" y="740" type="line" smooth="yes"/>
      <point x="829" y="852"/>
      <point x="689" y="1024"/>
      <point x="535" y="1024" type="qcurve" smooth="yes"/>
      <point x="357" y="1024"/>
      <point x="185" y="754"/>
      <point x="185" y="561" type="qcurve" smooth="yes"/>
      <point x="185" y="529" type="line" smooth="yes"/>
      <point x="185" y="333"/>
      <point x="357" y="65"/>
      <point x="535" y="65" type="qcurve" smooth="yes"/>
      <point x="689" y="65"/>
      <point x="829" y="237"/>
      <point x="829" y="350" type="qcurve" smooth="yes"/>
      <point x="829" y="355" type="line"/>
      <point x="924" y="355" type="line"/>
      <point x="924" y="350" type="line" smooth="yes"/>
      <point x="924" y="201"/>
      <point x="729" y="-30"/>
      <point x="535" y="-30" type="qcurve" smooth="yes"/>
      <point x="325" y="-30"/>
      <point x="85" y="282"/>
    </contour>
  </outline>
</glyph>
<glyph name="d" format="2">
  <advance width="1096"/>
  <unicode hex="0064"/>
  <anchor x="548.0" y="0" name="bottom"/>
  <anchor x="768.0" y="1303.0" name="center"/>
  <anchor x="548.0" y="1537" name="top"/>
  <anchor x="907" y="1089" name="topright"/>
  <outline>
    <contour>
      <point x="85.0" y="529" type="qcurve" smooth="yes"/>
      <point x="85.0" y="561" type="line" smooth="yes"/>
      <point x="85.0" y="799"/>
      <point x="300" y="1109"/>
      <point x="492" y="1109" type="qcurve" smooth="yes"/>
      <point x="615" y="1109"/>
      <point x="792" y="1027"/>
      <point x="848" y="960" type="qcurve"/>
      <point x="848" y="1536.0" type="line"/>
      <point x="947" y="1536.0" type="line"/>
      <point x="947" y="0.0" type="line"/>
      <point x="854" y="0.0" type="line"/>
      <point x="851" y="142" type="line"/>
      <point x="852" y="142" type="line"/>
      <point x="804" y="75"/>
      <point x="615" y="-20.0"/>
      <point x="492" y="-20.0" type="qcurve" smooth="yes"/>
      <point x="300" y="-20.0"/>
      <point x="85.0" y="291"/>
    </contour>
    <contour>
      <point x="185" y="529" type="line" smooth="yes"/>
      <point x="185" y="337"/>
      <point x="351" y="75"/>
      <point x="526" y="75" type="qcurve" smooth="yes"/>
      <point x="645" y="75"/>
      <point x="811" y="186"/>
      <point x="848" y="257" type="qcurve"/>
      <point x="848" y="832" type="line"/>
      <point x="811" y="904"/>
      <point x="645" y="1014"/>
      <point x="526" y="1014" type="qcurve" smooth="yes"/>
      <point x="351" y="1014"/>
      <point x="185" y="752"/>
      <point x="185" y="561" type="qcurve" smooth="yes"/>
    </contour>
  </outline>
</glyph>
<glyph name="e" format="2">
  <advance width="966"/>
  <unicode hex="0065"/>
  <anchor x="556.0" y="0" name="bottom"/>
  <anchor x="693" y="0" name="ogonek"/>
  <anchor x="522.0" y="1089" name="top"/>
  <outline>
    <contour>
      <point x="85.0" y="529" type="qcurve" smooth="yes"/>
      <point x="85.0" y="561" type="line" smooth="yes"/>
      <point x="85.0" y="807"/>
      <point x="325" y="1119"/>
      <point x="522" y="1119" type="qcurve" smooth="yes"/>
      <point x="718" y="1119"/>
      <point x="927" y="827"/>
      <point x="927" y="579" type="qcurve" smooth="yes"/>
      <point x="927" y="529" type="line"/>
      <point x="125" y="529" type="line"/>
      <point x="125" y="619" type="line"/>
      <point x="835" y="619" type="line"/>
      <point x="832" y="563" type="line" smooth="yes"/>
      <point x="835" y="781"/>
      <point x="674" y="1024"/>
      <point x="512" y="1024" type="qcurve" smooth="yes"/>
      <point x="366" y="1024"/>
      <point x="185" y="756"/>
      <point x="185" y="561" type="qcurve" smooth="yes"/>
      <point x="185" y="529" type="line" smooth="yes"/>
      <point x="185" y="334"/>
      <point x="363" y="65"/>
      <point x="556" y="65" type="qcurve" smooth="yes"/>
      <point x="655" y="65"/>
      <point x="793" y="141"/>
      <point x="845" y="205" type="qcurve"/>
      <point x="915" y="135.0" type="line"/>
      <point x="868" y="70"/>
      <point x="685" y="-30.0"/>
      <point x="556" y="-30.0" type="qcurve" smooth="yes"/>
      <point x="328" y="-30.0"/>
      <point x="85.0" y="282"/>
    </contour>
  </outline>
</glyph>
<glyph name="g" format="2">
  <advance width="1096"/>
  <unicode hex="0067"/>
  <anchor x="548.0" y="-416" name="bottom"/>
  <anchor x="548.0" y="1089.12" name="top"/>
  <outline>
    <contour>
      <point x="131" y="-320.0" type="qcurve"/>
      <point x="167" y="-234" type="line"/>
      <point x="218" y="-280"/>
      <point x="400" y="-341"/>
      <point x="506" y="-341" type="qcurve" smooth="yes"/>
      <point x="664" y="-341"/>
      <point x="848" y="-145"/>
      <point x="848" y="32" type="qcurve" smooth="yes"/>
      <point x="848" y="129" type="line"/>
      <point x="792" y="63"/>
      <point x="615" y="-20.0"/>
      <point x="492" y="-20.0" type="qcurve" smooth="yes"/>
      <point x="300" y="-20.0"/>
      <point x="85.0" y="291"/>
      <point x="85.0" y="529" type="qcurve" smooth="yes"/>
      <point x="85.0" y="561" type="line" smooth="yes"/>
      <point x="85.0" y="799"/>
      <point x="300" y="1109"/>
      <point x="492" y="1109" type="qcurve" smooth="yes"/>
      <point x="615" y="1109"/>
      <point x="804" y="1014"/>
      <point x="852" y="947" type="qcurve"/>
      <point x="851" y="947" type="line"/>
      <point x="854" y="1089" type="line"/>
      <point x="947" y="1089" type="line"/>
      <point x="947" y="32" type="line" smooth="yes"/>
      <point x="947" y="-194"/>
      <point x="705" y="-436.0"/>
      <point x="511" y="-436.0" type="qcurve" smooth="yes"/>
      <point x="393" y="-436.0"/>
      <point x="199" y="-372"/>
    </contour>
    <contour>
      <point x="185" y="529" type="line" smooth="yes"/>
      <point x="185" y="337"/>
      <point x="351" y="75"/>
      <point x="526" y="75" type="qcurve" smooth="yes"/>
      <point x="645" y="75"/>
      <point x="811" y="186"/>
      <point x="848" y="257" type="qcurve"/>
      <point x="848" y="832" type="line"/>
      <point x="811" y="904"/>
      <point x="645" y="1013"/>
      <point x="526" y="1013" type="qcurve" smooth="yes"/>
      <point x="351" y="1013"/>
      <point x="185" y="752"/>
      <point x="185" y="561" type="qcurve" smooth="yes"/>
    </contour>
  </outline>
</glyph>
<glyph name="k" format="2">
  <advance width="971"/>
  <unicode hex="006B"/>
  <anchor x="514" y="0" name="bottom"/>
  <anchor x="514" y="1089" name="top"/>
  <outline>
    <contour>
      <point x="148.0" y="0.0" type="line"/>
      <point x="148.0" y="1536.0" type="line"/>
      <point x="246" y="1536.0" type="line"/>
      <point x="246" y="585" type="line"/>
      <point x="800" y="1089.0" type="line"/>
      <point x="932" y="1089.0" type="line"/>
      <point x="246" y="470" type="line"/>
      <point x="246" y="0.0" type="line"/>
    </contour>
    <contour>
      <point x="864" y="0.0" type="line"/>
      <point x="375" y="629" type="line"/>
      <point x="438" y="705" type="line"/>
      <point x="987" y="0.0" type="line"/>
    </contour>
  </outline>
</glyph>
<glyph name="p" format="2">
  <advance width="1096"/>
  <unicode hex="0070"/>
  <anchor x="548.0" y="0" name="bottom"/>
  <anchor x="548.0" y="1089.12" name="top"/>
  <outline>
    <contour>
      <point x="148.0" y="-416.0" type="line"/>
      <point x="148.0" y="1089" type="line"/>
      <point x="242" y="1089" type="line"/>
      <point x="244" y="947" type="line"/>
      <point x="242" y="947" type="line"/>
      <point x="292" y="1014"/>
      <point x="481" y="1109"/>
      <point x="603" y="1109" type="qcurve" smooth="yes"/>
      <point x="795" y="1109"/>
      <point x="1010" y="799"/>
      <point x="1010" y="561" type="qcurve" smooth="yes"/>
      <point x="1010" y="529" type="line" smooth="yes"/>
      <point x="1010" y="291"/>
      <point x="795" y="-20.0"/>
      <point x="603" y="-20.0" type="qcurve" smooth="yes"/>
      <point x="481" y="-20.0"/>
      <point x="304" y="63"/>
      <point x="247" y="129" type="qcurve"/>
      <point x="247" y="-416.0" type="line"/>
    </contour>
    <contour>
      <point x="247" y="257" type="line"/>
      <point x="284" y="186"/>
      <point x="450" y="75"/>
      <point x="568" y="75" type="qcurve" smooth="yes"/>
      <point x="744" y="75"/>
      <point x="909" y="337"/>
      <point x="909" y="529" type="qcurve" smooth="yes"/>
      <point x="909" y="561" type="line" smooth="yes"/>
      <point x="909" y="752"/>
      <point x="744" y="1014"/>
      <point x="568" y="1014" type="qcurve" smooth="yes"/>
      <point x="450" y="1014"/>
      <point x="285" y="904"/>
      <point x="247" y="832" type="qcurve"/>
    </contour>
  </outline>
</glyph>
<glyph name="q" format="2">
  <advance width="1096"/>
  <unicode hex="0071"/>
  <anchor x="548.0" y="0" name="bottom"/>
  <anchor x="548.0" y="1089.12" name="top"/>
  <outline>
    <contour>
      <point x="85.0" y="529.0" type="qcurve" smooth="yes"/>
      <point x="85.0" y="561.0" type="line" smooth="yes"/>
      <point x="85.0" y="799.0"/>
      <point x="300.2549019608" y="1109.0"/>
      <point x="492.01960784309995" y="1109.0" type="qcurve" smooth="yes"/>
      <point x="614.6666666667" y="1109.0"/>
      <point x="803.9215686275" y="1013.8235294118"/>
      <point x="852.1568627451" y="946.7058823529" type="qcurve"/>
      <point x="850.7843137255" y="946.7058823529" type="line"/>
      <point x="854.1568627451" y="1089.0" type="line"/>
      <point x="948.0196078431" y="1089.0" type="line"/>
      <point x="948.0196078431" y="-416.0" type="line"/>
      <point x="848.1568627451" y="-416.0" type="line"/>
      <point x="848.1568627451" y="129.2941176471" type="line"/>
      <point x="848.1568627451" y="129.2941176471" type="line"/>
      <point x="791.5490196078" y="62.176470588200004"/>
      <point x="614.6666666667" y="-20.0"/>
      <point x="492.01960784309995" y="-20.0" type="qcurve" smooth="yes"/>
      <point x="300.2549019608" y="-20.0"/>
      <point x="85.0" y="291.0"/>
    </contour>
    <contour>
      <point x="185.3364705882" y="528.56" type="line" smooth="yes"/>
      <point x="185.3364705882" y="336.8364643635"/>
      <point x="350.72" y="76.9176470588"/>
      <point x="526.3960784314" y="76.9176470588" type="qcurve" smooth="yes"/>
      <point x="645.1905882353" y="76.9176470588"/>
      <point x="811.2203921569" y="185.5278431373"/>
      <point x="848.1568627451" y="257.4854901961" type="qcurve"/>
      <point x="848.1568627451" y="831.6345098039" type="line"/>
      <point x="810.9003921569" y="903.5921568627"/>
      <point x="645.1905882353" y="1012.2023529412"/>
      <point x="526.3960784314" y="1012.2023529412" type="qcurve" smooth="yes"/>
      <point x="350.72" y="1012.2023529412"/>
      <point x="185.3364705882" y="752.2551432881"/>
      <point x="185.3364705882" y="560.56" type="qcurve" smooth="yes"/>
    </contour>
  </outline>
</glyph>
<glyph name="r" format="2">
  <advance width="669"/>
  <unicode hex="0072"/>
  <anchor x="334.5" y="0" name="bottom"/>
  <anchor x="385" y="1089" name="top"/>
  <outline>
    <contour>
      <point x="148.0" y="0.0" type="line"/>
      <point x="148.0" y="1089.12" type="line"/>
      <point x="241.702745098" y="1089.12" type="line"/>
      <point x="244.4290196078" y="947.5945098039" type="line"/>
      <point x="241.8101960784" y="947.5945098039" type="line"/>
      <point x="291.8769388923" y="1016.3022568388"/>
      <point x="444.73288674110006" y="1119.12"/>
      <point x="549.9121568627" y="1119.12" type="qcurve" smooth="yes"/>
      <point x="575.217254902" y="1119.12"/>
      <point x="627.8337254902" y="1109.12"/>
      <point x="639.4862745098" y="1105.12" type="qcurve"/>
      <point x="639.4862745098" y="1002.2823529412" type="line"/>
      <point x="616.5011764706" y="1006.2823529412"/>
      <point x="568.577254902" y="1013.0023529412"/>
      <point x="540.2658823529" y="1013.0023529412" type="qcurve" smooth="yes"/>
      <point x="440.3319215686001" y="1013.0023529412"/>
      <point x="287.9946237857" y="902.3251026754"/>
      <point x="246.8164705882" y="821.4368627451" type="qcurve"/>
      <point x="246.8164705882" y="0.0" type="line"/>
    </contour>
  </outline>
</glyph>
<glyph name="u" format="2">
  <advance width="1057"/>
  <unicode hex="0075"/>
  <anchor x="528.5" y="0" name="bottom"/>
  <anchor x="847" y="0" name="ogonek"/>
  <anchor x="528.5" y="1089.12" name="top"/>
  <anchor x="859" y="1089" name="topright"/>
  <outline>
    <contour>
      <point x="138.0" y="369" type="qcurve" smooth="yes"/>
      <point x="138.0" y="1089" type="line"/>
      <point x="237" y="1089" type="line"/>
      <point x="237" y="367" type="line" smooth="yes"/>
      <point x="237" y="212"/>
      <point x="373" y="75"/>
      <point x="497" y="75" type="qcurve" smooth="yes"/>
      <point x="603" y="75"/>
      <point x="757" y="190"/>
      <point x="809" y="277" type="qcurve"/>
      <point x="809" y="1089" type="line"/>
      <point x="909" y="1089" type="line"/>
      <point x="909" y="0.0" type="line"/>
      <point x="815" y="0.0" type="line"/>
      <point x="812" y="160" type="line"/>
      <point x="813" y="160" type="line"/>
      <point x="751" y="68"/>
      <point x="572" y="-20.0"/>
      <point x="459" y="-20.0" type="qcurve" smooth="yes"/>
      <point x="311" y="-20.0"/>
      <point x="138.0" y="159"/>
    </contour>
  </outline>
</glyph>
<glyph name="v" format="2">
  <advance width="958"/>
  <unicode hex="0076"/>
  <anchor x="479.0" y="0" name="bottom"/>
  <anchor x="479.0" y="1089.12" name="top"/>
  <outline>
    <contour>
      <point x="0.0" y="1088.7976470588" type="line"/>
      <point x="105" y="1089" type="line"/>
      <point x="428" y="259" type="line" smooth="yes"/>
      <point x="445" y="214"/>
      <point x="468" y="154"/>
      <point x="480" y="106" type="qcurve"/>
      <point x="487" y="106" type="line"/>
      <point x="499.0" y="154"/>
      <point x="521" y="220"/>
      <point x="537" y="260" type="qcurve" smooth="yes"/>
      <point x="859" y="1089.0" type="line"/>
      <point x="957.5882352941001" y="1089.0" type="line"/>
      <point x="533.9090196078" y="0.0" type="line"/>
      <point x="423.8698039216" y="0.0" type="line"/>
    </contour>
  </outline>
</glyph>
<glyph name="w" format="2">
  <advance width="1544"/>
  <unicode hex="0077"/>
  <anchor x="772.0" y="0" name="bottom"/>
  <anchor x="772.0" y="1089.12" name="top"/>
  <outline>
    <contour>
      <point x="25" y="1089" type="line"/>
      <point x="126" y="1089" type="line"/>
      <point x="356" y="272" type="line" smooth="yes"/>
      <point x="367" y="232"/>
      <point x="384" y="172"/>
      <point x="399" y="102" type="qcurve"/>
      <point x="405" y="102" type="line"/>
      <point x="424" y="173"/>
      <point x="440" y="232"/>
      <point x="453" y="272" type="qcurve" smooth="yes"/>
      <point x="709" y="1089" type="line"/>
      <point x="835" y="1089" type="line"/>
      <point x="1097" y="272" type="line" smooth="yes"/>
      <point x="1110" y="231"/>
      <point x="1130" y="172"/>
      <point x="1149" y="102" type="qcurve"/>
      <point x="1155" y="102" type="line"/>
      <point x="1168" y="172"/>
      <point x="1183" y="232"/>
      <point x="1194" y="272" type="qcurve" smooth="yes"/>
      <point x="1418" y="1089" type="line"/>
      <point x="1519" y="1089" type="line"/>
      <point x="1212" y="0" type="line"/>
      <point x="1084" y="0" type="line"/>
      <point x="814" y="842" type="line" smooth="yes"/>
      <point x="801" y="882"/>
      <point x="781" y="962"/>
      <point x="773" y="1002" type="qcurve"/>
      <point x="767" y="1002" type="line"/>
      <point x="759" y="962"/>
      <point x="738" y="882"/>
      <point x="725" y="842" type="qcurve" smooth="yes"/>
      <point x="460" y="0" type="line"/>
      <point x="332" y="0" type="line"/>
    </contour>
  </outline>
</glyph>
<glyph name="z" format="2">
  <advance width="931"/>
  <unicode hex="007A"/>
  <anchor x="465.5" y="0" name="bottom"/>
  <anchor x="465.5" y="1089.12" name="top"/>
  <outline>
    <contour>
      <point x="70.0" y="0.0" type="line"/>
      <point x="70.0" y="87" type="line"/>
      <point x="712" y="994" type="line"/>
      <point x="79" y="994" type="line"/>
      <point x="79" y="1089" type="line"/>
      <point x="834" y="1089" type="line"/>
      <point x="834" y="1003" type="line"/>
      <point x="191" y="95" type="line"/>
      <point x="866" y="95" type="line"/>
      <point x="866" y="0.0" type="line"/>
    </contour>
  </outline>
</glyph>
<glyph name="braceright" format="2">
  <advance width="611"/>
  <unicode hex="007D"/>
  <outline>
    <contour>
      <point x="14.012549019600002" y="-312.0" type="qcurve"/>
      <point x="14.012549019600002" y="-221.2549019608" type="line"/>
      <point x="190.1874509804" y="-221.2549019608"/>
      <point x="334.9415686275" y="-42.1623529412"/>
      <point x="287.4925490196" y="135.69803921570002" type="qcurve" smooth="yes"/>
      <point x="238.0" y="334.0" type="line" smooth="yes"/>
      <point x="217.0274509804" y="417.8"/>
      <point x="289.0211764706" y="549.631372549"/>
      <point x="386.3749019608" y="574.0" type="qcurve"/>
      <point x="289.0211764706" y="598.368627451"/>
      <point x="217.0274509804" y="730.2"/>
      <point x="238.0" y="814.0" type="qcurve" smooth="yes"/>
      <point x="287.4925490196" y="1012.3019607843" type="line" smooth="yes"/>
      <point x="334.9415686275" y="1190.1623529412"/>
      <point x="190.1874509804" y="1369.2549019608"/>
      <point x="14.012549019600002" y="1369.2549019608" type="qcurve"/>
      <point x="14.012549019600002" y="1460.0" type="line"/>
      <point x="225.3537254902" y="1460.0"/>
      <point x="442.8368627451" y="1224.04"/>
      <point x="388.3152941176" y="1018.4745098038998" type="qcurve" smooth="yes"/>
      <point x="338.1364705882" y="820.1725490196" type="line" smooth="yes"/>
      <point x="307.7176470588" y="696.6525490196"/>
      <point x="441.2517647059" y="616.9725490196"/>
      <point x="555.8533333333" y="616.9725490196" type="qcurve"/>
      <point x="555.8533333333" y="531.0274509804001" type="line"/>
      <point x="441.2517647059" y="531.0274509804001"/>
      <point x="307.7176470588" y="451.3474509804"/>
      <point x="338.1364705882" y="327.8274509804" type="qcurve" smooth="yes"/>
      <point x="388.3152941176" y="129.5254901961" type="line" smooth="yes"/>
      <point x="442.8368627451" y="-76.04"/>
      <point x="225.3537254902" y="-312.0"/>
    </contour>
  </outline>
</glyph>
<glyph name="asciitilde" format="2">
  <advance width="1764"/>
  <unicode hex="007E"/>
  <outline>
    <contour>
      <point x="549" y="579" type="qcurve"/>
      <point x="549" y="697" type="line"/>
      <point x="579" y="735"/>
      <point x="646" y="765"/>
      <point x="706" y="766" type="qcurve" smooth="yes"/>
      <point x="726" y="766"/>
      <point x="835" y="744"/>
      <point x="895" y="731" type="qcurve" smooth="yes"/>
      <point x="955" y="718"/>
      <point x="1057" y="696"/>
      <point x="1071" y="696" type="qcurve" smooth="yes"/>
      <point x="1128" y="696"/>
      <point x="1193" y="731"/>
      <point x="1224" y="779" type="qcurve"/>
      <point x="1224" y="659" type="line"/>
      <point x="1195" y="621"/>
      <point x="1130" y="592"/>
      <point x="1072" y="592" type="qcurve" smooth="yes"/>
      <point x="1054" y="592"/>
      <point x="949" y="613"/>
      <point x="890" y="626" type="qcurve" smooth="yes"/>
      <point x="828" y="639"/>
      <point x="719" y="663"/>
      <point x="706" y="663" type="qcurve" smooth="yes"/>
      <point x="649" y="663"/>
      <point x="582" y="627"/>
    </contour>
  </outline>
</glyph>
<glyph name="yen" format="2">
  <advance width="1048"/>
  <unicode hex="00A5"/>
  <outline>
    <contour>
      <point x="93.0" y="316.0" type="line"/>
      <point x="93.0" y="411.0" type="line"/>
      <point x="877.0" y="411.0" type="line"/>
      <point x="877.0" y="316.0" type="line"/>
    </contour>
    <contour>
      <point x="93.0" y="602.0" type="line"/>
      <point x="93.0" y="692.0" type="line"/>
      <point x="357.0" y="692.0" type="line"/>
      <point x="410.0" y="603.0" type="line"/>
      <point x="519.0" y="603.0" type="line"/>
      <point x="567.0" y="692.0" type="line"/>
      <point x="877.0" y="692.0" type="line"/>
      <point x="877.0" y="602.0" type="line"/>
    </contour>
    <contour>
      <point x="410.0" y="0.0" type="line"/>
      <point x="410.0" y="548.0" type="line"/>
      <point x="15.0" y="1456.0" type="line"/>
      <point x="127.0" y="1456.0" type="line"/>
      <point x="398.0" y="779.0" type="line" smooth="yes"/>
      <point x="410.0" y="748.0"/>
      <point x="445.0" y="646.0"/>
      <point x="452.0" y="609.0" type="qcurve"/>
      <point x="472.0" y="609.0" type="line"/>
      <point x="484.0" y="665.0"/>
      <point x="513.0" y="748.0"/>
      <point x="526.0" y="779.0" type="qcurve" smooth="yes"/>
      <point x="806.0" y="1456.0" type="line"/>
      <point x="913.0" y="1456.0" type="line"/>
      <point x="518.0" y="548.0" type="line"/>
      <point x="518.0" y="0.0" type="line"/>
    </contour>
  </outline>
</glyph>
<glyph name="section" format="2">
  <advance width="1110"/>
  <unicode hex="00A7"/>
  <guideline x="0" y="1658.0" angle="0" identifier="QzZ5gIiCyn"/>
  <guideline x="0" y="578.0" angle="0" identifier="9Hxjf2sdFw"/>
  <outline>
    <contour>
      <point x="649.0" y="173.0" type="qcurve"/>
      <point x="649.0" y="268.0" type="line"/>
      <point x="781.0" y="269.0"/>
      <point x="922.0" y="409.0"/>
      <point x="922.0" y="538.0" type="qcurve"/>
      <point x="922.0" y="634.0"/>
      <point x="778.0" y="774.0"/>
      <point x="551.0" y="834.0" type="qcurve" smooth="yes"/>
      <point x="340.0" y="890.0"/>
      <point x="150.0" y="1072.0"/>
      <point x="150.0" y="1219.0" type="qcurve" smooth="yes"/>
      <point x="150.0" y="1389.0"/>
      <point x="354.0" y="1571.0"/>
      <point x="544.0" y="1571.0" type="qcurve" smooth="yes"/>
      <point x="716.0" y="1571.0"/>
      <point x="939.0" y="1350.0"/>
      <point x="939.0" y="1179.0" type="qcurve"/>
      <point x="839.0" y="1179.0" type="line"/>
      <point x="839.0" y="1309.0"/>
      <point x="673.0" y="1476.0"/>
      <point x="544.0" y="1476.0" type="qcurve" smooth="yes"/>
      <point x="403.0" y="1476.0"/>
      <point x="252.0" y="1347.0"/>
      <point x="252.0" y="1227.0" type="qcurve" smooth="yes"/>
      <point x="252.0" y="1117.0"/>
      <point x="414.0" y="974.0"/>
      <point x="594.0" y="925.0" type="qcurve" smooth="yes"/>
      <point x="853.0" y="853.0"/>
      <point x="1030.0" y="676.0"/>
      <point x="1030.0" y="542.0" type="qcurve" smooth="yes"/>
      <point x="1030.0" y="370.0"/>
      <point x="833.0" y="179.0"/>
    </contour>
    <contour>
      <point x="538.0" y="932.0" type="qcurve"/>
      <point x="538.0" y="860.0" type="line"/>
      <point x="365.0" y="854.0"/>
      <point x="178.0" y="722.0"/>
      <point x="178.0" y="605.0" type="qcurve" smooth="yes"/>
      <point x="178.0" y="507.0"/>
      <point x="322" y="382"/>
      <point x="517.0" y="320.0" type="qcurve" smooth="yes"/>
      <point x="748.0" y="246.0"/>
      <point x="955.0" y="40.0"/>
      <point x="955.0" y="-116.0" type="qcurve" smooth="yes"/>
      <point x="955.0" y="-306.0"/>
      <point x="733.0" y="-510.0"/>
      <point x="527.0" y="-510.0" type="qcurve" smooth="yes"/>
      <point x="336.0" y="-510.0"/>
      <point x="90.0" y="-269.0"/>
      <point x="90.0" y="-82.0" type="qcurve"/>
      <point x="193.0" y="-82.0" type="line"/>
      <point x="193.0" y="-225.0"/>
      <point x="381.0" y="-410.0"/>
      <point x="527.0" y="-410.0" type="qcurve" smooth="yes"/>
      <point x="685.0" y="-410.0"/>
      <point x="854.0" y="-260.0"/>
      <point x="854.0" y="-121.0" type="qcurve" smooth="yes"/>
      <point x="854.0" y="3.0"/>
      <point x="673.0" y="169.0"/>
      <point x="472.0" y="230.0" type="qcurve" smooth="yes"/>
      <point x="245" y="298"/>
      <point x="76.0" y="465.0"/>
      <point x="76.0" y="607.0" type="qcurve" smooth="yes"/>
      <point x="76.0" y="758.0"/>
      <point x="315.0" y="926.0"/>
    </contour>
  </outline>
</glyph>
<glyph name="dieresis" format="2">
  <advance width="1024"/>
  <unicode hex="00A8"/>
  <outline>
    <contour>
      <point x="253" y="1279.0" type="qcurve" smooth="yes"/>
      <point x="253" y="1310.0"/>
      <point x="293" y="1352.0"/>
      <point x="327" y="1352.0" type="qcurve" smooth="yes"/>
      <point x="361" y="1352.0"/>
      <point x="401" y="1310.0"/>
      <point x="401" y="1279.0" type="qcurve" smooth="yes"/>
      <point x="401" y="1248.0"/>
      <point x="361" y="1207.0"/>
      <point x="328" y="1207.0" type="qcurve" smooth="yes"/>
      <point x="295" y="1207.0"/>
      <point x="253" y="1248.0"/>
    </contour>
    <contour>
      <point x="623" y="1279.0" type="qcurve" smooth="yes"/>
      <point x="623" y="1310.0"/>
      <point x="663" y="1352.0"/>
      <point x="697" y="1352.0" type="qcurve" smooth="yes"/>
      <point x="731" y="1352.0"/>
      <point x="771" y="1310.0"/>
      <point x="771" y="1279.0" type="qcurve" smooth="yes"/>
      <point x="771" y="1248.0"/>
      <point x="731" y="1207.0"/>
      <point x="698" y="1207.0" type="qcurve" smooth="yes"/>
      <point x="665" y="1207.0"/>
      <point x="623" y="1248.0"/>
    </contour>
  </outline>
</glyph>
<glyph name="ordfeminine" format="2">
  <advance width="796"/>
  <unicode hex="00AA"/>
  <guideline x="0" y="1681.0" angle="0" identifier="3CJlALCfkl"/>
  <guideline x="0" y="909.0" angle="0" identifier="Zdl6NZVQAy"/>
  <outline>
    <contour>
      <point x="529.0" y="873.0" type="line"/>
      <point x="529.0" y="830.0"/>
      <point x="543.0" y="739.0"/>
      <point x="566.0" y="707.0" type="qcurve"/>
      <point x="654.0" y="707.0" type="line"/>
      <point x="640.0" y="753.0"/>
      <point x="628.0" y="848.0"/>
      <point x="628.0" y="900.0" type="qcurve" smooth="yes"/>
      <point x="628.0" y="1235.0" type="line" smooth="yes"/>
      <point x="628.0" y="1391.0"/>
      <point x="520.0" y="1530.0"/>
      <point x="399.0" y="1530.0" type="qcurve" smooth="yes"/>
      <point x="281.0" y="1530.0"/>
      <point x="155.0" y="1405.0"/>
      <point x="155.0" y="1289.0" type="qcurve" smooth="yes"/>
      <point x="155.0" y="1270.0" type="line"/>
      <point x="253.0" y="1270.0" type="line"/>
      <point x="253.0" y="1284.0" type="line" smooth="yes"/>
      <point x="253" y="1357"/>
      <point x="331.0" y="1435.0"/>
      <point x="401.0" y="1435.0" type="qcurve" smooth="yes"/>
      <point x="468.0" y="1435.0"/>
      <point x="529" y="1341"/>
      <point x="529.0" y="1236.0" type="qcurve" smooth="yes"/>
    </contour>
    <contour>
      <point x="535.0" y="1180.0" type="line"/>
      <point x="417.0" y="1180.0" type="line" smooth="yes"/>
      <point x="279.0" y="1180.0"/>
      <point x="131.0" y="1052.0"/>
      <point x="131.0" y="933.0" type="qcurve" smooth="yes"/>
      <point x="131.0" y="817.0"/>
      <point x="237" y="692.0"/>
      <point x="335" y="692.0" type="qcurve" smooth="yes"/>
      <point x="415" y="692.0"/>
      <point x="533.0" y="772.0"/>
      <point x="563.0" y="847.0" type="qcurve"/>
      <point x="545.0" y="966.0" type="line"/>
      <point x="545.0" y="882.0"/>
      <point x="435" y="787.0"/>
      <point x="356" y="787.0" type="qcurve" smooth="yes"/>
      <point x="297" y="787.0"/>
      <point x="233.0" y="865.0"/>
      <point x="233.0" y="937.0" type="qcurve" smooth="yes"/>
      <point x="233.0" y="1010.0"/>
      <point x="329.0" y="1087.0"/>
      <point x="418.0" y="1085.0" type="qcurve" smooth="yes"/>
      <point x="535.0" y="1085.0" type="line"/>
    </contour>
  </outline>
</glyph>
<glyph name="degree" format="2">
  <advance width="765"/>
  <unicode hex="00B0"/>
  <outline>
    <contour>
      <point x="74.0" y="1160.0" type="qcurve"/>
      <point x="74.0" y="1298.0"/>
      <point x="241.0" y="1477.0"/>
      <point x="370.0" y="1477.0" type="qcurve" smooth="yes"/>
      <point x="497.0" y="1477.0"/>
      <point x="660.0" y="1298.0"/>
      <point x="660.0" y="1160.0" type="qcurve" smooth="yes"/>
      <point x="660.0" y="1023.0"/>
      <point x="497.0" y="847.0"/>
      <point x="370.0" y="847.0" type="qcurve" smooth="yes"/>
      <point x="241.0" y="847.0"/>
      <point x="74.0" y="1023.0"/>
    </contour>
    <contour>
      <point x="176.0" y="1160.0" type="qcurve"/>
      <point x="176.0" y="1065.0"/>
      <point x="285.0" y="942.0"/>
      <point x="370.0" y="942.0" type="qcurve" smooth="yes"/>
      <point x="452.0" y="942.0"/>
      <point x="558.0" y="1065.0"/>
      <point x="558.0" y="1160.0" type="qcurve" smooth="yes"/>
      <point x="558.0" y="1257.0"/>
      <point x="452.0" y="1382.0"/>
      <point x="370.0" y="1382.0" type="qcurve" smooth="yes"/>
      <point x="285.0" y="1382.0"/>
      <point x="176.0" y="1257.0"/>
    </contour>
  </outline>
</glyph>
<glyph name="plusminus" format="2">
  <advance width="1386"/>
  <unicode hex="00B1"/>
  <outline>
    <contour>
      <point x="116.0" y="627.0" type="line"/>
      <point x="116.0" y="726.0" type="line"/>
      <point x="1270.0" y="726.0" type="line"/>
      <point x="1270.0" y="627.0" type="line"/>
    </contour>
    <contour>
      <point x="643.0" y="77.0" type="line"/>
      <point x="643.0" y="1271.0" type="line"/>
      <point x="742.0" y="1271.0" type="line"/>
      <point x="742.0" y="77.0" type="line"/>
    </contour>
    <contour>
      <point x="92.0" y="0.0" type="line"/>
      <point x="92.0" y="103.0" type="line"/>
      <point x="1297.0" y="103.0" type="line"/>
      <point x="1297.0" y="0.0" type="line"/>
    </contour>
  </outline>
</glyph>
<glyph name="twosuperior" format="2">
  <advance width="691"/>
  <unicode hex="00B2"/>
  <outline>
    <contour>
      <point x="107.0" y="620.0" type="line"/>
      <point x="107.0" y="672.0" type="line"/>
      <point x="382" y="986" type="line" smooth="yes"/>
      <point x="460" y="1074"/>
      <point x="518.0" y="1178.0"/>
      <point x="518.0" y="1230.0" type="qcurve" smooth="yes"/>
      <point x="518" y="1308"/>
      <point x="438.0" y="1392.0"/>
      <point x="366.0" y="1392.0" type="qcurve" smooth="yes"/>
      <point x="278.0" y="1392.0"/>
      <point x="187.0" y="1277.0"/>
      <point x="189.0" y="1170.0" type="qcurve"/>
      <point x="87.0" y="1170.0" type="line"/>
      <point x="86.0" y="1323.0"/>
      <point x="229.0" y="1487.0"/>
      <point x="363.0" y="1487.0" type="qcurve" smooth="yes"/>
      <point x="487.0" y="1487.0"/>
      <point x="621" y="1355"/>
      <point x="621.0" y="1232.0" type="qcurve" smooth="yes"/>
      <point x="621.0" y="1164.0"/>
      <point x="550.0" y="1031.0"/>
      <point x="454.0" y="921.0" type="qcurve" smooth="yes"/>
      <point x="275.0" y="715.0" type="line"/>
      <point x="649.0" y="715.0" type="line"/>
      <point x="649.0" y="620.0" type="line"/>
    </contour>
  </outline>
</glyph>
<glyph name="acute" format="2">
  <advance width="1024"/>
  <unicode hex="00B4"/>
  <outline>
    <contour>
      <point x="342.7647058824" y="1234.1764705882" type="line"/>
      <point x="617.7843137255" y="1540.137254902" type="line"/>
      <point x="701.6470588235" y="1468.7254901961" type="line"/>
      <point x="384.4509803922" y="1199.1960784314" type="line"/>
    </contour>
  </outline>
</glyph>
<glyph name="micro" format="2">
  <advance width="1058"/>
  <unicode hex="00B5"/>
  <outline>
    <contour>
      <point x="238.0" y="1089.0" type="line"/>
      <point x="345.0" y="1089.0" type="line"/>
      <point x="206.0" y="371.0" type="line" smooth="yes"/>
      <point x="178.0" y="227.0"/>
      <point x="240.0" y="90.0"/>
      <point x="372.0" y="90.0" type="qcurve" smooth="yes"/>
      <point x="481.0" y="90.0"/>
      <point x="660.0" y="196.0"/>
      <point x="738.0" y="308.0" type="qcurve"/>
      <point x="889.0" y="1089.0" type="line"/>
      <point x="996.0" y="1089.0" type="line"/>
      <point x="785.0" y="0.0" type="line"/>
      <point x="696.0" y="0.0" type="line"/>
      <point x="724.0" y="207.0" type="line"/>
      <point x="719.0" y="207.0" type="line"/>
      <point x="630.0" y="93.0"/>
      <point x="435.0" y="-20.0"/>
      <point x="340.0" y="-20.0" type="qcurve" smooth="yes"/>
      <point x="259.0" y="-20.0"/>
      <point x="173.0" y="56.0"/>
      <point x="159.0" y="135.0" type="qcurve"/>
      <point x="54.0" y="-416.0" type="line"/>
      <point x="-53.0" y="-416.0" type="line"/>
    </contour>
  </outline>
</glyph>
<glyph name="periodcentered" format="2">
  <advance width="590"/>
  <unicode hex="00B7"/>
  <outline>
    <contour>
      <point x="176.0" y="749.0" type="qcurve" smooth="yes"/>
      <point x="176.0" y="797.0"/>
      <point x="238.0" y="866.0"/>
      <point x="296.0" y="866.0" type="qcurve" smooth="yes"/>
      <point x="353.0" y="866.0"/>
      <point x="414.0" y="797.0"/>
      <point x="414.0" y="748.0" type="qcurve" smooth="yes"/>
      <point x="414.0" y="701.0"/>
      <point x="353.0" y="632.0"/>
      <point x="295.0" y="632.0" type="qcurve" smooth="yes"/>
      <point x="238.0" y="632.0"/>
      <point x="176.0" y="701.0"/>
    </contour>
  </outline>
</glyph>
<glyph name="cedilla" format="2">
  <advance width="1024"/>
  <unicode hex="00B8"/>
  <outline>
    <contour>
      <point x="418" y="42.0" type="line"/>
      <point x="514" y="42.0" type="line"/>
      <point x="477.0" y="-82" type="line"/>
      <point x="579.0" y="-88"/>
      <point x="678" y="-164"/>
      <point x="678" y="-230" type="qcurve" smooth="yes"/>
      <point x="678" y="-315"/>
      <point x="488" y="-423"/>
      <point x="302" y="-423" type="qcurve"/>
      <point x="297.0" y="-355" type="line"/>
      <point x="433.0" y="-352"/>
      <point x="584.0" y="-288"/>
      <point x="584.0" y="-231" type="qcurve" smooth="yes"/>
      <point x="584.0" y="-185"/>
      <point x="494" y="-145"/>
      <point x="374" y="-138" type="qcurve"/>
    </contour>
  </outline>
</glyph>
<glyph name="ordmasculine" format="2">
  <advance width="771"/>
  <unicode hex="00BA"/>
  <guideline x="0" y="1975.0" angle="0" identifier="Jnt0R9CyOf"/>
  <outline>
    <contour>
      <point x="123.0" y="1043.0" type="qcurve"/>
      <point x="123.0" y="1124.0" type="line"/>
      <point x="123.0" y="1294.0"/>
      <point x="259.0" y="1477.0"/>
      <point x="385.0" y="1477.0" type="qcurve" smooth="yes"/>
      <point x="511.0" y="1477.0"/>
      <point x="648.0" y="1294.0"/>
      <point x="648.0" y="1124.0" type="qcurve"/>
      <point x="648.0" y="1043.0" type="line"/>
      <point x="648.0" y="873.0"/>
      <point x="512.0" y="691.0"/>
      <point x="387.0" y="691.0" type="qcurve" smooth="yes"/>
      <point x="260.0" y="691.0"/>
      <point x="123.0" y="873.0"/>
    </contour>
    <contour>
      <point x="225.0" y="1124.0" type="qcurve"/>
      <point x="225.0" y="1043.0" type="line"/>
      <point x="225.0" y="919.0"/>
      <point x="309.0" y="786.0"/>
      <point x="387.0" y="786.0" type="qcurve" smooth="yes"/>
      <point x="464.0" y="786.0"/>
      <point x="546.0" y="919.0"/>
      <point x="546.0" y="1043.0" type="qcurve"/>
      <point x="546.0" y="1124.0" type="line"/>
      <point x="546.0" y="1248.0"/>
      <point x="463.0" y="1382.0"/>
      <point x="385.0" y="1382.0" type="qcurve" smooth="yes"/>
      <point x="308.0" y="1382.0"/>
      <point x="225.0" y="1248.0"/>
    </contour>
  </outline>
</glyph>
<glyph name="questiondown" format="2">
  <advance width="802"/>
  <unicode hex="00BF"/>
  <guideline x="0" y="-181.0" angle="0" identifier="apukwP5ffL"/>
  <guideline x="0" y="921.0" angle="0" identifier="5ZPZZL8Rim"/>
  <outline>
    <contour>
      <point x="502.0" y="1071.0" type="qcurve" smooth="yes"/>
      <point x="502.0" y="1031.0"/>
      <point x="462.0" y="973.0"/>
      <point x="425.0" y="973.0" type="qcurve" smooth="yes"/>
      <point x="388.0" y="973.0"/>
      <point x="348.0" y="1031.0"/>
      <point x="348.0" y="1071.0" type="qcurve" smooth="yes"/>
      <point x="348.0" y="1111.0"/>
      <point x="387.0" y="1169.0"/>
      <point x="424.0" y="1169.0" type="qcurve" smooth="yes"/>
      <point x="462.0" y="1169.0"/>
      <point x="502.0" y="1111.0"/>
    </contour>
    <contour>
      <point x="731.0" y="63.0" type="line"/>
      <point x="731.0" y="41.0" type="line" smooth="yes"/>
      <point x="731.0" y="-126.0"/>
      <point x="547.0" y="-329.0"/>
      <point x="387.0" y="-329.0" type="qcurve" smooth="yes"/>
      <point x="228.0" y="-329.0"/>
      <point x="50.0" y="-131.0"/>
      <point x="50.0" y="18.0" type="qcurve" smooth="yes"/>
      <point x="50.0" y="155.0"/>
      <point x="140.0" y="324.0"/>
      <point x="227.0" y="413.0" type="qcurve" smooth="yes"/>
      <point x="318.0" y="508.0"/>
      <point x="376.0" y="645.0"/>
      <point x="376.0" y="721.0" type="qcurve" smooth="yes"/>
      <point x="376.0" y="731.0" type="line"/>
      <point x="479.0" y="731.0" type="line"/>
      <point x="479.0" y="721.0" type="line" smooth="yes"/>
      <point x="479.0" y="607.0"/>
      <point x="394.0" y="445.0"/>
      <point x="311.0" y="359.0" type="qcurve" smooth="yes"/>
      <point x="228.0" y="272.0"/>
      <point x="151.0" y="130.0"/>
      <point x="151.0" y="18.0" type="qcurve" smooth="yes"/>
      <point x="151.0" y="-92.0"/>
      <point x="268.0" y="-234.0"/>
      <point x="387.0" y="-234.0" type="qcurve" smooth="yes"/>
      <point x="505.0" y="-234.0"/>
      <point x="628.0" y="-88.0"/>
      <point x="628.0" y="41.0" type="qcurve" smooth="yes"/>
      <point x="628.0" y="63.0" type="line"/>
    </contour>
  </outline>
</glyph>
<glyph name="Thorn" format="2">
  <advance width="1081"/>
  <unicode hex="00DE"/>
  <guideline x="0" y="901.0" angle="0" identifier="i9jYwjBDP4"/>
  <guideline x="0" y="555.0" angle="0" identifier="T8KKW8oxop"/>
  <outline>
    <contour>
      <point x="170.0" y="1456.0" type="line"/>
      <point x="270.0" y="1456.0" type="line"/>
      <point x="270.0" y="1170.0" type="line"/>
      <point x="567.0" y="1170.0" type="line" smooth="yes"/>
      <point x="779.0" y="1170.0"/>
      <point x="1006.0" y="945.0"/>
      <point x="1006.0" y="736.0" type="qcurve" smooth="yes"/>
      <point x="1006.0" y="527.0"/>
      <point x="779.0" y="303.0"/>
      <point x="567.0" y="303.0" type="qcurve" smooth="yes"/>
      <point x="270.0" y="303.0" type="line"/>
      <point x="270.0" y="0.0" type="line"/>
      <point x="170.0" y="0.0" type="line"/>
    </contour>
    <contour>
      <point x="567.0" y="1076.0" type="qcurve" smooth="yes"/>
      <point x="270.0" y="1076.0" type="line"/>
      <point x="270.0" y="397.0" type="line"/>
      <point x="567.0" y="397.0" type="line" smooth="yes"/>
      <point x="729.0" y="397.0"/>
      <point x="904.0" y="573.0"/>
      <point x="904.0" y="736.0" type="qcurve" smooth="yes"/>
      <point x="904.0" y="899.0"/>
      <point x="729.0" y="1075.0"/>
    </contour>
  </outline>
</glyph>
<glyph name="divide" format="2">
  <advance width="1387"/>
  <unicode hex="00F7"/>
  <outline>
    <contour>
      <point x="590" y="1032" type="qcurve" smooth="yes"/>
      <point x="590" y="1071.0"/>
      <point x="636" y="1122"/>
      <point x="681" y="1122" type="qcurve" smooth="yes"/>
      <point x="726" y="1122"/>
      <point x="774" y="1071.0"/>
      <point x="774" y="1032" type="qcurve" smooth="yes"/>
      <point x="774" y="995"/>
      <point x="726" y="945.0"/>
      <point x="681" y="945.0" type="qcurve" smooth="yes"/>
      <point x="636" y="945.0"/>
      <point x="590" y="995"/>
    </contour>
    <contour>
      <point x="590" y="321.0" type="qcurve" smooth="yes"/>
      <point x="590" y="359"/>
      <point x="636" y="411.0"/>
      <point x="681" y="411.0" type="qcurve" smooth="yes"/>
      <point x="726" y="411.0"/>
      <point x="774" y="359"/>
      <point x="774" y="321.0" type="qcurve" smooth="yes"/>
      <point x="774" y="284"/>
      <point x="726" y="233"/>
      <point x="681" y="233" type="qcurve" smooth="yes"/>
      <point x="636" y="233"/>
      <point x="590" y="284"/>
    </contour>
    <contour>
      <point x="237.0" y="624.0" type="line"/>
      <point x="237.0" y="727.0" type="line"/>
      <point x="1161.0" y="727.0" type="line"/>
      <point x="1161.0" y="624.0" type="line"/>
    </contour>
  </outline>
</glyph>
<glyph name="Schwa" format="2">
  <advance width="1435"/>
  <unicode hex="018F"/>
  <outline>
    <contour>
      <point x="155" y="1023" type="line"/>
      <point x="155" y="1228"/>
      <point x="451" y="1486"/>
      <point x="708" y="1486" type="qcurve" smooth="yes"/>
      <point x="978" y="1486"/>
      <point x="1320" y="1110"/>
      <point x="1320" y="754" type="qcurve" smooth="yes"/>
      <point x="1320" y="370"/>
      <point x="974" y="-30"/>
      <point x="718" y="-30" type="qcurve" smooth="yes"/>
      <point x="452" y="-30"/>
      <point x="115" y="355"/>
      <point x="115" y="702" type="qcurve" smooth="yes"/>
      <point x="115" y="731" type="line"/>
      <point x="1265" y="731" type="line"/>
      <point x="1265" y="631" type="line"/>
      <point x="721" y="631" type="line"/>
      <point x="227" y="631" type="line"/>
      <point x="227" y="622" type="line" smooth="yes"/>
      <point x="227" y="353"/>
      <point x="511" y="73"/>
      <point x="718" y="73" type="qcurve" smooth="yes"/>
      <point x="940" y="73"/>
      <point x="1210" y="408"/>
      <point x="1210" y="754" type="qcurve" smooth="yes"/>
      <point x="1210" y="1066"/>
      <point x="933" y="1383"/>
      <point x="708" y="1383" type="qcurve" smooth="yes"/>
      <point x="491" y="1383"/>
      <point x="266" y="1168"/>
      <point x="266" y="1023" type="qcurve"/>
    </contour>
  </outline>
</glyph>
<glyph name="doubleprimemod" format="2">
  <advance width="788"/>
  <unicode hex="02BA"/>
  <outline>
    <contour>
      <point x="224.0" y="1502.0" type="line"/>
      <point x="343.0" y="1502.0" type="line"/>
      <point x="225.0" y="1004.0" type="line"/>
      <point x="173.0" y="1009.0" type="line"/>
    </contour>
    <contour>
      <point x="524.0" y="1502.0" type="line"/>
      <point x="643.0" y="1502.0" type="line"/>
      <point x="525.0" y="1004.0" type="line"/>
      <point x="473.0" y="1009.0" type="line"/>
    </contour>
  </outline>
</glyph>
<glyph name="circumflex" format="2">
  <advance width="1024"/>
  <unicode hex="02C6"/>
  <outline>
    <contour>
      <point x="551" y="1503" type="line"/>
      <point x="777" y="1203.0" type="line"/>
      <point x="683" y="1203.0" type="line"/>
      <point x="512.0" y="1416" type="line"/>
      <point x="339" y="1203.0" type="line"/>
      <point x="248" y="1203.0" type="line"/>
      <point x="472" y="1503" type="line"/>
    </contour>
  </outline>
</glyph>
<glyph name="caron" format="2">
  <advance width="1024"/>
  <unicode hex="02C7"/>
  <outline>
    <contour>
      <point x="474.0" y="1183.0" type="line"/>
      <point x="248.0" y="1483.0" type="line"/>
      <point x="342.0" y="1483.0" type="line"/>
      <point x="513.0" y="1270.0" type="line"/>
      <point x="686.0" y="1483.0" type="line"/>
      <point x="777.0" y="1483.0" type="line"/>
      <point x="553.0" y="1183.0" type="line"/>
    </contour>
  </outline>
</glyph>
<glyph name="breve" format="2">
  <advance width="1024"/>
  <unicode hex="02D8"/>
  <outline>
    <contour>
      <point x="738.0" y="1578.0392156863" type="qcurve"/>
      <point x="797.0" y="1552.0392156863" type="line"/>
      <point x="772.0" y="1438.0392156863"/>
      <point x="627.0" y="1280.0392156863"/>
      <point x="513.0" y="1280.0392156863" type="qcurve" smooth="yes"/>
      <point x="400.0" y="1280.0392156863"/>
      <point x="254.0" y="1437.0392156863"/>
      <point x="227.0" y="1552.0392156863" type="qcurve"/>
      <point x="287.0" y="1578.0392156863" type="line"/>
      <point x="317.0" y="1478.0392156863"/>
      <point x="431.0" y="1357.0392156863"/>
      <point x="512.0" y="1357.0392156863" type="qcurve" smooth="yes"/>
      <point x="594.0" y="1357.0392156863"/>
      <point x="708.0" y="1478.0392156863"/>
    </contour>
  </outline>
</glyph>
<glyph name="dotaccent" format="2">
  <advance width="1024"/>
  <unicode hex="02D9"/>
  <outline>
    <contour>
      <point x="426" y="1310" type="qcurve" smooth="yes"/>
      <point x="426" y="1344"/>
      <point x="471" y="1394"/>
      <point x="512.0" y="1394" type="qcurve" smooth="yes"/>
      <point x="554" y="1394"/>
      <point x="599" y="1344"/>
      <point x="599" y="1310" type="qcurve" smooth="yes"/>
      <point x="599" y="1275"/>
      <point x="554" y="1226.0"/>
      <point x="512.0" y="1226.0" type="qcurve" smooth="yes"/>
      <point x="471" y="1226.0"/>
      <point x="426" y="1275"/>
    </contour>
  </outline>
</glyph>
<glyph name="ring" format="2">
  <advance width="1024"/>
  <unicode hex="02DA"/>
  <outline>
    <contour>
      <point x="309.0" y="1502.0" type="qcurve"/>
      <point x="309.0" y="1601.0"/>
      <point x="425.0" y="1728.0"/>
      <point x="514.0" y="1728.0" type="qcurve" smooth="yes"/>
      <point x="602.0" y="1728.0"/>
      <point x="715.0" y="1601.0"/>
      <point x="715.0" y="1502.0" type="qcurve" smooth="yes"/>
      <point x="715.0" y="1405.0"/>
      <point x="602.0" y="1280.0"/>
      <point x="514.0" y="1280.0" type="qcurve" smooth="yes"/>
      <point x="425.0" y="1280.0"/>
      <point x="309.0" y="1405.0"/>
    </contour>
    <contour>
      <point x="399.0" y="1502.0" type="qcurve"/>
      <point x="399.0" y="1441.0"/>
      <point x="464.0" y="1362.0"/>
      <point x="514.0" y="1362.0" type="qcurve" smooth="yes"/>
      <point x="562.0" y="1362.0"/>
      <point x="625.0" y="1441.0"/>
      <point x="625.0" y="1502.0" type="qcurve" smooth="yes"/>
      <point x="625.0" y="1565.0"/>
      <point x="562.0" y="1646.0"/>
      <point x="514.0" y="1646.0" type="qcurve" smooth="yes"/>
      <point x="464.0" y="1646.0"/>
      <point x="399.0" y="1565.0"/>
    </contour>
  </outline>
</glyph>
<glyph name="ogonek" format="2">
  <advance width="1024"/>
  <unicode hex="02DB"/>
  <outline>
    <contour>
      <point x="508" y="47" type="qcurve"/>
      <point x="550" y="20" type="line"/>
      <point x="479" y="-46"/>
      <point x="408" y="-172"/>
      <point x="408" y="-220" type="qcurve" smooth="yes"/>
      <point x="408" y="-268"/>
      <point x="469" y="-319"/>
      <point x="516" y="-319" type="qcurve" smooth="yes"/>
      <point x="544" y="-319"/>
      <point x="604" y="-301"/>
      <point x="630" y="-284" type="qcurve"/>
      <point x="640" y="-343" type="line"/>
      <point x="619" y="-357"/>
      <point x="551" y="-385"/>
      <point x="500" y="-385" type="qcurve" smooth="yes"/>
      <point x="419" y="-385"/>
      <point x="331" y="-302"/>
      <point x="331" y="-238" type="qcurve" smooth="yes"/>
      <point x="331" y="-174"/>
      <point x="419" y="-21"/>
    </contour>
  </outline>
</glyph>
<glyph name="tilde" format="2">
  <advance width="1024"/>
  <unicode hex="02DC"/>
  <outline>
    <contour>
      <point x="224" y="1259" type="line"/>
      <point x="252" y="1323"/>
      <point x="340" y="1392"/>
      <point x="387.0" y="1392.0" type="qcurve" smooth="yes"/>
      <point x="417" y="1392"/>
      <point x="500" y="1359"/>
      <point x="554" y="1328" type="qcurve" smooth="yes"/>
      <point x="600" y="1302"/>
      <point x="670" y="1274"/>
      <point x="688" y="1274" type="qcurve" smooth="yes"/>
      <point x="727.0" y="1274.0"/>
      <point x="794" y="1327"/>
      <point x="818" y="1377" type="qcurve"/>
      <point x="858" y="1323" type="line"/>
      <point x="829" y="1256"/>
      <point x="740" y="1190"/>
      <point x="679" y="1190" type="qcurve" smooth="yes"/>
      <point x="654.0" y="1190.0"/>
      <point x="566" y="1224"/>
      <point x="510" y="1256" type="qcurve" smooth="yes"/>
      <point x="465" y="1281"/>
      <point x="400" y="1308"/>
      <point x="378.0" y="1308.0" type="qcurve" smooth="yes"/>
      <point x="351" y="1308"/>
      <point x="288" y="1255"/>
      <point x="264" y="1205" type="qcurve"/>
    </contour>
  </outline>
</glyph>
<glyph name="hungarumlaut" format="2">
  <advance width="1024"/>
  <unicode hex="02DD"/>
  <outline>
    <contour>
      <point x="343" y="1234" type="line"/>
      <point x="618" y="1540" type="line"/>
      <point x="702" y="1469" type="line"/>
      <point x="384" y="1199" type="line"/>
    </contour>
    <contour>
      <point x="663" y="1234" type="line"/>
      <point x="938" y="1540" type="line"/>
      <point x="1022" y="1469" type="line"/>
      <point x="704" y="1199" type="line"/>
    </contour>
  </outline>
</glyph>
<glyph name="hookabovecomb" format="2">
  <advance width="1024"/>
  <unicode hex="0309"/>
  <outline>
    <contour>
      <point x="466" y="1147.0" type="line"/>
      <point x="466" y="1188.0" type="line" smooth="yes"/>
      <point x="466.0" y="1220.0"/>
      <point x="498" y="1258.0"/>
      <point x="541" y="1265.0" type="qcurve" smooth="yes"/>
      <point x="607" y="1276.0"/>
      <point x="677" y="1341.0"/>
      <point x="677" y="1390.0" type="qcurve" smooth="yes"/>
      <point x="677" y="1439.0"/>
      <point x="613" y="1492.0"/>
      <point x="553" y="1492.0" type="qcurve" smooth="yes"/>
      <point x="513" y="1492.0"/>
      <point x="431" y="1468.0"/>
      <point x="395" y="1446.0" type="qcurve"/>
      <point x="367" y="1515" type="line"/>
      <point x="409" y="1542"/>
      <point x="513" y="1571"/>
      <point x="568" y="1571" type="qcurve" smooth="yes"/>
      <point x="661" y="1571"/>
      <point x="763" y="1471"/>
      <point x="763" y="1390" type="qcurve" smooth="yes"/>
      <point x="763" y="1311"/>
      <point x="643" y="1211"/>
      <point x="532" y="1198" type="qcurve"/>
      <point x="532" y="1147.0" type="line"/>
    </contour>
  </outline>
</glyph>
<glyph name="breveinvertedcomb" format="2">
  <advance width="1024"/>
  <unicode hex="030F"/>
  <outline>
    <contour>
      <point x="286" y="1184" type="qcurve"/>
      <point x="227" y="1210" type="line"/>
      <point x="252" y="1324"/>
      <point x="397" y="1482"/>
      <point x="511" y="1482" type="qcurve" smooth="yes"/>
      <point x="624" y="1482"/>
      <point x="770" y="1325"/>
      <point x="797" y="1210" type="qcurve"/>
      <point x="737" y="1184" type="line"/>
      <point x="707" y="1284"/>
      <point x="593" y="1405"/>
      <point x="512" y="1405" type="qcurve" smooth="yes"/>
      <point x="430" y="1405"/>
      <point x="316" y="1284"/>
    </contour>
  </outline>
</glyph>
<glyph name="horncomb" format="2">
  <advance width="1024"/>
  <unicode hex="031B"/>
  <outline>
    <contour>
      <point x="-17" y="998.0" type="line"/>
      <point x="75" y="998.0" type="line" smooth="yes"/>
      <point x="161" y="998.0"/>
      <point x="225" y="1034"/>
      <point x="225" y="1077" type="qcurve" smooth="yes"/>
      <point x="225" y="1120"/>
      <point x="203.0" y="1198"/>
      <point x="190" y="1229" type="qcurve"/>
      <point x="269" y="1229" type="line"/>
      <point x="290" y="1199"/>
      <point x="316" y="1118"/>
      <point x="316" y="1068" type="qcurve" smooth="yes"/>
      <point x="316" y="1005"/>
      <point x="226" y="921"/>
      <point x="140" y="921" type="qcurve" smooth="yes"/>
      <point x="91" y="921"/>
      <point x="11" y="924"/>
      <point x="-17" y="927" type="qcurve"/>
    </contour>
  </outline>
</glyph>
<glyph name="dotbelowcomb" format="2">
  <advance width="1024"/>
  <unicode hex="0323"/>
  <outline>
    <contour>
      <point x="426" y="-248" type="qcurve" smooth="yes"/>
      <point x="426" y="-214"/>
      <point x="471" y="-164"/>
      <point x="512" y="-164" type="qcurve" smooth="yes"/>
      <point x="554" y="-164"/>
      <point x="599" y="-214"/>
      <point x="599" y="-248" type="qcurve" smooth="yes"/>
      <point x="599" y="-283"/>
      <point x="554" y="-332"/>
      <point x="512" y="-332" type="qcurve" smooth="yes"/>
      <point x="471" y="-332"/>
      <point x="426" y="-283"/>
    </contour>
  </outline>
</glyph>
<glyph name="dieresisbelowcomb" format="2">
  <advance width="1024"/>
  <unicode hex="0324"/>
  <anchor x="512.0" y="0" name="_bottom"/>
  <anchor x="512.0" y="-360" name="bottom"/>
  <outline>
    <contour>
      <point x="253" y="-288" type="qcurve" smooth="yes"/>
      <point x="253" y="-257"/>
      <point x="293" y="-215"/>
      <point x="327" y="-215" type="qcurve" smooth="yes"/>
      <point x="361" y="-215"/>
      <point x="401" y="-257"/>
      <point x="401" y="-288" type="qcurve" smooth="yes"/>
      <point x="401" y="-319"/>
      <point x="361" y="-360"/>
      <point x="328" y="-360" type="qcurve" smooth="yes"/>
      <point x="295" y="-360"/>
      <point x="253" y="-319"/>
    </contour>
    <contour>
      <point x="623" y="-288" type="qcurve" smooth="yes"/>
      <point x="623" y="-257"/>
      <point x="663" y="-215"/>
      <point x="697" y="-215" type="qcurve" smooth="yes"/>
      <point x="731" y="-215"/>
      <point x="771" y="-257"/>
      <point x="771" y="-288" type="qcurve" smooth="yes"/>
      <point x="771" y="-319"/>
      <point x="731" y="-360"/>
      <point x="698" y="-360" type="qcurve" smooth="yes"/>
      <point x="665" y="-360"/>
      <point x="623" y="-319"/>
    </contour>
  </outline>
</glyph>
<glyph name="commaaccentcomb" format="2">
  <advance width="1024"/>
  <unicode hex="0326"/>
  <outline>
    <contour>
      <point x="409.0980392157" y="-513.9607843137" type="line"/>
      <point x="443.2156862745" y="-414.0784313725"/>
      <point x="477" y="-292"/>
      <point x="507.4509803922" y="-156.0" type="qcurve"/>
      <point x="619" y="-154.0" type="line"/>
      <point x="478" y="-517" type="line"/>
    </contour>
  </outline>
</glyph>
<glyph name="brevebelowcomb" format="2">
  <advance width="1024"/>
  <unicode hex="032E"/>
  <anchor x="512.0" y="0" name="_bottom"/>
  <anchor x="512.0" y="-463" name="bottom"/>
  <outline>
    <contour>
      <point x="736" y="-165" type="qcurve"/>
      <point x="795" y="-191" type="line"/>
      <point x="770" y="-305"/>
      <point x="625" y="-463"/>
      <point x="511" y="-463" type="qcurve" smooth="yes"/>
      <point x="398" y="-463"/>
      <point x="252" y="-306"/>
      <point x="225" y="-191" type="qcurve"/>
      <point x="285" y="-165" type="line"/>
      <point x="315" y="-265"/>
      <point x="429" y="-386"/>
      <point x="510" y="-386" type="qcurve" smooth="yes"/>
      <point x="592" y="-386"/>
      <point x="706" y="-265"/>
    </contour>
  </outline>
</glyph>
<glyph name="numeralsign" format="2">
  <advance width="547"/>
  <unicode hex="0374"/>
  <outline>
    <contour>
      <point x="202.0" y="1053.0" type="line"/>
      <point x="152.0" y="1066.0" type="line"/>
      <point x="257.0" y="1529.0" type="line"/>
      <point x="358.0" y="1516.0" type="line"/>
    </contour>
  </outline>
</glyph>
<glyph name="Gamma" format="2">
  <advance width="978"/>
  <unicode hex="0393"/>
  <outline>
    <contour>
      <point x="170" y="0" type="line"/>
      <point x="170" y="1456" type="line"/>
      <point x="919" y="1456" type="line"/>
      <point x="919" y="1361" type="line"/>
      <point x="270" y="1361" type="line"/>
      <point x="270" y="0" type="line"/>
    </contour>
  </outline>
</glyph>
<glyph name="Delta" format="2">
  <advance width="1164"/>
  <unicode hex="0394"/>
  <outline>
    <contour>
      <point x="11" y="0" type="line"/>
      <point x="11" y="57" type="line"/>
      <point x="524" y="1465" type="line"/>
      <point x="636" y="1465" type="line"/>
      <point x="1153" y="57" type="line"/>
      <point x="1153" y="0" type="line"/>
    </contour>
    <contour>
      <point x="124" y="93" type="line"/>
      <point x="1036" y="93" type="line"/>
      <point x="635" y="1194" type="line" smooth="yes"/>
      <point x="616" y="1246"/>
      <point x="595" y="1335"/>
      <point x="585" y="1378" type="qcurve"/>
      <point x="574" y="1378" type="line"/>
      <point x="565" y="1335"/>
      <point x="542" y="1245"/>
      <point x="524" y="1194" type="qcurve" smooth="yes"/>
    </contour>
  </outline>
</glyph>
<glyph name="Lambda" format="2">
  <advance width="1097"/>
  <unicode hex="039B"/>
  <outline>
    <contour>
      <point x="0" y="0" type="line"/>
      <point x="488" y="1465" type="line"/>
      <point x="600" y="1465" type="line"/>
      <point x="1097" y="0" type="line"/>
      <point x="993" y="0" type="line"/>
      <point x="602" y="1178" type="line" smooth="yes"/>
      <point x="587" y="1223"/>
      <point x="559" y="1334"/>
      <point x="549" y="1378" type="qcurve"/>
      <point x="538" y="1378" type="line"/>
      <point x="528" y="1334"/>
      <point x="500" y="1223"/>
      <point x="485" y="1178" type="qcurve" smooth="yes"/>
      <point x="101" y="0" type="line"/>
    </contour>
  </outline>
</glyph>
<glyph name="Xi" format="2">
  <advance width="1047"/>
  <unicode hex="039E"/>
  <outline>
    <contour>
      <point x="68.0" y="0.0" type="line"/>
      <point x="68.0" y="95.0" type="line"/>
      <point x="979.0" y="95.0" type="line"/>
      <point x="979.0" y="0.0" type="line"/>
    </contour>
    <contour>
      <point x="177.0" y="706.0" type="line"/>
      <point x="177.0" y="801.0" type="line"/>
      <point x="871.0" y="801.0" type="line"/>
      <point x="871.0" y="706.0" type="line"/>
    </contour>
    <contour>
      <point x="68.0" y="1361.0" type="line"/>
      <point x="68.0" y="1456.0" type="line"/>
      <point x="979.0" y="1456.0" type="line"/>
      <point x="979.0" y="1361.0" type="line"/>
    </contour>
  </outline>
</glyph>
<glyph name="Pi" format="2">
  <advance width="1302"/>
  <unicode hex="03A0"/>
  <outline>
    <contour>
      <point x="170" y="0" type="line"/>
      <point x="170" y="1456" type="line"/>
      <point x="1132" y="1456" type="line"/>
      <point x="1132" y="0" type="line"/>
      <point x="1032" y="0" type="line"/>
      <point x="1032" y="1361" type="line"/>
      <point x="270" y="1361" type="line"/>
      <point x="270" y="0" type="line"/>
    </contour>
  </outline>
</glyph>
<glyph name="Sigma" format="2">
  <advance width="1054"/>
  <unicode hex="03A3"/>
  <outline>
    <contour>
      <point x="41" y="0" type="line"/>
      <point x="41" y="79" type="line"/>
      <point x="445" y="758" type="line"/>
      <point x="457" y="709" type="line"/>
      <point x="57" y="1385" type="line"/>
      <point x="57" y="1456" type="line"/>
      <point x="1043" y="1456" type="line"/>
      <point x="1043" y="1361" type="line"/>
      <point x="154" y="1361" type="line"/>
      <point x="165" y="1382" type="line"/>
      <point x="542" y="749" type="line"/>
      <point x="542" y="738" type="line"/>
      <point x="140" y="66" type="line"/>
      <point x="120" y="95" type="line"/>
      <point x="1082" y="95" type="line"/>
      <point x="1082" y="0" type="line"/>
    </contour>
  </outline>
</glyph>
<glyph name="Phi" format="2">
  <advance width="1690"/>
  <unicode hex="03A6"/>
  <outline>
    <contour>
      <point x="795" y="-20" type="line"/>
      <point x="795" y="199" type="line"/>
      <point x="761" y="199" type="line" smooth="yes"/>
      <point x="450" y="199"/>
      <point x="115" y="480"/>
      <point x="115" y="738" type="qcurve" smooth="yes"/>
      <point x="115" y="996"/>
      <point x="449" y="1281"/>
      <point x="761" y="1281" type="qcurve" smooth="yes"/>
      <point x="795" y="1281" type="line"/>
      <point x="795" y="1476" type="line"/>
      <point x="895" y="1476" type="line"/>
      <point x="895" y="1281" type="line"/>
      <point x="929" y="1281" type="line" smooth="yes"/>
      <point x="1241" y="1281"/>
      <point x="1575" y="996"/>
      <point x="1575" y="738" type="qcurve" smooth="yes"/>
      <point x="1575" y="480"/>
      <point x="1240" y="199"/>
      <point x="929" y="199" type="qcurve" smooth="yes"/>
      <point x="895" y="199" type="line"/>
      <point x="895" y="-20" type="line"/>
    </contour>
    <contour>
      <point x="795" y="294" type="line"/>
      <point x="795" y="1186" type="line"/>
      <point x="761" y="1186" type="line" smooth="yes"/>
      <point x="476" y="1186"/>
      <point x="217" y="939"/>
      <point x="217" y="741" type="qcurve" smooth="yes"/>
      <point x="217" y="542"/>
      <point x="476" y="294"/>
      <point x="761" y="294" type="qcurve" smooth="yes"/>
    </contour>
    <contour>
      <point x="895" y="294" type="line"/>
      <point x="929" y="294" type="line" smooth="yes"/>
      <point x="1214" y="294"/>
      <point x="1473" y="542"/>
      <point x="1473" y="741" type="qcurve" smooth="yes"/>
      <point x="1473" y="939"/>
      <point x="1214" y="1186"/>
      <point x="929" y="1186" type="qcurve" smooth="yes"/>
      <point x="895" y="1186" type="line"/>
    </contour>
  </outline>
</glyph>
<glyph name="Omega" format="2">
  <advance width="1378"/>
  <unicode hex="03A9"/>
  <anchor x="40.0" y="1456.0" name="GRK_topleft"/>
  <outline>
    <contour>
      <point x="115.0" y="0.0" type="line"/>
      <point x="115.0" y="95.0" type="line"/>
      <point x="501.0" y="95.0" type="line"/>
      <point x="501.0" y="329.0" type="line"/>
      <point x="295.0" y="391.0"/>
      <point x="115.0" y="650.0"/>
      <point x="115.0" y="859.0" type="qcurve"/>
      <point x="115.0" y="905.0" type="line"/>
      <point x="115.0" y="1185.0"/>
      <point x="423.0" y="1486.0"/>
      <point x="688.0" y="1486.0" type="qcurve"/>
      <point x="954.0" y="1486.0"/>
      <point x="1263.0" y="1185.0"/>
      <point x="1263.0" y="905.0" type="qcurve"/>
      <point x="1263.0" y="859.0" type="line"/>
      <point x="1263.0" y="650.0"/>
      <point x="1080.0" y="391.0"/>
      <point x="874.0" y="329.0" type="qcurve"/>
      <point x="874.0" y="95.0" type="line"/>
      <point x="1262.0" y="95.0" type="line"/>
      <point x="1262.0" y="0.0" type="line"/>
      <point x="774.0" y="0.0" type="line"/>
      <point x="774.0" y="402.0" type="line"/>
      <point x="975.0" y="427.0"/>
      <point x="1161.0" y="684.0"/>
      <point x="1161.0" y="861.0" type="qcurve"/>
      <point x="1161.0" y="917.0" type="line"/>
      <point x="1161.0" y="1149.0"/>
      <point x="928.0" y="1391.0"/>
      <point x="688.0" y="1391.0" type="qcurve"/>
      <point x="447.0" y="1391.0"/>
      <point x="217.0" y="1149.0"/>
      <point x="217.0" y="917.0" type="qcurve"/>
      <point x="217.0" y="861.0" type="line"/>
      <point x="217.0" y="684.0"/>
      <point x="400.0" y="427.0"/>
      <point x="601.0" y="402.0" type="qcurve"/>
      <point x="601.0" y="0.0" type="line"/>
    </contour>
  </outline>
</glyph>
<glyph name="alpha" format="2">
  <advance width="1145"/>
  <unicode hex="03B1"/>
  <anchor x="549.0" y="1089.0" name="GRK_top"/>
  <outline>
    <contour>
      <point x="494.0" y="-20.0" type="qcurve" smooth="yes"/>
      <point x="301.0" y="-20.0"/>
      <point x="85.0" y="288.0"/>
      <point x="85.0" y="529.0" type="qcurve" smooth="yes"/>
      <point x="85.0" y="560.0" type="line" smooth="yes"/>
      <point x="85.0" y="800.0"/>
      <point x="299.0" y="1109.0"/>
      <point x="496.0" y="1109.0" type="qcurve" smooth="yes"/>
      <point x="610.0" y="1109.0"/>
      <point x="794.0" y="1024.0"/>
      <point x="852.0" y="947.0" type="qcurve"/>
      <point x="851.0" y="947.0" type="line"/>
      <point x="854.0" y="1089.0" type="line"/>
      <point x="948.0" y="1089.0" type="line"/>
      <point x="948.0" y="189.0" type="line" smooth="yes"/>
      <point x="948.0" y="111.0"/>
      <point x="990.0" y="72.0"/>
      <point x="1026.0" y="72.0" type="qcurve"/>
      <point x="1043.0" y="72.0"/>
      <point x="1080.0" y="81.0"/>
      <point x="1095.0" y="88.0" type="qcurve"/>
      <point x="1095.0" y="-4.0" type="line"/>
      <point x="1079.0" y="-12.0"/>
      <point x="1009.0" y="-20.0"/>
      <point x="988.0" y="-20.0" type="qcurve" smooth="yes"/>
      <point x="929.0" y="-20.0"/>
      <point x="862.0" y="41.0"/>
      <point x="854.0" y="134.0" type="qcurve"/>
      <point x="852.0" y="134.0" type="line"/>
      <point x="815.0" y="84.0"/>
      <point x="632.0" y="-20.0"/>
    </contour>
    <contour>
      <point x="525.0" y="75.0" type="qcurve" smooth="yes"/>
      <point x="647.0" y="75.0"/>
      <point x="814.0" y="187.0"/>
      <point x="848.0" y="258.0" type="qcurve"/>
      <point x="848.0" y="844.0" type="line"/>
      <point x="819.0" y="898.0"/>
      <point x="661.0" y="1014.0"/>
      <point x="525.0" y="1014.0" type="qcurve" smooth="yes"/>
      <point x="364.0" y="1014.0"/>
      <point x="186.0" y="805.0"/>
      <point x="186.0" y="559" type="qcurve" smooth="yes"/>
      <point x="186.0" y="528" type="line" smooth="yes"/>
      <point x="186.0" y="295.0"/>
      <point x="353.0" y="75.0"/>
    </contour>
  </outline>
</glyph>
<glyph name="beta" format="2">
  <advance width="1098"/>
  <unicode hex="03B2"/>
  <outline>
    <contour>
      <point x="148.0" y="-416.0" type="line"/>
      <point x="148.0" y="1058.0" type="line" smooth="yes"/>
      <point x="148.0" y="1311.0"/>
      <point x="375.0" y="1556.0"/>
      <point x="557.0" y="1556.0" type="qcurve" smooth="yes"/>
      <point x="729.0" y="1556.0"/>
      <point x="929.0" y="1356.0"/>
      <point x="929.0" y="1198.0" type="qcurve" smooth="yes"/>
      <point x="929.0" y="1044.0"/>
      <point x="759.0" y="826.0"/>
      <point x="645.0" y="829.0" type="qcurve"/>
      <point x="645.0" y="847.0" type="line"/>
      <point x="801.0" y="856.0"/>
      <point x="1012.0" y="630.0"/>
      <point x="1012.0" y="449.0" type="qcurve" smooth="yes"/>
      <point x="1012.0" y="224.0"/>
      <point x="807.0" y="-19.0"/>
      <point x="617.0" y="-19.0" type="qcurve" smooth="yes"/>
      <point x="493.0" y="-19.0"/>
      <point x="317.0" y="46.0"/>
      <point x="247.0" y="122.0" type="qcurve"/>
      <point x="247.0" y="-416.0" type="line"/>
    </contour>
    <contour>
      <point x="594.0" y="76.0" type="qcurve"/>
      <point x="747.0" y="76.0"/>
      <point x="912.0" y="266.0"/>
      <point x="912.0" y="443.0" type="qcurve" smooth="yes"/>
      <point x="912.0" y="637.0"/>
      <point x="708.0" y="783.0"/>
      <point x="553.0" y="785.0" type="qcurve" smooth="yes"/>
      <point x="421.0" y="785.0" type="line"/>
      <point x="421.0" y="880.0" type="line"/>
      <point x="554.0" y="880.0" type="line" smooth="yes"/>
      <point x="672" y="880"/>
      <point x="836.0" y="1046.0"/>
      <point x="836.0" y="1182.0" type="qcurve" smooth="yes"/>
      <point x="836.0" y="1318.0"/>
      <point x="653.0" y="1461.0"/>
      <point x="544.0" y="1461.0" type="qcurve" smooth="yes"/>
      <point x="413.0" y="1461.0"/>
      <point x="247.0" y="1284.0"/>
      <point x="247.0" y="1094.0" type="qcurve" smooth="yes"/>
      <point x="247.0" y="248.0" type="line"/>
      <point x="266.0" y="207.0"/>
      <point x="424.0" y="76.0"/>
    </contour>
  </outline>
</glyph>
<glyph name="gamma" format="2">
  <advance width="967"/>
  <unicode hex="03B3"/>
  <outline>
    <contour>
      <point x="430.0" y="-366.0" type="line"/>
      <point x="430.0" y="-15.0" type="line"/>
      <point x="0.0" y="1089.0" type="line"/>
      <point x="105.0" y="1089.0" type="line"/>
      <point x="426.0" y="265.0" type="line" smooth="yes"/>
      <point x="457" y="185"/>
      <point x="473.0" y="133.0"/>
      <point x="480.0" y="106.0" type="qcurve"/>
      <point x="487.0" y="106.0" type="line"/>
      <point x="493.0" y="133.0"/>
      <point x="515" y="204"/>
      <point x="540.0" y="267.0" type="qcurve" smooth="yes"/>
      <point x="859.0" y="1089.0" type="line"/>
      <point x="958.0" y="1089.0" type="line"/>
      <point x="528.0" y="-15.0" type="line"/>
      <point x="528.0" y="-366.0" type="line"/>
    </contour>
  </outline>
</glyph>
<glyph name="delta" format="2">
  <advance width="1075"/>
  <unicode hex="03B4"/>
  <outline>
    <contour>
      <point x="554.0" y="-31.0" type="qcurve" smooth="yes"/>
      <point x="336.0" y="-31.0"/>
      <point x="101" y="233"/>
      <point x="101" y="479" type="qcurve" smooth="yes"/>
      <point x="101" y="494" type="line" smooth="yes"/>
      <point x="101" y="707"/>
      <point x="313.0" y="993.0"/>
      <point x="510.0" y="1045.0" type="qcurve"/>
      <point x="630.0" y="988.0" type="line"/>
      <point x="423.0" y="952.0"/>
      <point x="201.0" y="696.0"/>
      <point x="201.0" y="494.0" type="qcurve" smooth="yes"/>
      <point x="201.0" y="479" type="line" smooth="yes"/>
      <point x="201.0" y="279"/>
      <point x="387.0" y="64.0"/>
      <point x="559.0" y="64.0" type="qcurve" smooth="yes"/>
      <point x="726.0" y="64.0"/>
      <point x="905.0" y="279"/>
      <point x="905.0" y="479" type="qcurve" smooth="yes"/>
      <point x="905.0" y="492" type="line" smooth="yes"/>
      <point x="905.0" y="643"/>
      <point x="736.0" y="892.0"/>
      <point x="579.0" y="972.0" type="qcurve" smooth="yes"/>
      <point x="376.0" y="1074.0"/>
      <point x="244.0" y="1213.0"/>
      <point x="244.0" y="1298.0" type="qcurve"/>
      <point x="244.0" y="1422.0"/>
      <point x="427.0" y="1555.0"/>
      <point x="597.0" y="1555.0" type="qcurve" smooth="yes"/>
      <point x="675.0" y="1555.0"/>
      <point x="806.0" y="1526.0"/>
      <point x="850.0" y="1500.0" type="qcurve"/>
      <point x="823.0" y="1410.0" type="line"/>
      <point x="785.0" y="1433.0"/>
      <point x="662.0" y="1458.0"/>
      <point x="586.0" y="1458.0" type="qcurve" smooth="yes"/>
      <point x="469.0" y="1458.0"/>
      <point x="343.0" y="1382.0"/>
      <point x="343.0" y="1312.0" type="qcurve" smooth="yes"/>
      <point x="343.0" y="1251.0"/>
      <point x="422.0" y="1163.0"/>
      <point x="642.0" y="1049.0" type="qcurve" smooth="yes"/>
      <point x="817.0" y="958.0"/>
      <point x="1005.0" y="670.0"/>
      <point x="1005.0" y="493.0" type="qcurve" smooth="yes"/>
      <point x="1005.0" y="479.0" type="line" smooth="yes"/>
      <point x="1005.0" y="233.0"/>
      <point x="771.0" y="-31.0"/>
    </contour>
  </outline>
</glyph>
<glyph name="epsilon" format="2">
  <advance width="927"/>
  <unicode hex="03B5"/>
  <anchor x="494.0" y="1089.0" name="GRK_top"/>
  <outline>
    <contour>
      <point x="452" y="-30" type="qcurve"/>
      <point x="259" y="-30"/>
      <point x="51" y="130"/>
      <point x="51" y="278" type="qcurve" smooth="yes"/>
      <point x="51" y="418"/>
      <point x="175" y="543"/>
      <point x="300" y="555" type="qcurve"/>
      <point x="301" y="532" type="line"/>
      <point x="195" y="550"/>
      <point x="86" y="689"/>
      <point x="86" y="790" type="qcurve"/>
      <point x="86" y="949"/>
      <point x="293" y="1120"/>
      <point x="485" y="1120" type="qcurve" smooth="yes"/>
      <point x="685" y="1120"/>
      <point x="895" y="921"/>
      <point x="890" y="735" type="qcurve"/>
      <point x="797" y="735" type="line"/>
      <point x="797" y="875"/>
      <point x="636" y="1025"/>
      <point x="486" y="1025" type="qcurve" smooth="yes"/>
      <point x="341" y="1025"/>
      <point x="186" y="905"/>
      <point x="186" y="793" type="qcurve" smooth="yes"/>
      <point x="186" y="696"/>
      <point x="295" y="594"/>
      <point x="393" y="594" type="qcurve"/>
      <point x="619" y="594" type="line"/>
      <point x="619" y="505" type="line"/>
      <point x="392" y="505" type="line" smooth="yes"/>
      <point x="265" y="505"/>
      <point x="151" y="397"/>
      <point x="151" y="286" type="qcurve" smooth="yes"/>
      <point x="151" y="180"/>
      <point x="305" y="65"/>
      <point x="448" y="65" type="qcurve"/>
      <point x="612" y="65"/>
      <point x="792" y="216"/>
      <point x="797" y="356" type="qcurve"/>
      <point x="892" y="356" type="line"/>
      <point x="892" y="170"/>
      <point x="664" y="-30"/>
    </contour>
  </outline>
</glyph>
<glyph name="zeta" format="2">
  <advance width="785"/>
  <unicode hex="03B6"/>
  <outline>
    <contour>
      <point x="602.0" y="-348.0" type="line"/>
      <point x="621.0" y="-295.0"/>
      <point x="641.0" y="-226.0"/>
      <point x="641.0" y="-182.0" type="qcurve"/>
      <point x="641.0" y="-97.0"/>
      <point x="556" y="-28"/>
      <point x="454.0" y="1.0" type="qcurve" smooth="yes"/>
      <point x="398.0" y="17.0" type="line" smooth="yes"/>
      <point x="220.0" y="67.0"/>
      <point x="67.0" y="210.0"/>
      <point x="67.0" y="328.0" type="qcurve" smooth="yes"/>
      <point x="67.0" y="476.0"/>
      <point x="222" y="777"/>
      <point x="344.0" y="959.0" type="qcurve" smooth="yes"/>
      <point x="709.0" y="1505.0" type="line"/>
      <point x="714.0" y="1441.0" type="line"/>
      <point x="51.0" y="1441.0" type="line"/>
      <point x="51.0" y="1536.0" type="line"/>
      <point x="792.0" y="1536.0" type="line"/>
      <point x="792.0" y="1458.0" type="line"/>
      <point x="442.0" y="925.0" type="line" smooth="yes"/>
      <point x="279.0" y="684.0"/>
      <point x="167.0" y="453.0"/>
      <point x="167.0" y="351.0" type="qcurve" smooth="yes"/>
      <point x="167.0" y="236.0"/>
      <point x="296" y="144"/>
      <point x="410.0" y="115.0" type="qcurve" smooth="yes"/>
      <point x="488.0" y="95.0" type="line" smooth="yes"/>
      <point x="641" y="56"/>
      <point x="737.0" y="-59.0"/>
      <point x="737.0" y="-143.0" type="qcurve"/>
      <point x="738.0" y="-199.0"/>
      <point x="715.0" y="-308.0"/>
      <point x="694.0" y="-348.0" type="qcurve"/>
    </contour>
  </outline>
</glyph>
<glyph name="eta" format="2">
  <advance width="1057"/>
  <unicode hex="03B7"/>
  <anchor x="353.0" y="1089.0" name="GRK_top"/>
  <outline>
    <contour>
      <point x="819.0" y="-416.0" type="line"/>
      <point x="819.0" y="721.0" type="line"/>
      <point x="819.0" y="879.0"/>
      <point x="681" y="1024"/>
      <point x="560.0" y="1024.0" type="qcurve" smooth="yes"/>
      <point x="449.0" y="1024.0"/>
      <point x="288" y="888"/>
      <point x="247.0" y="812.0" type="qcurve"/>
      <point x="247.0" y="0.0" type="line"/>
      <point x="148.0" y="0.0" type="line"/>
      <point x="148.0" y="1089.0" type="line"/>
      <point x="241.0" y="1089.0" type="line"/>
      <point x="244.0" y="930.0" type="line"/>
      <point x="249.0" y="930.0" type="line"/>
      <point x="311.0" y="1019.0"/>
      <point x="483.0" y="1119.0"/>
      <point x="597.0" y="1119.0" type="qcurve" smooth="yes"/>
      <point x="746.0" y="1119.0"/>
      <point x="919.0" y="931.0"/>
      <point x="919.0" y="719.0" type="qcurve" smooth="yes"/>
      <point x="919.0" y="-416.0" type="line"/>
    </contour>
  </outline>
</glyph>
<glyph name="theta" format="2">
  <advance width="1080"/>
  <unicode hex="03B8"/>
  <outline>
    <contour>
      <point x="537.0" y="-30.0" type="qcurve" smooth="yes"/>
      <point x="324.0" y="-30.0"/>
      <point x="95.0" y="280.0"/>
      <point x="95.0" y="625.0" type="qcurve"/>
      <point x="95.0" y="911.0" type="line"/>
      <point x="95.0" y="1251.0"/>
      <point x="323.0" y="1556.0"/>
      <point x="535.0" y="1556.0" type="qcurve" smooth="yes"/>
      <point x="749.0" y="1556.0"/>
      <point x="979.0" y="1251.0"/>
      <point x="979.0" y="911.0" type="qcurve"/>
      <point x="979.0" y="625.0" type="line"/>
      <point x="979.0" y="280.0"/>
      <point x="750.0" y="-30.0"/>
    </contour>
    <contour>
      <point x="535.0" y="65.0" type="qcurve" smooth="yes"/>
      <point x="717.0" y="65.0"/>
      <point x="881.0" y="338.0"/>
      <point x="881.0" y="592.0" type="qcurve"/>
      <point x="881.0" y="948.0" type="line" smooth="yes"/>
      <point x="881.0" y="1195.0"/>
      <point x="716.0" y="1461.0"/>
      <point x="533.0" y="1461.0" type="qcurve" smooth="yes"/>
      <point x="354.0" y="1461.0"/>
      <point x="194.0" y="1195.0"/>
      <point x="194.0" y="948.0" type="qcurve" smooth="yes"/>
      <point x="194.0" y="592.0" type="line" smooth="yes"/>
      <point x="194.0" y="338.0"/>
      <point x="355.0" y="65.0"/>
    </contour>
    <contour>
      <point x="142.0" y="724.0" type="line"/>
      <point x="142.0" y="812.0" type="line"/>
      <point x="933.0" y="812.0" type="line"/>
      <point x="933.0" y="724.0" type="line"/>
    </contour>
  </outline>
</glyph>
<glyph name="iota" format="2">
  <advance width="529"/>
  <unicode hex="03B9"/>
  <anchor x="190.0" y="1089.0" name="GRK_top"/>
  <outline>
    <contour>
      <point x="355.0" y="-30.0" type="qcurve" smooth="yes"/>
      <point x="255.0" y="-30.0"/>
      <point x="138.0" y="117.0"/>
      <point x="138.0" y="275.0" type="qcurve" smooth="yes"/>
      <point x="138.0" y="1089.0" type="line"/>
      <point x="237.0" y="1089.0" type="line"/>
      <point x="237.0" y="268.0" type="line" smooth="yes"/>
      <point x="237" y="162"/>
      <point x="304.0" y="65.0"/>
      <point x="378.0" y="65.0" type="qcurve" smooth="yes"/>
      <point x="406.0" y="65.0"/>
      <point x="454.0" y="77.0"/>
      <point x="479.0" y="86.0" type="qcurve"/>
      <point x="479.0" y="-7.0" type="line"/>
      <point x="458.0" y="-16.0"/>
      <point x="394.0" y="-30.0"/>
    </contour>
  </outline>
</glyph>
<glyph name="lambda" format="2">
  <advance width="974"/>
  <unicode hex="03BB"/>
  <outline>
    <contour>
      <point x="20.0" y="0.0" type="line"/>
      <point x="454.0" y="1073.0" type="line"/>
      <point x="401.0" y="1211.0" type="line" smooth="yes"/>
      <point x="346.0" y="1354.0"/>
      <point x="234.0" y="1461.0"/>
      <point x="140.0" y="1461.0" type="qcurve" smooth="yes"/>
      <point x="110.0" y="1461.0"/>
      <point x="50.0" y="1450.0"/>
      <point x="16.0" y="1436.0" type="qcurve"/>
      <point x="16.0" y="1534.0" type="line"/>
      <point x="51.0" y="1547.0"/>
      <point x="105.0" y="1556.0"/>
      <point x="144.0" y="1556.0" type="qcurve" smooth="yes"/>
      <point x="264.0" y="1556.0"/>
      <point x="411" y="1426"/>
      <point x="481.0" y="1252.0" type="qcurve" smooth="yes"/>
      <point x="982.0" y="0.0" type="line"/>
      <point x="877.0" y="0.0" type="line"/>
      <point x="562.0" y="812.0" type="line" smooth="yes"/>
      <point x="541" y="866"/>
      <point x="518.0" y="937.0"/>
      <point x="505.0" y="984.0" type="qcurve"/>
      <point x="498.0" y="984.0" type="line"/>
      <point x="483.0" y="932.0"/>
      <point x="460" y="864"/>
      <point x="441.0" y="815.0" type="qcurve" smooth="yes"/>
      <point x="119.0" y="0.0" type="line"/>
    </contour>
  </outline>
</glyph>
<glyph name="mu" format="2">
  <advance width="1125"/>
  <unicode hex="03BC"/>
  <outline>
    <contour>
      <point x="148.0" y="-416.0" type="line"/>
      <point x="148.0" y="1089.0" type="line"/>
      <point x="247.0" y="1089.0" type="line"/>
      <point x="247.0" y="207.0" type="line"/>
      <point x="260.0" y="150.0"/>
      <point x="384.0" y="74.0"/>
      <point x="506.0" y="74.0" type="qcurve" smooth="yes"/>
      <point x="649.0" y="74.0"/>
      <point x="819" y="221"/>
      <point x="819.0" y="351.0" type="qcurve" smooth="yes"/>
      <point x="819.0" y="1089.0" type="line"/>
      <point x="919.0" y="1089.0" type="line"/>
      <point x="919.0" y="191.0" type="line" smooth="yes"/>
      <point x="919" y="113"/>
      <point x="960.0" y="74.0"/>
      <point x="1002.0" y="74.0" type="qcurve" smooth="yes"/>
      <point x="1013.0" y="74.0"/>
      <point x="1052.0" y="83.0"/>
      <point x="1067.0" y="90.0" type="qcurve"/>
      <point x="1067.0" y="-4.0" type="line"/>
      <point x="1050.0" y="-12.0"/>
      <point x="976.0" y="-20.0"/>
      <point x="963.0" y="-20.0" type="qcurve" smooth="yes"/>
      <point x="897.0" y="-20.0"/>
      <point x="834.0" y="55.0"/>
      <point x="831.0" y="158.0" type="qcurve"/>
      <point x="829.0" y="158.0" type="line"/>
      <point x="795.0" y="95.0"/>
      <point x="628.0" y="-21.0"/>
      <point x="505" y="-21" type="qcurve" smooth="yes"/>
      <point x="416.0" y="-21.0"/>
      <point x="284.0" y="47.0"/>
      <point x="249.0" y="101.0" type="qcurve"/>
      <point x="249.0" y="-416.0" type="line"/>
    </contour>
  </outline>
</glyph>
<glyph name="pi" format="2">
  <advance width="1088"/>
  <unicode hex="03C0"/>
  <outline>
    <contour>
      <point x="30.0" y="994.0" type="line"/>
      <point x="30.0" y="1089.0" type="line"/>
      <point x="1059.0" y="1089.0" type="line"/>
      <point x="1059.0" y="994.0" type="line"/>
    </contour>
    <contour>
      <point x="161.0" y="0.0" type="line"/>
      <point x="161.0" y="1042.0" type="line"/>
      <point x="261.0" y="1042.0" type="line"/>
      <point x="261.0" y="0.0" type="line"/>
    </contour>
    <contour>
      <point x="981.0" y="-20.0" type="qcurve" smooth="yes"/>
      <point x="893" y="-20"/>
      <point x="830.0" y="52.0"/>
      <point x="830.0" y="123.0" type="qcurve"/>
      <point x="830.0" y="1042.0" type="line"/>
      <point x="930.0" y="1042.0" type="line"/>
      <point x="930.0" y="144.0" type="line"/>
      <point x="930.0" y="99.0"/>
      <point x="963.0" y="75.0"/>
      <point x="1000.0" y="75.0" type="qcurve"/>
      <point x="1028.0" y="75.0"/>
      <point x="1060.0" y="84.0"/>
      <point x="1076.0" y="91.0" type="qcurve"/>
      <point x="1076.0" y="-4.0" type="line"/>
      <point x="1064.0" y="-9.0"/>
      <point x="1001.0" y="-20.0"/>
    </contour>
  </outline>
</glyph>
<glyph name="rho" format="2">
  <advance width="1057"/>
  <unicode hex="03C1"/>
  <outline>
    <contour>
      <point x="108.0" y="-416.0" type="line"/>
      <point x="108.0" y="573.0" type="line" smooth="yes"/>
      <point x="108.0" y="831.0"/>
      <point x="332.0" y="1109.0"/>
      <point x="541.0" y="1109.0" type="qcurve" smooth="yes"/>
      <point x="748.0" y="1109.0"/>
      <point x="971.0" y="831.0"/>
      <point x="971.0" y="573.0" type="qcurve" smooth="yes"/>
      <point x="971.0" y="538" type="line" smooth="yes"/>
      <point x="971.0" y="269"/>
      <point x="748.0" y="-20.0"/>
      <point x="576.0" y="-20.0" type="qcurve" smooth="yes"/>
      <point x="433.0" y="-20.0"/>
      <point x="245.0" y="70.0"/>
      <point x="207.0" y="123.0" type="qcurve"/>
      <point x="207.0" y="-416.0" type="line"/>
    </contour>
    <contour>
      <point x="534.0" y="75.0" type="qcurve" smooth="yes"/>
      <point x="695.0" y="75.0"/>
      <point x="869.0" y="314"/>
      <point x="869.0" y="537" type="qcurve" smooth="yes"/>
      <point x="869.0" y="575" type="line" smooth="yes"/>
      <point x="869.0" y="786"/>
      <point x="700.0" y="1012.0"/>
      <point x="542.0" y="1012.0" type="qcurve" smooth="yes"/>
      <point x="381.0" y="1012.0"/>
      <point x="207.0" y="788.0"/>
      <point x="207.0" y="579.0" type="qcurve"/>
      <point x="207.0" y="246.0" type="line"/>
      <point x="231.0" y="199.0"/>
      <point x="395.0" y="75.0"/>
    </contour>
  </outline>
</glyph>
<glyph name="finalsigma" format="2">
  <advance width="942"/>
  <unicode hex="03C2"/>
  <outline>
    <contour>
      <point x="726.0" y="-348.0" type="line"/>
      <point x="736.0" y="-322.0"/>
      <point x="765.0" y="-239.0"/>
      <point x="765.0" y="-184.0" type="qcurve"/>
      <point x="765.0" y="-112.0"/>
      <point x="684.0" y="-27.0"/>
      <point x="554.0" y="5.0" type="qcurve" smooth="yes"/>
      <point x="442.0" y="33.0" type="line" smooth="yes"/>
      <point x="254.0" y="82.0"/>
      <point x="85.0" y="314.0"/>
      <point x="85.0" y="525.0" type="qcurve" smooth="yes"/>
      <point x="85.0" y="580.0" type="line" smooth="yes"/>
      <point x="85.0" y="815.0"/>
      <point x="347.0" y="1119.0"/>
      <point x="549.0" y="1119.0" type="qcurve" smooth="yes"/>
      <point x="730.0" y="1119.0"/>
      <point x="964.0" y="909.0"/>
      <point x="964.0" y="747.0" type="qcurve" smooth="yes"/>
      <point x="964.0" y="735.0" type="line"/>
      <point x="869.0" y="735.0" type="line"/>
      <point x="869.0" y="749.0" type="line" smooth="yes"/>
      <point x="869.0" y="869.0"/>
      <point x="688.0" y="1024.0"/>
      <point x="547.0" y="1024.0" type="qcurve" smooth="yes"/>
      <point x="389.0" y="1024.0"/>
      <point x="185.0" y="774.0"/>
      <point x="185.0" y="581.0" type="qcurve" smooth="yes"/>
      <point x="185.0" y="542.0" type="line" smooth="yes"/>
      <point x="185.0" y="365.0"/>
      <point x="318" y="172"/>
      <point x="466" y="134" type="qcurve" smooth="yes"/>
      <point x="551.0" y="112.0" type="line" smooth="yes"/>
      <point x="725" y="67"/>
      <point x="861.0" y="-59.0"/>
      <point x="861.0" y="-140.0" type="qcurve"/>
      <point x="863.0" y="-197.0"/>
      <point x="839.0" y="-307.0"/>
      <point x="818.0" y="-348.0" type="qcurve"/>
    </contour>
  </outline>
</glyph>
<glyph name="sigma" format="2">
  <advance width="1147"/>
  <unicode hex="03C3"/>
  <outline>
    <contour>
      <point x="548.0" y="-27.0" type="qcurve" smooth="yes"/>
      <point x="335" y="-27"/>
      <point x="85" y="281.0"/>
      <point x="85.0" y="510.0" type="qcurve" smooth="yes"/>
      <point x="85.0" y="542.0" type="line" smooth="yes"/>
      <point x="85.0" y="806.0"/>
      <point x="344.0" y="1089.0"/>
      <point x="584.0" y="1089.0" type="qcurve"/>
      <point x="1097.0" y="1089.0" type="line"/>
      <point x="1097.0" y="990.0" type="line"/>
      <point x="741.0" y="990.0" type="line"/>
      <point x="741.0" y="1024.0" type="line"/>
      <point x="869.0" y="969.0"/>
      <point x="1006.0" y="722.0"/>
      <point x="1006.0" y="546.0" type="qcurve" smooth="yes"/>
      <point x="1006.0" y="514.0" type="line" smooth="yes"/>
      <point x="1006.0" y="283.0"/>
      <point x="759" y="-27"/>
    </contour>
    <contour>
      <point x="549.0" y="65.0" type="qcurve" smooth="yes"/>
      <point x="711" y="65"/>
      <point x="906.0" y="326.0"/>
      <point x="906.0" y="511.0" type="qcurve" smooth="yes"/>
      <point x="906.0" y="548.0" type="line" smooth="yes"/>
      <point x="906.0" y="721.0"/>
      <point x="763.0" y="952.0"/>
      <point x="631.0" y="1000.0" type="qcurve"/>
      <point x="396.0" y="1000.0"/>
      <point x="185" y="786"/>
      <point x="185" y="540" type="qcurve" smooth="yes"/>
      <point x="185.0" y="509" type="line" smooth="yes"/>
      <point x="185" y="325.0"/>
      <point x="384" y="65"/>
    </contour>
  </outline>
</glyph>
<glyph name="upsilon" format="2">
  <advance width="1047"/>
  <unicode hex="03C5"/>
  <anchor x="524.0" y="1089.0" name="GRK_top"/>
  <outline>
    <contour>
      <point x="524.0" y="-20.0" type="qcurve" smooth="yes"/>
      <point x="352.0" y="-20.0"/>
      <point x="138" y="175.0"/>
      <point x="138.0" y="421.0" type="qcurve" smooth="yes"/>
      <point x="138.0" y="1089.0" type="line"/>
      <point x="237.0" y="1089.0" type="line"/>
      <point x="237.0" y="429.0" type="line" smooth="yes"/>
      <point x="237.0" y="229.0"/>
      <point x="381.0" y="75.0"/>
      <point x="524.0" y="75.0" type="qcurve" smooth="yes"/>
      <point x="668.0" y="75.0"/>
      <point x="809.0" y="228.0"/>
      <point x="809.0" y="429.0" type="qcurve" smooth="yes"/>
      <point x="809.0" y="1089.0" type="line"/>
      <point x="909.0" y="1089.0" type="line"/>
      <point x="909.0" y="421.0" type="line" smooth="yes"/>
      <point x="909.0" y="173.0"/>
      <point x="696.0" y="-20.0"/>
    </contour>
  </outline>
</glyph>
<glyph name="phi" format="2">
  <advance width="1197"/>
  <unicode hex="03C6"/>
  <outline>
    <contour>
      <point x="550.0" y="-416.0" type="line"/>
      <point x="550.0" y="-30.0" type="line"/>
      <point x="347.0" y="-18.0"/>
      <point x="85.0" y="297.0"/>
      <point x="85.0" y="529.0" type="qcurve" smooth="yes"/>
      <point x="85.0" y="561.0" type="line" smooth="yes"/>
      <point x="85.0" y="793.0"/>
      <point x="347.0" y="1107.0"/>
      <point x="550.0" y="1119.0" type="qcurve"/>
      <point x="550.0" y="1536.0" type="line"/>
      <point x="648.0" y="1536.0" type="line"/>
      <point x="648.0" y="1119.0" type="line"/>
      <point x="851.0" y="1107.0"/>
      <point x="1113.0" y="792.0"/>
      <point x="1113.0" y="560.0" type="qcurve" smooth="yes"/>
      <point x="1113.0" y="528.0" type="line" smooth="yes"/>
      <point x="1113.0" y="296.0"/>
      <point x="851.0" y="-18.0"/>
      <point x="648.0" y="-30.0" type="qcurve"/>
      <point x="648.0" y="-416.0" type="line"/>
    </contour>
    <contour>
      <point x="550.0" y="65.0" type="qcurve"/>
      <point x="550.0" y="1024.0" type="line"/>
      <point x="391.0" y="1013.0"/>
      <point x="186.0" y="753"/>
      <point x="186.0" y="562" type="qcurve" smooth="yes"/>
      <point x="186" y="528" type="line" smooth="yes"/>
      <point x="186" y="337"/>
      <point x="391.0" y="76.0"/>
    </contour>
    <contour>
      <point x="648.0" y="65.0" type="line"/>
      <point x="807.0" y="76.0"/>
      <point x="1012.0" y="336"/>
      <point x="1012.0" y="527" type="qcurve" smooth="yes"/>
      <point x="1012.0" y="561" type="line" smooth="yes"/>
      <point x="1012.0" y="752"/>
      <point x="807.0" y="1013.0"/>
      <point x="648.0" y="1024.0" type="qcurve"/>
    </contour>
  </outline>
</glyph>
<glyph name="chi" format="2">
  <advance width="917"/>
  <unicode hex="03C7"/>
  <outline>
    <contour>
      <point x="778.0" y="-416.0" type="line"/>
      <point x="458.0" y="315.0" type="line"/>
      <point x="441.0" y="315.0" type="line"/>
      <point x="79.0" y="1089.0" type="line"/>
      <point x="177.0" y="1089.0" type="line"/>
      <point x="505.0" y="383.0" type="line"/>
      <point x="520.0" y="383.0" type="line"/>
      <point x="876.0" y="-416.0" type="line"/>
    </contour>
    <contour>
      <point x="50.0" y="-416.0" type="line"/>
      <point x="461.0" y="395.0" type="line"/>
      <point x="476.0" y="395.0" type="line"/>
      <point x="806.0" y="1089.0" type="line"/>
      <point x="899.0" y="1089.0" type="line"/>
      <point x="519.0" y="302.0" type="line"/>
      <point x="513.0" y="302.0" type="line"/>
      <point x="142.0" y="-416.0" type="line"/>
    </contour>
  </outline>
</glyph>
<glyph name="psi" format="2">
  <advance width="1307"/>
  <unicode hex="03C8"/>
  <outline>
    <contour>
      <point x="642.0" y="-416.0" type="line"/>
      <point x="642.0" y="-20.0" type="line"/>
      <point x="366.0" y="-21.0"/>
      <point x="138.0" y="235.0"/>
      <point x="138.0" y="480.0" type="qcurve" smooth="yes"/>
      <point x="138.0" y="1089.0" type="line"/>
      <point x="237.0" y="1089.0" type="line"/>
      <point x="237.0" y="490.0" type="line" smooth="yes"/>
      <point x="237.0" y="307.0"/>
      <point x="386.0" y="80.0"/>
      <point x="642.0" y="75.0" type="qcurve"/>
      <point x="642.0" y="1536.0" type="line"/>
      <point x="741.0" y="1536.0" type="line"/>
      <point x="741.0" y="75.0" type="line"/>
      <point x="997.0" y="80.0"/>
      <point x="1147.0" y="307.0"/>
      <point x="1147.0" y="490.0" type="qcurve" smooth="yes"/>
      <point x="1147.0" y="1089.0" type="line"/>
      <point x="1246.0" y="1089.0" type="line"/>
      <point x="1246.0" y="480.0" type="line" smooth="yes"/>
      <point x="1246" y="235"/>
      <point x="1016.0" y="-21.0"/>
      <point x="741.0" y="-20.0" type="qcurve"/>
      <point x="741.0" y="-416.0" type="line"/>
    </contour>
  </outline>
</glyph>
<glyph name="Kaisymbol" format="2">
  <advance width="1143"/>
  <unicode hex="03CF"/>
  <outline>
    <contour>
      <point x="523" y="-601" type="line"/>
      <point x="462" y="-537" type="line"/>
      <point x="1057" y="-21" type="line"/>
      <point x="464" y="750" type="line"/>
      <point x="270" y="551" type="line"/>
      <point x="270" y="0" type="line"/>
      <point x="170" y="0" type="line"/>
      <point x="170" y="1456" type="line"/>
      <point x="270" y="1456" type="line"/>
      <point x="270" y="675" type="line"/>
      <point x="1031" y="1456" type="line"/>
      <point x="1154" y="1456" type="line"/>
      <point x="530" y="817" type="line"/>
      <point x="1178" y="-21" type="line"/>
    </contour>
  </outline>
</glyph>
<glyph name="kaisymbol" format="2">
  <advance width="1044"/>
  <unicode hex="03D7"/>
  <outline>
    <contour>
      <point x="377" y="-525" type="line"/>
      <point x="316" y="-464" type="line"/>
      <point x="762" y="-22" type="line"/>
      <point x="400" y="504" type="line"/>
      <point x="246" y="504" type="line"/>
      <point x="246" y="0" type="line"/>
      <point x="148" y="0" type="line"/>
      <point x="148" y="1089" type="line"/>
      <point x="246" y="1089" type="line"/>
      <point x="246" y="596" type="line"/>
      <point x="405" y="596" type="line"/>
      <point x="701" y="1089" type="line"/>
      <point x="808" y="1089" type="line"/>
      <point x="478" y="560" type="line"/>
      <point x="884" y="-14" type="line"/>
    </contour>
  </outline>
</glyph>
<glyph name="Nje" format="2">
  <advance width="2126"/>
  <unicode hex="040A"/>
  <outline>
    <contour>
      <point x="170.0" y="0.0" type="line"/>
      <point x="170.0" y="1456.0" type="line"/>
      <point x="270.0" y="1456.0" type="line"/>
      <point x="270.0" y="871.0" type="line"/>
      <point x="1108.0" y="871.0" type="line"/>
      <point x="1108.0" y="1456.0" type="line"/>
      <point x="1208.0" y="1456.0" type="line"/>
      <point x="1208.0" y="871.0" type="line"/>
      <point x="1578.0" y="871.0" type="line" smooth="yes"/>
      <point x="1827" y="871"/>
      <point x="2077.0" y="631.0"/>
      <point x="2077.0" y="439.0" type="qcurve" smooth="yes"/>
      <point x="2077.0" y="245.0"/>
      <point x="1827.0" y="0.0"/>
      <point x="1578.0" y="0.0" type="qcurve" smooth="yes"/>
      <point x="1108.0" y="0.0" type="line"/>
      <point x="1108.0" y="776.0" type="line"/>
      <point x="270.0" y="776.0" type="line"/>
      <point x="270.0" y="0.0" type="line"/>
    </contour>
    <contour>
      <point x="1208.0" y="776.0" type="line"/>
      <point x="1208.0" y="95.0" type="line"/>
      <point x="1578.0" y="95.0" type="line" smooth="yes"/>
      <point x="1794" y="95"/>
      <point x="1975.0" y="295.0"/>
      <point x="1975.0" y="439.0" type="qcurve" smooth="yes"/>
      <point x="1975.0" y="582.0"/>
      <point x="1794.0" y="776.0"/>
      <point x="1578.0" y="776.0" type="qcurve" smooth="yes"/>
    </contour>
  </outline>
</glyph>
<glyph name="Tshe" format="2">
  <advance width="1711"/>
  <unicode hex="040B"/>
  <outline>
    <contour>
      <point x="1461.0" y="0.0" type="line"/>
      <point x="1461.0" y="372.0" type="line" smooth="yes"/>
      <point x="1461" y="605"/>
      <point x="1245.0" y="768.0"/>
      <point x="1050.0" y="768.0" type="qcurve" smooth="yes"/>
      <point x="911.0" y="768.0"/>
      <point x="693.0" y="742.0"/>
      <point x="590.0" y="716.0" type="qcurve"/>
      <point x="590.0" y="810.0" type="line"/>
      <point x="694.5176984289" y="835.3683734051"/>
      <point x="900.0" y="863.0"/>
      <point x="1050.0" y="863.0" type="qcurve" smooth="yes"/>
      <point x="1310.0" y="863.0"/>
      <point x="1561.0" y="655.0"/>
      <point x="1561.0" y="372.0" type="qcurve" smooth="yes"/>
      <point x="1561.0" y="0.0" type="line"/>
    </contour>
    <contour>
      <point x="24.0" y="1361.0" type="line"/>
      <point x="24.0" y="1456.0" type="line"/>
      <point x="1194.0" y="1456.0" type="line"/>
      <point x="1194.0" y="1361.0" type="line"/>
      <point x="640.0" y="1361.0" type="line"/>
      <point x="640.0" y="0.0" type="line"/>
      <point x="540.0" y="0.0" type="line"/>
      <point x="540.0" y="1361.0" type="line"/>
    </contour>
  </outline>
</glyph>
<glyph name="Be" format="2">
  <advance width="1238"/>
  <unicode hex="0411"/>
  <outline>
    <contour>
      <point x="170.0" y="0.0" type="line"/>
      <point x="170.0" y="1456.0" type="line"/>
      <point x="1049.0" y="1456.0" type="line"/>
      <point x="1049.0" y="1361.0" type="line"/>
      <point x="270.0" y="1361.0" type="line"/>
      <point x="270.0" y="852.0" type="line"/>
      <point x="649.0" y="852.0" type="line" smooth="yes"/>
      <point x="898" y="852"/>
      <point x="1148.0" y="617.0"/>
      <point x="1148.0" y="429.0" type="qcurve" smooth="yes"/>
      <point x="1148.0" y="239.0"/>
      <point x="898.0" y="0.0"/>
      <point x="649.0" y="0.0" type="qcurve" smooth="yes"/>
    </contour>
    <contour>
      <point x="270.0" y="757.0" type="line"/>
      <point x="270.0" y="95.0" type="line"/>
      <point x="649.0" y="95.0" type="line" smooth="yes"/>
      <point x="865" y="95"/>
      <point x="1046.0" y="289.0"/>
      <point x="1046.0" y="429.0" type="qcurve" smooth="yes"/>
      <point x="1046.0" y="568.0"/>
      <point x="865.0" y="757.0"/>
      <point x="649.0" y="757.0" type="qcurve" smooth="yes"/>
    </contour>
  </outline>
</glyph>
<glyph name="Pe" format="2">
  <advance width="1468"/>
  <unicode hex="041F"/>
  <outline>
    <contour>
      <point x="170.0" y="0.0" type="line"/>
      <point x="170.0" y="1456.0" type="line"/>
      <point x="1298.0" y="1456.0" type="line"/>
      <point x="1298.0" y="0.0" type="line"/>
      <point x="1198.0" y="0.0" type="line"/>
      <point x="1198.0" y="1361.0" type="line"/>
      <point x="270.0" y="1361.0" type="line"/>
      <point x="270.0" y="0.0" type="line"/>
    </contour>
  </outline>
</glyph>
<glyph name="Ucyr" format="2">
  <advance width="1279"/>
  <unicode hex="0423"/>
  <outline>
    <contour>
      <point x="167" y="85" type="line"/>
      <point x="189" y="76"/>
      <point x="240" y="65"/>
      <point x="282" y="65" type="qcurve" smooth="yes"/>
      <point x="359" y="65"/>
      <point x="498" y="212"/>
      <point x="594" y="395" type="qcurve"/>
      <point x="597" y="352" type="line"/>
      <point x="15" y="1456" type="line"/>
      <point x="127" y="1456" type="line"/>
      <point x="580" y="593" type="line" smooth="yes"/>
      <point x="595" y="564"/>
      <point x="624" y="500"/>
      <point x="635" y="469" type="qcurve"/>
      <point x="644" y="469" type="line"/>
      <point x="657" y="500"/>
      <point x="685" y="564"/>
      <point x="700" y="593" type="qcurve" smooth="yes"/>
      <point x="1154" y="1456" type="line"/>
      <point x="1264" y="1456" type="line"/>
      <point x="686" y="370" type="line" smooth="yes"/>
      <point x="572" y="156"/>
      <point x="406" y="-30"/>
      <point x="282" y="-30" type="qcurve" smooth="yes"/>
      <point x="244" y="-30"/>
      <point x="191" y="-19"/>
      <point x="167" y="-9" type="qcurve"/>
    </contour>
  </outline>
</glyph>
<glyph name="Tse" format="2">
  <advance width="1525"/>
  <unicode hex="0426"/>
  <outline>
    <contour>
      <point x="1407.0" y="-290.0" type="line"/>
      <point x="1407.0" y="0.0" type="line"/>
      <point x="170.0" y="0.0" type="line"/>
      <point x="170.0" y="1456.0" type="line"/>
      <point x="270.0" y="1456.0" type="line"/>
      <point x="270.0" y="95.0" type="line"/>
      <point x="1198.0" y="95.0" type="line"/>
      <point x="1198.0" y="1456.0" type="line"/>
      <point x="1298.0" y="1456.0" type="line"/>
      <point x="1298.0" y="95.0" type="line"/>
      <point x="1505.0" y="95.0" type="line"/>
      <point x="1505.0" y="-290.0" type="line"/>
    </contour>
  </outline>
</glyph>
<glyph name="Sha" format="2">
  <advance width="2187"/>
  <unicode hex="0428"/>
  <outline>
    <contour>
      <point x="170.0" y="1456.0" type="line"/>
      <point x="270.0" y="1456.0" type="line"/>
      <point x="270.0" y="95.0" type="line"/>
      <point x="1043.0" y="95.0" type="line"/>
      <point x="1043.0" y="1456.0" type="line"/>
      <point x="1143.0" y="1456.0" type="line"/>
      <point x="1143.0" y="95.0" type="line"/>
      <point x="1917.0" y="95.0" type="line"/>
      <point x="1917.0" y="1456.0" type="line"/>
      <point x="2017.0" y="1456.0" type="line"/>
      <point x="2017.0" y="0.0" type="line"/>
      <point x="170.0" y="0.0" type="line"/>
    </contour>
  </outline>
</glyph>
<glyph name="Shcha" format="2">
  <advance width="2244"/>
  <unicode hex="0429"/>
  <outline>
    <contour>
      <point x="170.0" y="1456.0" type="line"/>
      <point x="270.0" y="1456.0" type="line"/>
      <point x="270.0" y="95.0" type="line"/>
      <point x="1043.0" y="95.0" type="line"/>
      <point x="1043.0" y="1456.0" type="line"/>
      <point x="1143.0" y="1456.0" type="line"/>
      <point x="1143.0" y="95.0" type="line"/>
      <point x="1917.0" y="95.0" type="line"/>
      <point x="1917.0" y="1456.0" type="line"/>
      <point x="2017.0" y="1456.0" type="line"/>
      <point x="2017.0" y="95.0" type="line"/>
      <point x="2224.0" y="95.0" type="line"/>
      <point x="2224.0" y="-290.0" type="line"/>
      <point x="2126.0" y="-290.0" type="line"/>
      <point x="2126.0" y="0.0" type="line"/>
      <point x="170.0" y="0.0" type="line"/>
    </contour>
  </outline>
</glyph>
<glyph name="Soft" format="2">
  <advance width="1197"/>
  <unicode hex="042C"/>
  <outline>
    <contour>
      <point x="170.0" y="1456.0" type="line"/>
      <point x="170.0" y="0.0" type="line"/>
      <point x="649.0" y="0.0" type="line" smooth="yes"/>
      <point x="898.0" y="0.0"/>
      <point x="1148.0" y="244.7880184332"/>
      <point x="1148.0" y="439.0" type="qcurve" smooth="yes"/>
      <point x="1148.0" y="631.0"/>
      <point x="898.0" y="877.0"/>
      <point x="649.0" y="877.0" type="qcurve" smooth="yes"/>
      <point x="270.0" y="877.0" type="line"/>
      <point x="270.0" y="1456.0" type="line"/>
    </contour>
    <contour>
      <point x="270.0" y="782.0" type="line"/>
      <point x="649.0" y="782.0" type="line" smooth="yes"/>
      <point x="865" y="782"/>
      <point x="1046.0" y="582"/>
      <point x="1046.0" y="439.0" type="qcurve" smooth="yes"/>
      <point x="1046.0" y="294"/>
      <point x="865" y="94"/>
      <point x="649.0" y="95.0" type="qcurve" smooth="yes"/>
      <point x="270.0" y="95.0" type="line"/>
    </contour>
  </outline>
</glyph>
<glyph name="Yu" format="2">
  <advance width="2013"/>
  <unicode hex="042E"/>
  <outline>
    <contour>
      <point x="170.0" y="0.0" type="line"/>
      <point x="170.0" y="1456.0" type="line"/>
      <point x="270.0" y="1456.0" type="line"/>
      <point x="270.0" y="798.0" type="line"/>
      <point x="695.0" y="798.0" type="line"/>
      <point x="695.0" y="703.0" type="line"/>
      <point x="270.0" y="703.0" type="line"/>
      <point x="270.0" y="0.0" type="line"/>
    </contour>
    <contour>
      <point x="640.0" y="702.0" type="qcurve" smooth="yes"/>
      <point x="640.0" y="754.0" type="line" smooth="yes"/>
      <point x="640.0" y="1100.0"/>
      <point x="992.0" y="1486.0"/>
      <point x="1270.0" y="1486.0" type="qcurve" smooth="yes"/>
      <point x="1547.0" y="1486.0"/>
      <point x="1898.0" y="1100.0"/>
      <point x="1898.0" y="754.0" type="qcurve" smooth="yes"/>
      <point x="1898.0" y="702.0" type="line" smooth="yes"/>
      <point x="1898.0" y="356.0"/>
      <point x="1547.0" y="-30.0"/>
      <point x="1270.0" y="-30.0" type="qcurve" smooth="yes"/>
      <point x="993.0" y="-30.0"/>
      <point x="640.0" y="356.0"/>
    </contour>
    <contour>
      <point x="742.0" y="702.0" type="line" smooth="yes"/>
      <point x="742" y="394"/>
      <point x="1037" y="65.0"/>
      <point x="1270.0" y="65.0" type="qcurve" smooth="yes"/>
      <point x="1502.0" y="65.0"/>
      <point x="1796" y="394"/>
      <point x="1796.0" y="702.0" type="qcurve" smooth="yes"/>
      <point x="1796.0" y="754.0" type="line" smooth="yes"/>
      <point x="1796" y="1062"/>
      <point x="1502.0" y="1391.0"/>
      <point x="1270.0" y="1391.0" type="qcurve" smooth="yes"/>
      <point x="1037" y="1391.0"/>
      <point x="742" y="1062"/>
      <point x="742.0" y="754.0" type="qcurve" smooth="yes"/>
    </contour>
  </outline>
</glyph>
<glyph name="de" format="2">
  <advance width="1194"/>
  <unicode hex="0434"/>
  <outline>
    <contour>
      <point x="1062.0" y="-270.0" type="line"/>
      <point x="1062.0" y="0.0" type="line"/>
      <point x="107.0" y="0.0" type="line"/>
      <point x="107.0" y="-270.0" type="line"/>
      <point x="10.0" y="-270.0" type="line"/>
      <point x="10.0" y="95.0" type="line"/>
      <point x="1159.0" y="95.0" type="line"/>
      <point x="1159.0" y="-270.0" type="line"/>
    </contour>
    <contour>
      <point x="343.0" y="994.0" type="line"/>
      <point x="319.0" y="507.0" type="line" smooth="yes"/>
      <point x="310" y="330"/>
      <point x="270.0" y="124.0"/>
      <point x="234.0" y="71.0" type="qcurve"/>
      <point x="120.0" y="71.0" type="line"/>
      <point x="175.0" y="134.0"/>
      <point x="211.0" y="330.0"/>
      <point x="220.0" y="509.0" type="qcurve" smooth="yes"/>
      <point x="249.0" y="1089.0" type="line"/>
      <point x="1008.0" y="1089.0" type="line"/>
      <point x="1008.0" y="0.0" type="line"/>
      <point x="910.0" y="0.0" type="line"/>
      <point x="910.0" y="994.0" type="line"/>
    </contour>
  </outline>
</glyph>
<glyph name="em" format="2">
  <advance width="1495"/>
  <unicode hex="043C"/>
  <outline>
    <contour>
      <point x="148.0" y="0.0" type="line"/>
      <point x="148.0" y="1089.0" type="line"/>
      <point x="277.0" y="1089.0" type="line"/>
      <point x="692.0" y="218.0" type="line" smooth="yes"/>
      <point x="705" y="191"/>
      <point x="737.0" y="112.0"/>
      <point x="746.0" y="88.0" type="qcurve"/>
      <point x="754.0" y="88.0" type="line"/>
      <point x="762.0" y="112.0"/>
      <point x="790" y="189"/>
      <point x="804.0" y="218.0" type="qcurve" smooth="yes"/>
      <point x="1225.0" y="1089.0" type="line"/>
      <point x="1347.0" y="1089.0" type="line"/>
      <point x="1347.0" y="0.0" type="line"/>
      <point x="1249.0" y="0.0" type="line"/>
      <point x="1249.0" y="818.0" type="line" smooth="yes"/>
      <point x="1249" y="848"/>
      <point x="1253.0" y="925.0"/>
      <point x="1256.0" y="956.0" type="qcurve"/>
      <point x="1248.0" y="956.0" type="line"/>
      <point x="1239.0" y="925.0"/>
      <point x="1209" y="845"/>
      <point x="1196.0" y="818.0" type="qcurve" smooth="yes"/>
      <point x="800.0" y="0.0" type="line"/>
      <point x="690.0" y="0.0" type="line"/>
      <point x="299.0" y="817.0" type="line" smooth="yes"/>
      <point x="285" y="846"/>
      <point x="256.0" y="924.0"/>
      <point x="246.0" y="955.0" type="qcurve"/>
      <point x="238.0" y="955.0" type="line"/>
      <point x="241.0" y="924.0"/>
      <point x="246" y="847"/>
      <point x="246.0" y="817.0" type="qcurve" smooth="yes"/>
      <point x="246.0" y="0.0" type="line"/>
    </contour>
  </outline>
</glyph>
<glyph name="ef" format="2">
  <advance width="1425"/>
  <unicode hex="0444"/>
  <outline>
    <contour>
      <point x="185.0" y="529.0" type="line" smooth="yes"/>
      <point x="185" y="329"/>
      <point x="433.0" y="80.0"/>
      <point x="663.0" y="69.0" type="qcurve"/>
      <point x="663.0" y="1020.0" type="line"/>
      <point x="433.0" y="1009.0"/>
      <point x="185" y="761"/>
      <point x="185.0" y="561.0" type="qcurve" smooth="yes"/>
    </contour>
    <contour>
      <point x="1240.0" y="561.0" type="line" smooth="yes"/>
      <point x="1240" y="761"/>
      <point x="992.0" y="1009.0"/>
      <point x="762.0" y="1020.0" type="qcurve"/>
      <point x="762.0" y="69.0" type="line"/>
      <point x="992.0" y="80.0"/>
      <point x="1240" y="329"/>
      <point x="1240.0" y="529.0" type="qcurve" smooth="yes"/>
    </contour>
    <contour>
      <point x="663.0" y="-30.0" type="line"/>
      <point x="402.0" y="-19.0"/>
      <point x="85.0" y="283.0"/>
      <point x="85.0" y="529.0" type="qcurve" smooth="yes"/>
      <point x="85.0" y="561.0" type="line" smooth="yes"/>
      <point x="85.0" y="807.0"/>
      <point x="402.0" y="1108.0"/>
      <point x="663.0" y="1119.0" type="qcurve"/>
      <point x="663.0" y="1536.0" type="line"/>
      <point x="762.0" y="1536.0" type="line"/>
      <point x="762.0" y="1119.0" type="line"/>
      <point x="1023.0" y="1108.0"/>
      <point x="1340.0" y="807.0"/>
      <point x="1340.0" y="561.0" type="qcurve" smooth="yes"/>
      <point x="1340.0" y="529.0" type="line" smooth="yes"/>
      <point x="1340.0" y="283.0"/>
      <point x="1023.0" y="-19.0"/>
      <point x="762.0" y="-30.0" type="qcurve"/>
      <point x="762.0" y="-416.0" type="line"/>
      <point x="663.0" y="-416.0" type="line"/>
    </contour>
  </outline>
</glyph>
<glyph name="sha" format="2">
  <advance width="1725"/>
  <unicode hex="0448"/>
  <outline>
    <contour>
      <point x="148.0" y="0.0" type="line"/>
      <point x="148.0" y="1089.0" type="line"/>
      <point x="247.0" y="1089.0" type="line"/>
      <point x="247.0" y="95.0" type="line"/>
      <point x="813.0" y="95.0" type="line"/>
      <point x="813.0" y="1089.0" type="line"/>
      <point x="912.0" y="1089.0" type="line"/>
      <point x="912.0" y="95.0" type="line"/>
      <point x="1478.0" y="95.0" type="line"/>
      <point x="1478.0" y="1089.0" type="line"/>
      <point x="1577.0" y="1089.0" type="line"/>
      <point x="1577.0" y="0.0" type="line"/>
    </contour>
  </outline>
</glyph>
<glyph name="ecyr" format="2">
  <advance width="1094"/>
  <unicode hex="044D"/>
  <guideline x="180.0" y="548.0" angle="90.0" identifier="9ss4WcbEUf"/>
  <outline>
    <contour>
      <point x="1009.0" y="539.0" type="line" smooth="yes"/>
      <point x="1009.0" y="285.0"/>
      <point x="730.0" y="-30.0"/>
      <point x="488.0" y="-30.0" type="qcurve" smooth="yes"/>
      <point x="263.0" y="-30.0"/>
      <point x="35.0" y="194.9210526316"/>
      <point x="35.0" y="340.0" type="qcurve" smooth="yes"/>
      <point x="35.0" y="345.0" type="line"/>
      <point x="138.0" y="345.0" type="line"/>
      <point x="138.0" y="340.0" type="line" smooth="yes"/>
      <point x="138.0" y="232.9501779359"/>
      <point x="305.0" y="65.0"/>
      <point x="488.0" y="65.0" type="qcurve" smooth="yes"/>
      <point x="699.0" y="65.0"/>
      <point x="907" y="338"/>
      <point x="907.0" y="539.0" type="qcurve" smooth="yes"/>
      <point x="907.0" y="571.0" type="line" smooth="yes"/>
      <point x="907" y="755"/>
      <point x="699" y="1024.0"/>
      <point x="496.0" y="1024.0" type="qcurve" smooth="yes"/>
      <point x="327.0" y="1024.0"/>
      <point x="154.0" y="851.25"/>
      <point x="154.0" y="750.0" type="qcurve" smooth="yes"/>
      <point x="154.0" y="745.0" type="line"/>
      <point x="51.0" y="745.0" type="line"/>
      <point x="51.0" y="750.0" type="line" smooth="yes"/>
      <point x="51.0" y="894.0949868074"/>
      <point x="285.0" y="1119.0"/>
      <point x="496.0" y="1119.0" type="qcurve" smooth="yes"/>
      <point x="735.0" y="1119.0"/>
      <point x="1009.0" y="810.0"/>
      <point x="1009.0" y="571.0" type="qcurve" smooth="yes"/>
    </contour>
    <contour>
      <point x="955.0" y="600.0" type="line"/>
      <point x="955.0" y="505.0" type="line"/>
      <point x="371.0" y="505.0" type="line"/>
      <point x="371.0" y="600.0" type="line"/>
    </contour>
  </outline>
</glyph>
<glyph name="ya" format="2">
  <advance width="1105"/>
  <unicode hex="044F"/>
  <outline>
    <contour>
      <point x="200.0" y="0.0" type="line"/>
      <point x="80.0" y="0.0" type="line"/>
      <point x="390.0" y="454.0" type="line"/>
      <point x="497.0" y="437.0" type="line"/>
    </contour>
    <contour>
      <point x="858.0" y="0.0" type="line"/>
      <point x="858.0" y="420.0" type="line"/>
      <point x="482.0" y="420.0" type="line"/>
      <point x="455.0" y="424.0" type="line"/>
      <point x="277.0" y="435.0"/>
      <point x="100.0" y="604.0"/>
      <point x="100.0" y="751.0" type="qcurve" smooth="yes"/>
      <point x="100.0" y="908.0"/>
      <point x="303.0" y="1089.0"/>
      <point x="502.0" y="1089.0" type="qcurve" smooth="yes"/>
      <point x="957.0" y="1089.0" type="line"/>
      <point x="957.0" y="0.0" type="line"/>
    </contour>
    <contour>
      <point x="502.0" y="515.0" type="qcurve" smooth="yes"/>
      <point x="858.0" y="515.0" type="line"/>
      <point x="858.0" y="994.0" type="line"/>
      <point x="502.0" y="994.0" type="line" smooth="yes"/>
      <point x="340" y="994"/>
      <point x="202.0" y="855.0"/>
      <point x="202.0" y="751.0" type="qcurve" smooth="yes"/>
      <point x="202.0" y="647.0"/>
      <point x="340.0" y="515.0"/>
    </contour>
  </outline>
</glyph>
<glyph name="yi" format="2">
  <advance width="420"/>
  <unicode hex="0457"/>
  <outline>
    <contour>
      <point x="42.0" y="1425.0" type="qcurve" smooth="yes"/>
      <point x="42.0" y="1459.0"/>
      <point x="75.0" y="1505.0"/>
      <point x="105.0" y="1505.0" type="qcurve" smooth="yes"/>
      <point x="135.0" y="1505.0"/>
      <point x="168.0" y="1459.0"/>
      <point x="168.0" y="1425.0" type="qcurve" smooth="yes"/>
      <point x="168.0" y="1391.0"/>
      <point x="135.0" y="1346.0"/>
      <point x="106.0" y="1346.0" type="qcurve" smooth="yes"/>
      <point x="76.0" y="1346.0"/>
      <point x="42.0" y="1391.0"/>
    </contour>
    <contour>
      <point x="161.0" y="1089.0" type="line"/>
      <point x="260.0" y="1089.0" type="line"/>
      <point x="260.0" y="0.0" type="line"/>
      <point x="161.0" y="0.0" type="line"/>
    </contour>
    <contour>
      <point x="252.0" y="1425.0" type="qcurve" smooth="yes"/>
      <point x="252.0" y="1459.0"/>
      <point x="285.0" y="1505.0"/>
      <point x="315.0" y="1505.0" type="qcurve" smooth="yes"/>
      <point x="345.0" y="1505.0"/>
      <point x="378.0" y="1459.0"/>
      <point x="378.0" y="1425.0" type="qcurve" smooth="yes"/>
      <point x="378.0" y="1391.0"/>
      <point x="345.0" y="1346.0"/>
      <point x="316.0" y="1346.0" type="qcurve" smooth="yes"/>
      <point x="286.0" y="1346.0"/>
      <point x="252.0" y="1391.0"/>
    </contour>
  </outline>
</glyph>
<glyph name="lje" format="2">
  <advance width="1799"/>
  <unicode hex="0459"/>
  <outline>
    <contour>
      <point x="961.0" y="1089.0" type="line"/>
      <point x="961.0" y="692.0" type="line"/>
      <point x="1317.0" y="692.0" type="line" smooth="yes"/>
      <point x="1516" y="692"/>
      <point x="1719.0" y="510.0"/>
      <point x="1719.0" y="348.0" type="qcurve" smooth="yes"/>
      <point x="1719.0" y="186.0"/>
      <point x="1516.0" y="0.0"/>
      <point x="1317.0" y="0.0" type="qcurve" smooth="yes"/>
      <point x="862.0" y="0.0" type="line"/>
      <point x="862.0" y="994.0" type="line"/>
      <point x="354.0" y="994.0" type="line"/>
      <point x="328.0" y="428.0" type="line" smooth="yes"/>
      <point x="317" y="187"/>
      <point x="220.0" y="-30.0"/>
      <point x="96.0" y="-30.0" type="qcurve" smooth="yes"/>
      <point x="68.0" y="-30.0"/>
      <point x="28.0" y="-21.0"/>
      <point x="10.0" y="-12.0" type="qcurve"/>
      <point x="10.0" y="80.0" type="line"/>
      <point x="28.0" y="73.0"/>
      <point x="60.0" y="65.0"/>
      <point x="87.0" y="65.0" type="qcurve" smooth="yes"/>
      <point x="165.0" y="65.0"/>
      <point x="222.0" y="268.0"/>
      <point x="230.0" y="438.0" type="qcurve" smooth="yes"/>
      <point x="260.0" y="1089.0" type="line"/>
    </contour>
    <contour>
      <point x="1317.0" y="597.0" type="qcurve" smooth="yes"/>
      <point x="961.0" y="597.0" type="line"/>
      <point x="961.0" y="98.0" type="line"/>
      <point x="1317.0" y="98.0" type="line" smooth="yes"/>
      <point x="1479" y="98"/>
      <point x="1619.0" y="240.0"/>
      <point x="1619.0" y="348.0" type="qcurve" smooth="yes"/>
      <point x="1619.0" y="456.0"/>
      <point x="1479" y="597"/>
    </contour>
  </outline>
</glyph>
<glyph name="nje" format="2">
  <advance width="1814"/>
  <unicode hex="045A"/>
  <outline>
    <contour>
      <point x="148.0" y="1089.0" type="line"/>
      <point x="247.0" y="1089.0" type="line"/>
      <point x="247.0" y="650.0" type="line"/>
      <point x="885.0" y="650.0" type="line"/>
      <point x="885.0" y="1089.0" type="line"/>
      <point x="984.0" y="1089.0" type="line"/>
      <point x="984.0" y="650.0" type="line"/>
      <point x="1332.0" y="650.0" type="line" smooth="yes"/>
      <point x="1531.0" y="650.0"/>
      <point x="1734.0" y="480.0"/>
      <point x="1734.0" y="327.0" type="qcurve" smooth="yes"/>
      <point x="1734.0" y="175.0"/>
      <point x="1531.0" y="0.0"/>
      <point x="1332.0" y="0.0" type="qcurve" smooth="yes"/>
      <point x="885.0" y="0.0" type="line"/>
      <point x="885.0" y="555.0" type="line"/>
      <point x="247.0" y="555.0" type="line"/>
      <point x="247.0" y="0.0" type="line"/>
      <point x="148.0" y="0.0" type="line"/>
    </contour>
    <contour>
      <point x="1332.0" y="555.0" type="qcurve" smooth="yes"/>
      <point x="984.0" y="555.0" type="line"/>
      <point x="984.0" y="95.0" type="line"/>
      <point x="1332.0" y="95.0" type="line" smooth="yes"/>
      <point x="1494" y="95"/>
      <point x="1634.0" y="228.0"/>
      <point x="1634.0" y="327.0" type="qcurve" smooth="yes"/>
      <point x="1634.0" y="426.0"/>
      <point x="1494" y="555"/>
    </contour>
  </outline>
</glyph>
<glyph name="Zhedescender" format="2">
  <advance width="1907"/>
  <unicode hex="0496"/>
  <outline>
    <contour>
      <point x="886.0" y="0.0" type="line"/>
      <point x="886.0" y="1456.0" type="line"/>
      <point x="986.0" y="1456.0" type="line"/>
      <point x="986.0" y="0.0" type="line"/>
    </contour>
    <contour>
      <point x="1758.0" y="0.0" type="line"/>
      <point x="1163.0" y="745.0" type="line"/>
      <point x="1263.0" y="772.0" type="line"/>
      <point x="1882.0" y="0.0" type="line"/>
    </contour>
    <contour>
      <point x="113.0" y="0.0" type="line"/>
      <point x="-10.0" y="0.0" type="line"/>
      <point x="614.0" y="772.0" type="line"/>
      <point x="713.0" y="745.0" type="line"/>
    </contour>
    <contour>
      <point x="937.0" y="801.0" type="line"/>
      <point x="937.0" y="706.0" type="line"/>
      <point x="638.0" y="706.0" type="line"/>
      <point x="53.0" y="1456.0" type="line"/>
      <point x="174.0" y="1456.0" type="line"/>
      <point x="679.0" y="801.0" type="line"/>
    </contour>
    <contour>
      <point x="937.0" y="801.0" type="line"/>
      <point x="1194.0" y="801.0" type="line"/>
      <point x="1694.0" y="1456.0" type="line"/>
      <point x="1815.0" y="1456.0" type="line"/>
      <point x="1235.0" y="706.0" type="line"/>
      <point x="937.0" y="706.0" type="line"/>
    </contour>
    <contour>
      <point x="1758.0" y="0.0" type="line"/>
      <point x="1758.0" y="100.0" type="line"/>
      <point x="1967.0" y="100.0" type="line"/>
      <point x="1967.0" y="-290.0" type="line"/>
      <point x="1869.0" y="-290.0" type="line"/>
      <point x="1869.0" y="0.0" type="line"/>
    </contour>
  </outline>
</glyph>
<glyph name="Kaverticalstrokecyr" format="2">
  <advance width="1455"/>
  <unicode hex="049C"/>
  <outline>
    <contour>
      <point x="170.0" y="0.0" type="line"/>
      <point x="170.0" y="1456.0" type="line"/>
      <point x="270.0" y="1456.0" type="line"/>
      <point x="270.0" y="0.0" type="line"/>
    </contour>
    <contour>
      <point x="1330.0" y="0.0" type="line"/>
      <point x="776.0" y="745.0" type="line"/>
      <point x="890.0" y="772.0" type="line"/>
      <point x="1465.0" y="0.0" type="line"/>
    </contour>
    <contour>
      <point x="589.0" y="801.0" type="line"/>
      <point x="810.0" y="801.0" type="line"/>
      <point x="1275.0" y="1456.0" type="line"/>
      <point x="1395.0" y="1456.0" type="line"/>
      <point x="858.0" y="701.0" type="line"/>
      <point x="589.0" y="701.0" type="line"/>
    </contour>
    <contour>
      <point x="539.0" y="300.0" type="line"/>
      <point x="539.0" y="1156.0" type="line"/>
      <point x="639.0" y="1156.0" type="line"/>
      <point x="639.0" y="300.0" type="line"/>
    </contour>
  </outline>
</glyph>
<glyph name="kabashkircyr" format="2">
  <advance width="1277"/>
  <unicode hex="04A1"/>
  <outline>
    <contour>
      <point x="1152.0" y="0.0" type="line"/>
      <point x="709.0" y="515.0" type="line"/>
      <point x="782.0" y="580.0" type="line"/>
      <point x="1282.0" y="0.0" type="line"/>
    </contour>
    <contour>
      <point x="463.0" y="597.0" type="line"/>
      <point x="721.0" y="597.0" type="line"/>
      <point x="1127.0" y="1089.0" type="line"/>
      <point x="1248.0" y="1089.0" type="line"/>
      <point x="759.0" y="502.0" type="line"/>
      <point x="463.0" y="502.0" type="line"/>
    </contour>
    <contour>
      <point x="510.0" y="1089.0" type="line"/>
      <point x="510.0" y="0.0" type="line"/>
      <point x="410.0" y="0.0" type="line"/>
      <point x="410.0" y="994.0" type="line"/>
      <point x="50.0" y="994.0" type="line"/>
      <point x="50.0" y="1089.0" type="line"/>
    </contour>
  </outline>
</glyph>
<glyph name="Endescender" format="2">
  <advance width="1535"/>
  <unicode hex="04A2"/>
  <outline>
    <contour>
      <point x="170.0" y="0.0" type="line"/>
      <point x="170.0" y="1456.0" type="line"/>
      <point x="270.0" y="1456.0" type="line"/>
      <point x="270.0" y="799.0" type="line"/>
      <point x="1200.0" y="799.0" type="line"/>
      <point x="1200.0" y="1456.0" type="line"/>
      <point x="1300.0" y="1456.0" type="line"/>
      <point x="1300.0" y="100.0" type="line"/>
      <point x="1507.0" y="100.0" type="line"/>
      <point x="1507.0" y="-290.0" type="line"/>
      <point x="1409.0" y="-290.0" type="line"/>
      <point x="1409.0" y="0.0" type="line"/>
      <point x="1200.0" y="0.0" type="line"/>
      <point x="1200.0" y="703.0" type="line"/>
      <point x="270.0" y="703.0" type="line"/>
      <point x="270.0" y="0.0" type="line"/>
    </contour>
  </outline>
</glyph>
<glyph name="endescender" format="2">
  <advance width="1220"/>
  <unicode hex="04A3"/>
  <outline>
    <contour>
      <point x="1088.0" y="-270.0" type="line"/>
      <point x="1088.0" y="0.0" type="line"/>
      <point x="935.0" y="0.0" type="line"/>
      <point x="935.0" y="504.0" type="line"/>
      <point x="247.0" y="504.0" type="line"/>
      <point x="247.0" y="0.0" type="line"/>
      <point x="148.0" y="0.0" type="line"/>
      <point x="148.0" y="1089.0" type="line"/>
      <point x="247.0" y="1089.0" type="line"/>
      <point x="247.0" y="599.0" type="line"/>
      <point x="935.0" y="599.0" type="line"/>
      <point x="935.0" y="1089.0" type="line"/>
      <point x="1034.0" y="1089.0" type="line"/>
      <point x="1034.0" y="95.0" type="line"/>
      <point x="1185.0" y="95.0" type="line"/>
      <point x="1185.0" y="-270.0" type="line"/>
    </contour>
  </outline>
</glyph>
<glyph name="Tedescender-cy" format="2">
  <advance width="1218"/>
  <unicode hex="04AC"/>
  <outline>
    <contour>
      <point x="773.0" y="-290.0" type="line"/>
      <point x="773.0" y="0.0" type="line"/>
      <point x="560.0" y="0.0" type="line"/>
      <point x="560.0" y="1361.0" type="line"/>
      <point x="24.0" y="1361.0" type="line"/>
      <point x="24.0" y="1456.0" type="line"/>
      <point x="1194.0" y="1456.0" type="line"/>
      <point x="1194.0" y="1361.0" type="line"/>
      <point x="660.0" y="1361.0" type="line"/>
      <point x="660.0" y="95.0" type="line"/>
      <point x="871.0" y="95.0" type="line"/>
      <point x="871.0" y="-290.0" type="line"/>
    </contour>
  </outline>
</glyph>
<glyph name="Ustraightstroke" format="2">
  <advance width="1099"/>
  <unicode hex="04B0"/>
  <outline>
    <contour>
      <point x="166.0" y="572.0" type="line"/>
      <point x="935.0" y="572.0" type="line"/>
      <point x="935.0" y="477.0" type="line"/>
      <point x="166.0" y="477.0" type="line"/>
    </contour>
    <contour>
      <point x="499" y="0" type="line"/>
      <point x="499" y="574" type="line"/>
      <point x="15" y="1456" type="line"/>
      <point x="129" y="1456" type="line"/>
      <point x="483" y="806" type="line" smooth="yes"/>
      <point x="499" y="776"/>
      <point x="530" y="716"/>
      <point x="545" y="684" type="qcurve"/>
      <point x="555" y="684" type="line"/>
      <point x="571" y="716"/>
      <point x="603" y="776"/>
      <point x="619" y="806" type="qcurve" smooth="yes"/>
      <point x="977" y="1456" type="line"/>
      <point x="1084" y="1456" type="line"/>
      <point x="598" y="574" type="line"/>
      <point x="598" y="0" type="line"/>
    </contour>
  </outline>
</glyph>
<glyph name="Hadescender" format="2">
  <advance width="1368"/>
  <unicode hex="04B2"/>
  <outline>
    <contour>
      <point x="1227.0" y="100.0" type="line"/>
      <point x="1428.0" y="100.0" type="line"/>
      <point x="1428.0" y="-290.0" type="line"/>
      <point x="1330.0" y="-290.0" type="line"/>
      <point x="1330.0" y="0.0" type="line"/>
      <point x="1227.0" y="0.0" type="line"/>
    </contour>
    <contour>
      <point x="25.0" y="0.0" type="line"/>
      <point x="645.0" y="777.0" type="line"/>
      <point x="661.0" y="777.0" type="line"/>
      <point x="1188.0" y="1456.0" type="line"/>
      <point x="1302.0" y="1456.0" type="line"/>
      <point x="713.0" y="699.0" type="line"/>
      <point x="696.0" y="699.0" type="line"/>
      <point x="139.0" y="0.0" type="line"/>
    </contour>
    <contour>
      <point x="77.0" y="1456.0" type="line"/>
      <point x="194.0" y="1456.0" type="line"/>
      <point x="721.0" y="777.0" type="line"/>
      <point x="727.0" y="777.0" type="line"/>
      <point x="1345.0" y="0.0" type="line"/>
      <point x="1227.0" y="0.0" type="line"/>
      <point x="672.0" y="699.0" type="line"/>
      <point x="666.0" y="699.0" type="line"/>
    </contour>
  </outline>
</glyph>
<glyph name="Chedescender-cy" format="2">
  <advance width="1463"/>
  <unicode hex="04B6"/>
  <outline>
    <contour>
      <point x="250.0" y="1055.0" type="line" smooth="yes"/>
      <point x="250" y="820"/>
      <point x="488.0" y="658.0"/>
      <point x="700.0" y="658.0" type="qcurve" smooth="yes"/>
      <point x="843.0" y="658.0"/>
      <point x="1075.0" y="688.0"/>
      <point x="1181.0" y="717.0" type="qcurve"/>
      <point x="1181.0" y="623.0" type="line"/>
      <point x="1073.0" y="595.0"/>
      <point x="855.0" y="563.0"/>
      <point x="700.0" y="563.0" type="qcurve" smooth="yes"/>
      <point x="425.0" y="563.0"/>
      <point x="150.0" y="770.0"/>
      <point x="150.0" y="1055.0" type="qcurve" smooth="yes"/>
      <point x="150.0" y="1456.0" type="line"/>
      <point x="250.0" y="1456.0" type="line"/>
    </contour>
    <contour>
      <point x="1345.0" y="-290.0" type="line"/>
      <point x="1345.0" y="0.0" type="line"/>
      <point x="1136.0" y="0.0" type="line"/>
      <point x="1136.0" y="1456.0" type="line"/>
      <point x="1236.0" y="1456.0" type="line"/>
      <point x="1236.0" y="95.0" type="line"/>
      <point x="1443.0" y="95.0" type="line"/>
      <point x="1443.0" y="-290.0" type="line"/>
    </contour>
  </outline>
</glyph>
<glyph name="Schwacyr" format="2">
  <advance width="1435"/>
  <unicode hex="04D8"/>
  <guideline x="1118.0" y="1316.0" angle="90.0" identifier="VFmslpHHWY"/>
  <guideline x="-344.0" y="724.0" angle="90.0" identifier="xUBAC48rkv"/>
  <outline>
    <contour>
      <point x="170.0" y="731.0" type="line"/>
      <point x="1265.0" y="731.0" type="line"/>
      <point x="1265.0" y="631.0" type="line"/>
      <point x="170.0" y="631.0" type="line"/>
    </contour>
    <contour>
      <point x="1218.0" y="754.0" type="line" smooth="yes"/>
      <point x="1218" y="1066"/>
      <point x="933.0" y="1391.0"/>
      <point x="708.0" y="1391.0" type="qcurve" smooth="yes"/>
      <point x="491" y="1391.0"/>
      <point x="257.0" y="1168"/>
      <point x="257.0" y="1023.0" type="qcurve" smooth="yes"/>
      <point x="257.0" y="1008.0" type="line"/>
      <point x="155.0" y="1008.0" type="line"/>
      <point x="155.0" y="1023.0" type="line" smooth="yes"/>
      <point x="155.0" y="1227.7884615385"/>
      <point x="450.6733576642" y="1486.0"/>
      <point x="708.0" y="1486.0" type="qcurve" smooth="yes"/>
      <point x="978.0" y="1486.0"/>
      <point x="1320.0" y="1110.0"/>
      <point x="1320.0" y="754.0" type="qcurve" smooth="yes"/>
      <point x="1320.0" y="702.0" type="line" smooth="yes"/>
      <point x="1320.0" y="355.0"/>
      <point x="984.0" y="-30.0"/>
      <point x="718.0" y="-30.0" type="qcurve" smooth="yes"/>
      <point x="452.0" y="-30.0"/>
      <point x="115.0" y="355.0"/>
      <point x="115.0" y="702.0" type="qcurve" smooth="yes"/>
      <point x="115.0" y="731.0" type="line"/>
      <point x="217.0" y="731.0" type="line"/>
      <point x="217.0" y="702.0" type="line" smooth="yes"/>
      <point x="217" y="395"/>
      <point x="496.0" y="65.0"/>
      <point x="718.0" y="65.0" type="qcurve" smooth="yes"/>
      <point x="940.0" y="65.0"/>
      <point x="1218" y="395"/>
      <point x="1218.0" y="702.0" type="qcurve" smooth="yes"/>
    </contour>
  </outline>
</glyph>
<glyph name="hastroke-cy" format="2">
  <advance width="965"/>
  <unicode hex="04FF"/>
  <outline>
    <contour>
      <point x="138.0" y="505.0" type="line"/>
      <point x="138.0" y="600.0" type="line"/>
      <point x="835.0" y="600.0" type="line"/>
      <point x="835.0" y="505.0" type="line"/>
    </contour>
    <contour>
      <point x="20" y="0" type="line"/>
      <point x="431" y="579" type="line"/>
      <point x="453" y="579" type="line"/>
      <point x="818" y="1089" type="line"/>
      <point x="927" y="1089" type="line"/>
      <point x="523" y="526" type="line"/>
      <point x="501" y="526" type="line"/>
      <point x="128" y="0" type="line"/>
    </contour>
    <contour>
      <point x="43" y="1089" type="line"/>
      <point x="166" y="1089" type="line"/>
      <point x="524" y="579" type="line"/>
      <point x="541" y="579" type="line"/>
      <point x="953" y="0" type="line"/>
      <point x="831" y="0" type="line"/>
      <point x="463" y="526" type="line"/>
      <point x="448" y="526" type="line"/>
    </contour>
  </outline>
</glyph>
<glyph name="quoteright" format="2">
  <advance width="410"/>
  <unicode hex="2019"/>
  <outline>
    <contour>
      <point x="276.0" y="1458.0" type="line"/>
      <point x="276.0" y="1312.0" type="line" smooth="yes"/>
      <point x="276.0" y="1230.0"/>
      <point x="192.0" y="1058.0"/>
      <point x="127.0" y="1006.0" type="qcurve"/>
      <point x="75.0" y="1043.0" type="line"/>
      <point x="123.0" y="1101.0"/>
      <point x="185.0" y="1252.0"/>
      <point x="185.0" y="1311.0" type="qcurve" smooth="yes"/>
      <point x="185.0" y="1458.0" type="line"/>
    </contour>
  </outline>
</glyph>
<glyph name="quotesinglbase" format="2">
  <advance width="410"/>
  <unicode hex="201A"/>
  <outline>
    <contour>
      <point x="276.0" y="220.0" type="line"/>
      <point x="276.0" y="74.0" type="line" smooth="yes"/>
      <point x="276.0" y="-8.0"/>
      <point x="192.0" y="-180.0"/>
      <point x="127.0" y="-232.0" type="qcurve"/>
      <point x="75.0" y="-195.0" type="line"/>
      <point x="123.0" y="-137.0"/>
      <point x="185.0" y="14.0"/>
      <point x="185.0" y="73.0" type="qcurve" smooth="yes"/>
      <point x="185.0" y="220.0" type="line"/>
    </contour>
  </outline>
</glyph>
<glyph name="daggerdbl" format="2">
  <advance width="1008"/>
  <unicode hex="2021"/>
  <outline>
    <contour>
      <point x="117.0" y="64.0" type="line"/>
      <point x="117.0" y="164.0" type="line"/>
      <point x="468.0" y="164.0" type="line"/>
      <point x="448.0" y="534.0" type="line"/>
      <point x="463.0" y="882.0" type="line"/>
      <point x="117.0" y="882.0" type="line"/>
      <point x="117.0" y="982.0" type="line"/>
      <point x="459.0" y="982.0" type="line"/>
      <point x="446.0" y="1508.0" type="line"/>
      <point x="557.0" y="1508.0" type="line"/>
      <point x="544.0" y="982.0" type="line"/>
      <point x="886.0" y="982.0" type="line"/>
      <point x="886.0" y="882.0" type="line"/>
      <point x="540.0" y="882.0" type="line"/>
      <point x="555.0" y="534.0" type="line"/>
      <point x="535.0" y="164.0" type="line"/>
      <point x="886.0" y="164.0" type="line"/>
      <point x="886.0" y="64.0" type="line"/>
      <point x="539.0" y="64.0" type="line"/>
      <point x="552.0" y="-452.0" type="line"/>
      <point x="451.0" y="-452.0" type="line"/>
      <point x="464.0" y="64.0" type="line"/>
    </contour>
  </outline>
</glyph>
<glyph name="bullet" format="2">
  <advance width="644"/>
  <unicode hex="2022"/>
  <outline>
    <contour>
      <point x="223.0" y="773.0" type="qcurve" smooth="yes"/>
      <point x="223.0" y="853.0"/>
      <point x="279.0" y="943.0"/>
      <point x="322.0" y="943.0" type="qcurve" smooth="yes"/>
      <point x="366.0" y="943.0"/>
      <point x="421.0" y="853.0"/>
      <point x="421.0" y="773.0" type="qcurve" smooth="yes"/>
      <point x="421.0" y="694.0"/>
      <point x="366.0" y="605.0"/>
      <point x="322.0" y="605.0" type="qcurve" smooth="yes"/>
      <point x="279.0" y="605.0"/>
      <point x="223.0" y="694.0"/>
    </contour>
  </outline>
</glyph>
<glyph name="foursuperior" format="2">
  <advance width="701"/>
  <unicode hex="2074"/>
  <outline>
    <contour>
      <point x="39.0" y="880.0" type="line"/>
      <point x="32.0" y="947.0" type="line"/>
      <point x="369.0" y="1496.0" type="line"/>
      <point x="463.0" y="1496.0" type="line"/>
      <point x="329.0" y="1260.0" type="line"/>
      <point x="155.0" y="975.0" type="line"/>
      <point x="580.0" y="975.0" type="line"/>
      <point x="580.0" y="880.0" type="line"/>
    </contour>
    <contour>
      <point x="472.0" y="1496.0" type="line"/>
      <point x="472.0" y="697.0" type="line"/>
      <point x="372.0" y="697.0" type="line"/>
      <point x="372.0" y="1496.0" type="line"/>
    </contour>
  </outline>
</glyph>
<glyph name="coloncurrency" format="2">
  <advance width="895"/>
  <unicode hex="20A1"/>
  <guideline x="0" y="1570.0" angle="0" identifier="0DwZ2nfhdf"/>
  <outline>
    <contour>
      <point x="732.0" y="1570.0" type="line"/>
      <point x="699.0" y="1366.0" type="line"/>
      <point x="696.0" y="1343.0" type="line"/>
      <point x="518.0" y="68.0" type="line"/>
      <point x="514.0" y="43.0" type="line"/>
      <point x="490.0" y="-125.0" type="line"/>
      <point x="400.0" y="-125.0" type="line"/>
      <point x="423.0" y="40.0" type="line"/>
      <point x="427.0" y="66.0" type="line"/>
      <point x="618.0" y="1403.0" type="line"/>
      <point x="621.0" y="1423.0" type="line"/>
      <point x="643.0" y="1570.0" type="line"/>
    </contour>
    <contour>
      <point x="510.0" y="1570.0" type="line"/>
      <point x="491.0" y="1437.0" type="line"/>
      <point x="488.0" y="1416.0" type="line"/>
      <point x="295.0" y="66.0" type="line"/>
      <point x="291.0" y="39.0" type="line"/>
      <point x="268.0" y="-125.0" type="line"/>
      <point x="178.0" y="-125.0" type="line"/>
      <point x="213.0" y="122.0" type="line"/>
      <point x="217.0" y="148.0" type="line"/>
      <point x="399.0" y="1418.0" type="line"/>
      <point x="402.0" y="1441.0" type="line"/>
      <point x="421.0" y="1570.0" type="line"/>
    </contour>
    <contour>
      <point x="85.0" y="612.0" type="qcurve" smooth="yes"/>
      <point x="85.0" y="844.0" type="line" smooth="yes"/>
      <point x="85.0" y="1183.0"/>
      <point x="269.0" y="1486.0"/>
      <point x="475.0" y="1486.0" type="qcurve" smooth="yes"/>
      <point x="665.0" y="1486.0"/>
      <point x="835.0" y="1275.0"/>
      <point x="835.0" y="1040.0" type="qcurve" smooth="yes"/>
      <point x="835.0" y="990.0" type="line"/>
      <point x="733.0" y="990.0" type="line"/>
      <point x="733.0" y="1041.0" type="line" smooth="yes"/>
      <point x="733.0" y="1223.0"/>
      <point x="611.0" y="1386.0"/>
      <point x="475.0" y="1386.0" type="qcurve" smooth="yes"/>
      <point x="323.0" y="1386.0"/>
      <point x="187.0" y="1130.0"/>
      <point x="187.0" y="844.0" type="qcurve" smooth="yes"/>
      <point x="187.0" y="592.0" type="line" smooth="yes"/>
      <point x="187.0" y="317.0"/>
      <point x="328.0" y="70.0"/>
      <point x="485.0" y="70.0" type="qcurve" smooth="yes"/>
      <point x="621.0" y="70.0"/>
      <point x="743.0" y="232.0"/>
      <point x="743.0" y="412.0" type="qcurve" smooth="yes"/>
      <point x="743.0" y="466.0" type="line"/>
      <point x="845.0" y="466.0" type="line"/>
      <point x="845.0" y="426.0" type="line" smooth="yes"/>
      <point x="845.0" y="186.0"/>
      <point x="675.0" y="-30.0"/>
      <point x="485.0" y="-30.0" type="qcurve" smooth="yes"/>
      <point x="274.0" y="-30.0"/>
      <point x="85.0" y="273.0"/>
    </contour>
  </outline>
</glyph>
<glyph name="franc" format="2">
  <advance width="998"/>
  <unicode hex="20A3"/>
  <outline>
    <contour>
      <point x="170.0" y="0.0" type="line"/>
      <point x="170.0" y="1456.0" type="line"/>
      <point x="939.0" y="1456.0" type="line"/>
      <point x="939.0" y="1360.0" type="line"/>
      <point x="271.0" y="1360.0" type="line"/>
      <point x="271.0" y="831.0" type="line"/>
      <point x="846.0" y="831.0" type="line"/>
      <point x="846.0" y="736.0" type="line"/>
      <point x="271.0" y="736.0" type="line"/>
      <point x="271.0" y="0.0" type="line"/>
    </contour>
    <contour>
      <point x="20.0" y="353.0" type="line"/>
      <point x="20.0" y="453.0" type="line"/>
      <point x="661.0" y="453.0" type="line"/>
      <point x="661.0" y="353.0" type="line"/>
    </contour>
  </outline>
</glyph>
<glyph name="naira" format="2">
  <advance width="1050"/>
  <unicode hex="20A6"/>
  <outline>
    <contour>
      <point x="80" y="857" type="line"/>
      <point x="80" y="950" type="line"/>
      <point x="253" y="950" type="line"/>
      <point x="253" y="950" type="line"/>
      <point x="778" y="950" type="line"/>
      <point x="778" y="950" type="line"/>
      <point x="970" y="952" type="line"/>
      <point x="970" y="859" type="line"/>
      <point x="778" y="857" type="line"/>
      <point x="778" y="857" type="line"/>
      <point x="253" y="857" type="line"/>
      <point x="253" y="857" type="line"/>
    </contour>
    <contour>
      <point x="80" y="553" type="line"/>
      <point x="80" y="653" type="line"/>
      <point x="253" y="653" type="line"/>
      <point x="253" y="648" type="line"/>
      <point x="778" y="648" type="line"/>
      <point x="778" y="648" type="line"/>
      <point x="970" y="650" type="line"/>
      <point x="970" y="555" type="line"/>
      <point x="778" y="553" type="line"/>
      <point x="778" y="553" type="line"/>
      <point x="253" y="553" type="line"/>
      <point x="253" y="553" type="line"/>
    </contour>
    <contour>
      <point x="857" y="1456" type="line"/>
      <point x="857" y="0" type="line"/>
      <point x="730" y="0" type="line"/>
      <point x="299" y="1252" type="line"/>
      <point x="277" y="1363" type="line"/>
      <point x="265" y="1363" type="line"/>
      <point x="278" y="1235" type="line"/>
      <point x="278" y="0" type="line"/>
      <point x="184" y="0" type="line"/>
      <point x="184" y="1456" type="line"/>
      <point x="314" y="1456" type="line"/>
      <point x="728" y="237" type="line"/>
      <point x="757" y="117" type="line"/>
      <point x="769" y="117" type="line"/>
      <point x="761" y="241" type="line"/>
      <point x="761" y="1456" type="line"/>
    </contour>
  </outline>
</glyph>
<glyph name="peseta" format="2">
  <advance width="1674"/>
  <unicode hex="20A7"/>
  <outline>
    <contour>
      <point x="571.0" y="591.0" type="qcurve"/>
      <point x="259.0" y="591.0" type="line"/>
      <point x="259.0" y="688.0" type="line"/>
      <point x="571.0" y="688.0" type="line"/>
      <point x="756.0" y="688.0"/>
      <point x="904.0" y="881.0"/>
      <point x="904.0" y="1023.0" type="qcurve"/>
      <point x="904.0" y="1167.0"/>
      <point x="756.0" y="1360.0"/>
      <point x="571.0" y="1360.0" type="qcurve"/>
      <point x="271.0" y="1360.0" type="line"/>
      <point x="271.0" y="0.0" type="line"/>
      <point x="170.0" y="0.0" type="line"/>
      <point x="170.0" y="1456.0" type="line"/>
      <point x="571.0" y="1456.0" type="line"/>
      <point x="790.0" y="1456.0"/>
      <point x="1006.0" y="1214.0"/>
      <point x="1006.0" y="1023.0" type="qcurve"/>
      <point x="1006.0" y="834.0"/>
      <point x="790.0" y="591.0"/>
    </contour>
    <contour>
      <point x="1624.0" y="1089.0" type="line"/>
      <point x="1624.0" y="995.0" type="line"/>
      <point x="952.0" y="995.0" type="line"/>
      <point x="952.0" y="1089.0" type="line"/>
    </contour>
    <contour>
      <point x="1256.0" y="1279.0" type="line"/>
      <point x="1355.0" y="1279.0" type="line"/>
      <point x="1355.0" y="275.0" type="line"/>
      <point x="1355.0" y="162.0"/>
      <point x="1422.0" y="65.0"/>
      <point x="1496.0" y="65.0" type="qcurve" smooth="yes"/>
      <point x="1523.0" y="65.0"/>
      <point x="1573.0" y="77.0"/>
      <point x="1597.0" y="86.0" type="qcurve"/>
      <point x="1597.0" y="-7.0" type="line"/>
      <point x="1576.0" y="-16.0"/>
      <point x="1513.0" y="-30.0"/>
      <point x="1473.0" y="-30.0" type="qcurve" smooth="yes"/>
      <point x="1374.0" y="-30.0"/>
      <point x="1256.0" y="117.0"/>
      <point x="1256.0" y="275.0" type="qcurve"/>
    </contour>
  </outline>
</glyph>
<glyph name="dong" format="2">
  <advance width="1094"/>
  <unicode hex="20AB"/>
  <outline>
    <contour>
      <point x="85.0" y="479.0" type="qcurve" smooth="yes"/>
      <point x="85.0" y="511.0" type="line" smooth="yes"/>
      <point x="85.0" y="770.0"/>
      <point x="291.0" y="1009.0"/>
      <point x="492.0" y="1009.0" type="qcurve" smooth="yes"/>
      <point x="615.0" y="1009.0"/>
      <point x="792.0" y="927.0"/>
      <point x="848.0" y="860.0" type="qcurve"/>
      <point x="848.0" y="1616.0" type="line"/>
      <point x="948.0" y="1616.0" type="line"/>
      <point x="948.0" y="0.0" type="line"/>
      <point x="854.0" y="0.0" type="line"/>
      <point x="851.0" y="142.0" type="line"/>
      <point x="852.0" y="142.0" type="line"/>
      <point x="804.0" y="75.0"/>
      <point x="615.0" y="-20.0"/>
      <point x="492.0" y="-20.0" type="qcurve" smooth="yes"/>
      <point x="291.0" y="-20.0"/>
      <point x="85.0" y="221.0"/>
    </contour>
    <contour>
      <point x="185.0" y="479.0" type="line" smooth="yes"/>
      <point x="185.0" y="270.0"/>
      <point x="325.0" y="77.0"/>
      <point x="526.0" y="77.0" type="qcurve" smooth="yes"/>
      <point x="645.0" y="77.0"/>
      <point x="811.0" y="186.0"/>
      <point x="848.0" y="257.0" type="qcurve"/>
      <point x="848.0" y="732.0" type="line"/>
      <point x="811.0" y="804.0"/>
      <point x="645.0" y="912.0"/>
      <point x="526.0" y="912.0" type="qcurve" smooth="yes"/>
      <point x="325.0" y="912.0"/>
      <point x="185.0" y="718.0"/>
      <point x="185.0" y="511.0" type="qcurve" smooth="yes"/>
    </contour>
    <contour>
      <point x="1021.0" y="1202.0" type="line"/>
      <point x="405.0" y="1202.0" type="line"/>
      <point x="405.0" y="1297.0" type="line"/>
      <point x="1021.0" y="1297.0" type="line"/>
    </contour>
    <contour>
      <point x="1001.0" y="-221.0" type="line"/>
      <point x="103.0" y="-221.0" type="line"/>
      <point x="103.0" y="-128.0" type="line"/>
      <point x="1001.0" y="-128.0" type="line"/>
    </contour>
  </outline>
</glyph>
<glyph name="uni20AD" format="2">
  <advance width="1148"/>
  <unicode hex="20AD"/>
  <outline>
    <contour>
      <point x="170" y="0" type="line"/>
      <point x="170" y="1456" type="line"/>
      <point x="270" y="1456" type="line"/>
      <point x="270" y="675" type="line"/>
      <point x="1031" y="1456" type="line"/>
      <point x="1154" y="1456" type="line"/>
      <point x="270" y="551" type="line"/>
      <point x="270" y="0" type="line"/>
    </contour>
    <contour>
      <point x="1047" y="0" type="line"/>
      <point x="450" y="768" type="line"/>
      <point x="513" y="839" type="line"/>
      <point x="1168" y="0" type="line"/>
    </contour>
    <contour>
      <point x="221.0" y="688.0" type="line"/>
      <point x="-9.0" y="688.0" type="line"/>
      <point x="-9.0" y="783.0" type="line"/>
      <point x="221.0" y="783.0" type="line"/>
    </contour>
    <contour>
      <point x="1051.0" y="783.0" type="line"/>
      <point x="1051.0" y="688.0" type="line"/>
      <point x="535.0" y="688.0" type="line"/>
      <point x="535.0" y="783.0" type="line"/>
    </contour>
  </outline>
</glyph>
<glyph name="uni20B1" format="2">
  <advance width="931"/>
  <unicode hex="20B1"/>
  <outline>
    <contour>
      <point x="344.0" y="442.0" type="qcurve" smooth="yes"/>
      <point x="137.0" y="442.0" type="line"/>
      <point x="137.0" y="537.0" type="line"/>
      <point x="342.0" y="537.0" type="line" smooth="yes"/>
      <point x="511.0" y="537.0"/>
      <point x="692.0" y="748.0"/>
      <point x="692.0" y="945.0" type="qcurve" smooth="yes"/>
      <point x="692.0" y="1146.0"/>
      <point x="511.0" y="1362.0"/>
      <point x="342.0" y="1361.0" type="qcurve" smooth="yes"/>
      <point x="199.0" y="1361.0" type="line"/>
      <point x="199.0" y="0.0" type="line"/>
      <point x="89.0" y="0.0" type="line"/>
      <point x="89.0" y="1456.0" type="line"/>
      <point x="345.0" y="1456.0" type="line" smooth="yes"/>
      <point x="561.0" y="1456.0"/>
      <point x="794.0" y="1196.0"/>
      <point x="794.0" y="955.0" type="qcurve" smooth="yes"/>
      <point x="794.0" y="709.0"/>
      <point x="561.0" y="443.0"/>
    </contour>
    <contour>
      <point x="-1.0" y="1005.0" type="line"/>
      <point x="-1.0" y="1092.0" type="line"/>
      <point x="122.0" y="1092.0" type="line"/>
      <point x="122.0" y="1092.0" type="line"/>
      <point x="747.0" y="1092.0" type="line"/>
      <point x="747.0" y="1092.0" type="line"/>
      <point x="919.0" y="1094.0" type="line"/>
      <point x="919.0" y="1007.0" type="line"/>
      <point x="767.0" y="1005.0" type="line"/>
      <point x="767.0" y="1005.0" type="line"/>
      <point x="122.0" y="1005.0" type="line"/>
      <point x="122.0" y="1005.0" type="line"/>
    </contour>
    <contour>
      <point x="-1.0" y="745.0" type="line"/>
      <point x="-1.0" y="832.0" type="line"/>
      <point x="122.0" y="832.0" type="line"/>
      <point x="122.0" y="832.0" type="line"/>
      <point x="767.0" y="832.0" type="line"/>
      <point x="767.0" y="832.0" type="line"/>
      <point x="919.0" y="834.0" type="line"/>
      <point x="919.0" y="747.0" type="line"/>
      <point x="727.0" y="745.0" type="line"/>
      <point x="727.0" y="745.0" type="line"/>
      <point x="122.0" y="745.0" type="line"/>
      <point x="122.0" y="745.0" type="line"/>
    </contour>
  </outline>
</glyph>
<glyph name="uni20B2" format="2">
  <advance width="1024"/>
  <unicode hex="20B2"/>
  <outline>
    <contour>
      <point x="437.0" y="-190.0" type="line"/>
      <point x="437.0" y="27.0" type="line"/>
      <point x="437.0" y="41.0" type="line"/>
      <point x="437.0" y="708.0" type="line"/>
      <point x="537.0" y="708.0" type="line"/>
      <point x="537.0" y="40.0" type="line"/>
      <point x="537.0" y="30.0" type="line"/>
      <point x="537.0" y="-190.0" type="line"/>
    </contour>
    <contour>
      <point x="437.0" y="708.0" type="line"/>
      <point x="437.0" y="1452.0" type="line"/>
      <point x="437.0" y="1462.0" type="line"/>
      <point x="437.0" y="1582.0" type="line"/>
      <point x="537.0" y="1582.0" type="line"/>
      <point x="537.0" y="1462.0" type="line"/>
      <point x="537.0" y="1449.0" type="line"/>
      <point x="537.0" y="708.0" type="line"/>
    </contour>
    <contour>
      <point x="855.0" y="725.0" type="line"/>
      <point x="855.0" y="452.0" type="line" smooth="yes"/>
      <point x="855.0" y="232.0"/>
      <point x="672.0" y="-5.0"/>
      <point x="501.0" y="-5.0" type="qcurve" smooth="yes"/>
      <point x="305.0" y="-5.0"/>
      <point x="94.0" y="278.0"/>
      <point x="94.0" y="542.0" type="qcurve" smooth="yes"/>
      <point x="94.0" y="897.0" type="line" smooth="yes"/>
      <point x="94.0" y="1180.0"/>
      <point x="293.0" y="1485.0"/>
      <point x="479.0" y="1485.0" type="qcurve" smooth="yes"/>
      <point x="588.0" y="1485.0"/>
      <point x="780.0" y="1371.0"/>
      <point x="849.0" y="1265.0" type="qcurve"/>
      <point x="782.0" y="1195.0" type="line"/>
      <point x="722.0" y="1289.0"/>
      <point x="569.0" y="1390.0"/>
      <point x="487.0" y="1390.0" type="qcurve" smooth="yes"/>
      <point x="347.0" y="1390.0"/>
      <point x="196.0" y="1136.0"/>
      <point x="196.0" y="899.0" type="qcurve" smooth="yes"/>
      <point x="196.0" y="544.0" type="line" smooth="yes"/>
      <point x="196.0" y="325.0"/>
      <point x="357.0" y="90.0"/>
      <point x="507.0" y="90.0" type="qcurve" smooth="yes"/>
      <point x="625.0" y="90.0"/>
      <point x="752.0" y="268.0"/>
      <point x="753.0" y="433.0" type="qcurve" smooth="yes"/>
      <point x="753.0" y="630.0" type="line"/>
      <point x="626.0" y="630.0" type="line"/>
      <point x="626.0" y="725.0" type="line"/>
    </contour>
  </outline>
</glyph>
